<?xml version='1.0' encoding='UTF-8'?>
<svg width="33mm" height="33mm" version="1.1" viewBox="0 0 33 33" xmlns="http://www.w3.org/2000/svg"><path d="M0,0H1V1H0zM1,0H2V1H1zM2,0H3V1H2zM3,0H4V1H3zM4,0H5V1H4zM5,0H6V1H5zM6,0H7V1H6zM10,0H11V1H10zM11,0H12V1H11zM16,0H17V1H16zM17,0H18V1H17zM18,0H19V1H18zM19,0H20V1H19zM20,0H21V1H20zM21,0H22V1H21zM23,0H24V1H23zM26,0H27V1H26zM27,0H28V1H27zM28,0H29V1H28zM29,0H30V1H29zM30,0H31V1H30zM31,0H32V1H31zM32,0H33V1H32zM0,1H1V2H0zM6,1H7V2H6zM11,1H12V2H11zM15,1H16V2H15zM17,1H18V2H17zM20,1H21V2H20zM21,1H22V2H21zM22,1H23V2H22zM26,1H27V2H26zM32,1H33V2H32zM0,2H1V3H0zM2,2H3V3H2zM3,2H4V3H3zM4,2H5V3H4zM6,2H7V3H6zM8,2H9V3H8zM9,2H10V3H9zM10,2H11V3H10zM14,2H15V3H14zM15,2H16V3H15zM16,2H17V3H16zM21,2H22V3H21zM22,2H23V3H22zM26,2H27V3H26zM28,2H29V3H28zM29,2H30V3H29zM30,2H31V3H30zM32,2H33V3H32zM0,3H1V4H0zM2,3H3V4H2zM3,3H4V4H3zM4,3H5V4H4zM6,3H7V4H6zM8,3H9V4H8zM9,3H10V4H9zM12,3H13V4H12zM17,3H18V4H17zM19,3H20V4H19zM22,3H23V4H22zM24,3H25V4H24zM26,3H27V4H26zM28,3H29V4H28zM29,3H30V4H29zM30,3H31V4H30zM32,3H33V4H32zM0,4H1V5H0zM2,4H3V5H2zM3,4H4V5H3zM4,4H5V5H4zM6,4H7V5H6zM8,4H9V5H8zM9,4H10V5H9zM11,4H12V5H11zM14,4H15V5H14zM15,4H16V5H15zM16,4H17V5H16zM19,4H20V5H19zM20,4H21V5H20zM21,4H22V5H21zM23,4H24V5H23zM26,4H27V5H26zM28,4H29V5H28zM29,4H30V5H29zM30,4H31V5H30zM32,4H33V5H32zM0,5H1V6H0zM6,5H7V6H6zM8,5H9V6H8zM10,5H11V6H10zM13,5H14V6H13zM17,5H18V6H17zM18,5H19V6H18zM24,5H25V6H24zM26,5H27V6H26zM32,5H33V6H32zM0,6H1V7H0zM1,6H2V7H1zM2,6H3V7H2zM3,6H4V7H3zM4,6H5V7H4zM5,6H6V7H5zM6,6H7V7H6zM8,6H9V7H8zM10,6H11V7H10zM12,6H13V7H12zM14,6H15V7H14zM16,6H17V7H16zM18,6H19V7H18zM20,6H21V7H20zM22,6H23V7H22zM24,6H25V7H24zM26,6H27V7H26zM27,6H28V7H27zM28,6H29V7H28zM29,6H30V7H29zM30,6H31V7H30zM31,6H32V7H31zM32,6H33V7H32zM8,7H9V8H8zM11,7H12V8H11zM12,7H13V8H12zM14,7H15V8H14zM16,7H17V8H16zM19,7H20V8H19zM20,7H21V8H20zM21,7H22V8H21zM0,8H1V9H0zM2,8H3V9H2zM3,8H4V9H3zM4,8H5V9H4zM5,8H6V9H5zM6,8H7V9H6zM9,8H10V9H9zM10,8H11V9H10zM13,8H14V9H13zM14,8H15V9H14zM17,8H18V9H17zM26,8H27V9H26zM27,8H28V9H27zM28,8H29V9H28zM29,8H30V9H29zM30,8H31V9H30zM1,9H2V10H1zM4,9H5V10H4zM5,9H6V10H5zM8,9H9V10H8zM9,9H10V10H9zM10,9H11V10H10zM11,9H12V10H11zM13,9H14V10H13zM16,9H17V10H16zM18,9H19V10H18zM19,9H20V10H19zM20,9H21V10H20zM23,9H24V10H23zM26,9H27V10H26zM27,9H28V10H27zM29,9H30V10H29zM30,9H31V10H30zM32,9H33V10H32zM6,10H7V11H6zM8,10H9V11H8zM10,10H11V11H10zM11,10H12V11H11zM13,10H14V11H13zM14,10H15V11H14zM15,10H16V11H15zM16,10H17V11H16zM17,10H18V11H17zM18,10H19V11H18zM22,10H23V11H22zM24,10H25V11H24zM25,10H26V11H25zM26,10H27V11H26zM28,10H29V11H28zM30,10H31V11H30zM0,11H1V12H0zM2,11H3V12H2zM3,11H4V12H3zM8,11H9V12H8zM9,11H10V12H9zM10,11H11V12H10zM12,11H13V12H12zM13,11H14V12H13zM15,11H16V12H15zM18,11H19V12H18zM19,11H20V12H19zM20,11H21V12H20zM21,11H22V12H21zM24,11H25V12H24zM25,11H26V12H25zM26,11H27V12H26zM28,11H29V12H28zM29,11H30V12H29zM30,11H31V12H30zM31,11H32V12H31zM32,11H33V12H32zM0,12H1V13H0zM4,12H5V13H4zM6,12H7V13H6zM7,12H8V13H7zM10,12H11V13H10zM12,12H13V13H12zM14,12H15V13H14zM17,12H18V13H17zM19,12H20V13H19zM22,12H23V13H22zM23,12H24V13H23zM25,12H26V13H25zM27,12H28V13H27zM28,12H29V13H28zM29,12H30V13H29zM3,13H4V14H3zM5,13H6V14H5zM7,13H8V14H7zM11,13H12V14H11zM13,13H14V14H13zM15,13H16V14H15zM17,13H18V14H17zM18,13H19V14H18zM19,13H20V14H19zM20,13H21V14H20zM22,13H23V14H22zM23,13H24V14H23zM26,13H27V14H26zM29,13H30V14H29zM31,13H32V14H31zM32,13H33V14H32zM3,14H4V15H3zM4,14H5V15H4zM5,14H6V15H5zM6,14H7V15H6zM10,14H11V15H10zM14,14H15V15H14zM15,14H16V15H15zM17,14H18V15H17zM20,14H21V15H20zM22,14H23V15H22zM24,14H25V15H24zM25,14H26V15H25zM26,14H27V15H26zM27,14H28V15H27zM28,14H29V15H28zM29,14H30V15H29zM31,14H32V15H31zM2,15H3V16H2zM4,15H5V16H4zM5,15H6V16H5zM7,15H8V16H7zM10,15H11V16H10zM11,15H12V16H11zM12,15H13V16H12zM15,15H16V16H15zM16,15H17V16H16zM20,15H21V16H20zM21,15H22V16H21zM23,15H24V16H23zM25,15H26V16H25zM26,15H27V16H26zM27,15H28V16H27zM29,15H30V16H29zM30,15H31V16H30zM0,16H1V17H0zM1,16H2V17H1zM5,16H6V17H5zM6,16H7V17H6zM8,16H9V17H8zM10,16H11V17H10zM15,16H16V17H15zM17,16H18V17H17zM19,16H20V17H19zM22,16H23V17H22zM23,16H24V17H23zM24,16H25V17H24zM25,16H26V17H25zM27,16H28V17H27zM28,16H29V17H28zM32,16H33V17H32zM1,17H2V18H1zM4,17H5V18H4zM5,17H6V18H5zM7,17H8V18H7zM13,17H14V18H13zM14,17H15V18H14zM16,17H17V18H16zM18,17H19V18H18zM19,17H20V18H19zM20,17H21V18H20zM21,17H22V18H21zM23,17H24V18H23zM26,17H27V18H26zM27,17H28V18H27zM29,17H30V18H29zM30,17H31V18H30zM31,17H32V18H31zM32,17H33V18H32zM3,18H4V19H3zM4,18H5V19H4zM5,18H6V19H5zM6,18H7V19H6zM9,18H10V19H9zM12,18H13V19H12zM13,18H14V19H13zM15,18H16V19H15zM16,18H17V19H16zM20,18H21V19H20zM24,18H25V19H24zM25,18H26V19H25zM26,18H27V19H26zM27,18H28V19H27zM28,18H29V19H28zM30,18H31V19H30zM31,18H32V19H31zM0,19H1V20H0zM1,19H2V20H1zM2,19H3V20H2zM4,19H5V20H4zM7,19H8V20H7zM10,19H11V20H10zM16,19H17V20H16zM19,19H20V20H19zM20,19H21V20H20zM21,19H22V20H21zM22,19H23V20H22zM26,19H27V20H26zM27,19H28V20H27zM28,19H29V20H28zM29,19H30V20H29zM30,19H31V20H30zM31,19H32V20H31zM1,20H2V21H1zM3,20H4V21H3zM6,20H7V21H6zM7,20H8V21H7zM8,20H9V21H8zM13,20H14V21H13zM14,20H15V21H14zM15,20H16V21H15zM16,20H17V21H16zM17,20H18V21H17zM19,20H20V21H19zM22,20H23V21H22zM24,20H25V21H24zM27,20H28V21H27zM28,20H29V21H28zM29,20H30V21H29zM31,20H32V21H31zM0,21H1V22H0zM2,21H3V22H2zM3,21H4V22H3zM5,21H6V22H5zM8,21H9V22H8zM10,21H11V22H10zM12,21H13V22H12zM13,21H14V22H13zM16,21H17V22H16zM17,21H18V22H17zM18,21H19V22H18zM19,21H20V22H19zM21,21H22V22H21zM23,21H24V22H23zM26,21H27V22H26zM30,21H31V22H30zM32,21H33V22H32zM0,22H1V23H0zM2,22H3V23H2zM3,22H4V23H3zM5,22H6V23H5zM6,22H7V23H6zM7,22H8V23H7zM10,22H11V23H10zM14,22H15V23H14zM15,22H16V23H15zM16,22H17V23H16zM20,22H21V23H20zM25,22H26V23H25zM27,22H28V23H27zM28,22H29V23H28zM29,22H30V23H29zM31,22H32V23H31zM0,23H1V24H0zM3,23H4V24H3zM5,23H6V24H5zM7,23H8V24H7zM9,23H10V24H9zM11,23H12V24H11zM12,23H13V24H12zM13,23H14V24H13zM18,23H19V24H18zM21,23H22V24H21zM22,23H23V24H22zM24,23H25V24H24zM25,23H26V24H25zM26,23H27V24H26zM27,23H28V24H27zM29,23H30V24H29zM30,23H31V24H30zM31,23H32V24H31zM32,23H33V24H32zM0,24H1V25H0zM2,24H3V25H2zM3,24H4V25H3zM4,24H5V25H4zM5,24H6V25H5zM6,24H7V25H6zM7,24H8V25H7zM11,24H12V25H11zM13,24H14V25H13zM15,24H16V25H15zM16,24H17V25H16zM17,24H18V25H17zM19,24H20V25H19zM22,24H23V25H22zM23,24H24V25H23zM24,24H25V25H24zM25,24H26V25H25zM26,24H27V25H26zM27,24H28V25H27zM28,24H29V25H28zM32,24H33V25H32zM8,25H9V26H8zM9,25H10V26H9zM10,25H11V26H10zM11,25H12V26H11zM12,25H13V26H12zM13,25H14V26H13zM16,25H17V26H16zM18,25H19V26H18zM19,25H20V26H19zM23,25H24V26H23zM24,25H25V26H24zM28,25H29V26H28zM30,25H31V26H30zM32,25H33V26H32zM0,26H1V27H0zM1,26H2V27H1zM2,26H3V27H2zM3,26H4V27H3zM4,26H5V27H4zM5,26H6V27H5zM6,26H7V27H6zM10,26H11V27H10zM12,26H13V27H12zM15,26H16V27H15zM16,26H17V27H16zM17,26H18V27H17zM18,26H19V27H18zM20,26H21V27H20zM21,26H22V27H21zM23,26H24V27H23zM24,26H25V27H24zM26,26H27V27H26zM28,26H29V27H28zM30,26H31V27H30zM31,26H32V27H31zM0,27H1V28H0zM6,27H7V28H6zM8,27H9V28H8zM9,27H10V28H9zM12,27H13V28H12zM14,27H15V28H14zM20,27H21V28H20zM21,27H22V28H21zM22,27H23V28H22zM23,27H24V28H23zM24,27H25V28H24zM28,27H29V28H28zM29,27H30V28H29zM30,27H31V28H30zM0,28H1V29H0zM2,28H3V29H2zM3,28H4V29H3zM4,28H5V29H4zM6,28H7V29H6zM8,28H9V29H8zM10,28H11V29H10zM11,28H12V29H11zM12,28H13V29H12zM14,28H15V29H14zM15,28H16V29H15zM16,28H17V29H16zM17,28H18V29H17zM19,28H20V29H19zM20,28H21V29H20zM22,28H23V29H22zM24,28H25V29H24zM25,28H26V29H25zM26,28H27V29H26zM27,28H28V29H27zM28,28H29V29H28zM29,28H30V29H29zM32,28H33V29H32zM0,29H1V30H0zM2,29H3V30H2zM3,29H4V30H3zM4,29H5V30H4zM6,29H7V30H6zM8,29H9V30H8zM10,29H11V30H10zM14,29H15V30H14zM16,29H17V30H16zM18,29H19V30H18zM19,29H20V30H19zM20,29H21V30H20zM22,29H23V30H22zM23,29H24V30H23zM24,29H25V30H24zM25,29H26V30H25zM28,29H29V30H28zM30,29H31V30H30zM31,29H32V30H31zM32,29H33V30H32zM0,30H1V31H0zM2,30H3V31H2zM3,30H4V31H3zM4,30H5V31H4zM6,30H7V31H6zM8,30H9V31H8zM9,30H10V31H9zM13,30H14V31H13zM15,30H16V31H15zM16,30H17V31H16zM18,30H19V31H18zM22,30H23V31H22zM26,30H27V31H26zM27,30H28V31H27zM29,30H30V31H29zM30,30H31V31H30zM0,31H1V32H0zM6,31H7V32H6zM9,31H10V32H9zM13,31H14V32H13zM15,31H16V32H15zM20,31H21V32H20zM21,31H22V32H21zM22,31H23V32H22zM25,31H26V32H25zM26,31H27V32H26zM28,31H29V32H28zM29,31H30V32H29zM30,31H31V32H30zM0,32H1V33H0zM1,32H2V33H1zM2,32H3V33H2zM3,32H4V33H3zM4,32H5V33H4zM5,32H6V33H5zM6,32H7V33H6zM8,32H9V33H8zM10,32H11V33H10zM11,32H12V33H11zM13,32H14V33H13zM15,32H16V33H15zM16,32H17V33H16zM17,32H18V33H17zM22,32H23V33H22zM23,32H24V33H23zM24,32H25V33H24zM25,32H26V33H25zM27,32H28V33H27zM29,32H30V33H29zM31,32H32V33H31z" id="qr-path" fill="#000000" fill-opacity="1" fill-rule="nonzero" stroke="none" /></svg>