<svg class="main-svg" xmlns="http://www.w3.org/2000/svg" xmlns:xlink="http://www.w3.org/1999/xlink" width="886" height="620" style="" viewBox="0 0 886 620"><rect x="0" y="0" width="886" height="620" style="fill: rgb(250, 248, 245); fill-opacity: 1;"/><defs id="defs-6ca2c3"><g class="clips"><clipPath id="clip6ca2c3xyplot" class="plotclip"><rect width="786" height="485"/></clipPath><clipPath class="axesclip" id="clip6ca2c3x"><rect x="76" y="0" width="786" height="620"/></clipPath><clipPath class="axesclip" id="clip6ca2c3y"><rect x="0" y="70" width="886" height="485"/></clipPath><clipPath class="axesclip" id="clip6ca2c3xy"><rect x="76" y="70" width="786" height="485"/></clipPath></g><g class="gradients"/><g class="patterns"/></defs><g class="bglayer"/><g class="layer-below"><g class="imagelayer"/><g class="shapelayer"/></g><g class="cartesianlayer"><g class="subplot xy"><g class="layer-subplot"><g class="shapelayer"/><g class="imagelayer"/></g><g class="minor-gridlayer"><g class="x"/><g class="y"/></g><g class="gridlayer"><g class="x"/><g class="y"><path class="ygrid crisp" transform="translate(0,461.65)" d="M76,0h786" style="stroke: rgb(232, 228, 222); stroke-opacity: 1; stroke-width: 1px;"/><path class="ygrid crisp" transform="translate(0,368.31)" d="M76,0h786" style="stroke: rgb(232, 228, 222); stroke-opacity: 1; stroke-width: 1px;"/><path class="ygrid crisp" transform="translate(0,274.96000000000004)" d="M76,0h786" style="stroke: rgb(232, 228, 222); stroke-opacity: 1; stroke-width: 1px;"/><path class="ygrid crisp" transform="translate(0,181.62)" d="M76,0h786" style="stroke: rgb(232, 228, 222); stroke-opacity: 1; stroke-width: 1px;"/><path class="ygrid crisp" transform="translate(0,88.27)" d="M76,0h786" style="stroke: rgb(232, 228, 222); stroke-opacity: 1; stroke-width: 1px;"/></g></g><g class="zerolinelayer"/><g class="layer-between"><g class="shapelayer"/><g class="imagelayer"/></g><path class="xlines-below"/><path class="ylines-below"/><g class="overlines-below"/><g class="xaxislayer-below"/><g class="yaxislayer-below"/><g class="overaxes-below"/><g class="overplot"><g class="xy" transform="translate(76,70)" clip-path="url(#clip6ca2c3xyplot)"><g class="scatterlayer mlayer"><g class="trace scatter trace704038" style="stroke-miterlimit: 2; opacity: 1;"><g class="fills"/><g class="errorbars"/><g class="lines"><path class="js-line" d="M52.68,25.05L72.99,25.25L83.66,26.51L114.99,26.61L125.66,26.07L146.66,26.79L157.34,25.03L167.67,26.89L178.34,26.03L189.01,26.37L198.65,25.75L209.32,25.91L219.65,27.24L240.65,25.57L251.33,26.53L262,25.28L272.33,26.31L283,26.92L293.33,26.2L304,25.87L314.68,26.81L334.99,28.5L345.32,30.44L366.32,30.21L376.99,31.19L387.66,30.47L397.99,31.37L408.66,29.85L418.99,29.48L429.67,30.67L440.34,33.34L450.32,33.31L461,31.37L482,30.93L492.33,34.43L503,31.89L513.67,31.58L524,32.2L534.67,30.92L555.67,30.2L566.35,33.82L575.99,32.62L586.66,33.44L607.66,33.12L617.99,33.89L639.34,34.12L649.66,35.92L660.34,34.12L670.66,33.28L681.34,35.75L692.01,35.57L733.32,36.23" style="vector-effect: none; fill: none; stroke: rgb(230, 159, 0); stroke-opacity: 1; stroke-width: 2.4px; opacity: 1;"/></g><g class="points"/><g class="text"/></g><g class="trace scatter trace067b7c" style="stroke-miterlimit: 2; opacity: 1;"><g class="fills"/><g class="errorbars"/><g class="lines"><path class="js-line" d="M52.68,24.25L733.32,35.75" style="vector-effect: none; fill: none; stroke: rgb(230, 159, 0); stroke-opacity: 0.45; stroke-dasharray: 3px, 3px; stroke-width: 1.6px; opacity: 1;"/></g><g class="points"/><g class="text"/></g><g class="trace scatter traceb9d02c" style="stroke-miterlimit: 2; opacity: 1;"><g class="fills"/><g class="errorbars"/><g class="lines"><path class="js-line" d="M52.68,264.16L63.35,243.62L72.99,278.68L83.66,290.5L93.99,262.61L104.66,214.77L114.99,205.7L125.66,191.6L136.34,234.71L146.66,237.74L157.34,243.24L167.67,244.87L178.34,202.97L189.01,211.71L198.65,229.84L209.32,246.34L219.65,226.11L230.33,230.94L240.65,195.38L251.33,186.18L262,216.61L272.33,229.39L283,227.92L304,237.27L314.68,234.39L324.32,239.91L334.99,241.86L345.32,252.38L355.99,203.25L366.32,166.72L376.99,194.68L387.66,199.14L397.99,235.92L408.66,222.6L418.99,231.76L429.67,229.84L440.34,233.82L450.32,221.13L461,243.34L482,194.31L492.33,172.12L503,174.65L513.67,181.2L524,206.81L534.67,217.84L545,200.57L555.67,203.86L566.35,187.61L575.99,224.83L586.66,238.61L596.99,242.84L617.99,143.08L628.66,159.9L639.34,178.57L649.66,200.85L660.34,205.77L670.66,181.83L681.34,179.57L692.01,167.03L701.65,195.16L712.32,212.67L722.65,232.81L733.32,199.64" style="vector-effect: none; fill: none; stroke: rgb(213, 94, 0); stroke-opacity: 1; stroke-width: 2.4px; opacity: 1;"/></g><g class="points"/><g class="text"/></g><g class="trace scatter trace8febfd" style="stroke-miterlimit: 2; opacity: 1;"><g class="fills"/><g class="errorbars"/><g class="lines"><path class="js-line" d="M52.68,243.09L733.32,188.68" style="vector-effect: none; fill: none; stroke: rgb(213, 94, 0); stroke-opacity: 0.45; stroke-dasharray: 3px, 3px; stroke-width: 1.6px; opacity: 1;"/></g><g class="points"/><g class="text"/></g><g class="trace scatter trace2e953f" style="stroke-miterlimit: 2; opacity: 1;"><g class="fills"/><g class="errorbars"/><g class="lines"><path class="js-line" d="M52.68,71.68L63.35,29.57L72.99,97.81L83.66,104.13L93.99,103.6L104.66,55.6L114.99,27.39L125.66,31.94L136.34,90.55L146.66,117.5L157.34,125.19L167.67,115.35L178.34,35.67L189.01,64.85L198.65,104.78L209.32,96.6L219.65,108.52L230.33,84.13L240.65,53.46L251.33,47.82L262,98.98L272.33,128.36L283,122.16L293.33,74.47L304,115.07L314.68,121.79L324.32,114.74L334.99,125.12L345.32,140.63L355.99,124.67L366.32,68.83L376.99,75.44L387.66,108.03L397.99,138.1L408.66,129.28L418.99,115.68L429.67,78.38L440.34,130.53L450.32,149.77L461,132.38L471.32,123.37L482,87.02L492.33,65.88L503,82.28L513.67,126.79L524,146.97L534.67,144.37L545,106.09L555.67,59.61L566.35,89.48L575.99,133.73L586.66,126.79L596.99,139.7L617.99,48.67L628.66,87.9L639.34,113.71L649.66,113.85L660.34,117.76L670.66,81.64L681.34,68.86L692.01,76.86L701.65,135.25L712.32,132.74L722.65,138.33L733.32,115.21" style="vector-effect: none; fill: none; stroke: rgb(0, 158, 115); stroke-opacity: 1; stroke-width: 2.4px; opacity: 1;"/></g><g class="points"/><g class="text"/></g><g class="trace scatter trace11f467" style="stroke-miterlimit: 2; opacity: 1;"><g class="fills"/><g class="errorbars"/><g class="lines"><path class="js-line" d="M52.68,81.98L733.32,118.48" style="vector-effect: none; fill: none; stroke: rgb(0, 158, 115); stroke-opacity: 0.45; stroke-dasharray: 3px, 3px; stroke-width: 1.6px; opacity: 1;"/></g><g class="points"/><g class="text"/></g><g class="trace scatter trace44783e" style="stroke-miterlimit: 2; opacity: 1;"><g class="fills"/><g class="errorbars"/><g class="lines"><path class="js-line" d="M52.68,275.72L63.35,271.45L72.99,316.83L83.66,342.45L93.99,356.4L104.66,386.87L114.99,407.9L136.34,329.82L146.66,351.94L157.34,332.15L167.67,271.52L178.34,318.79L189.01,324.13L198.65,334.44L209.32,343L219.65,367.99L230.33,413.36L240.65,425.19L251.33,414.17L272.33,392.02L283,347.48L293.33,314.88L304,367.45L314.68,365.26L324.32,372.87L345.32,432.92L355.99,444.03L366.32,446.65L376.99,423.86L387.66,443.86L397.99,433.77L408.66,398.14L418.99,386.96L429.67,371.12L440.34,393.72L450.32,386.71L461,397.5L471.32,425.11L482,439.12L492.33,441.99L503,435.8L513.67,429.11L524,426.85L534.67,409.21L545,404.15L555.67,395.44L566.35,397.89L575.99,398.52L586.66,412.99L596.99,430.56L607.66,440.35L617.99,443.23L628.66,440.9L639.34,438.94L649.66,431.83L660.34,421.1L670.66,424.44L681.34,371.53L692.01,365.63L701.65,428.34L712.32,428.09L722.65,434.49L733.32,445.82" style="vector-effect: none; fill: none; stroke: rgb(86, 180, 233); stroke-opacity: 1; stroke-width: 2.4px; opacity: 1;"/></g><g class="points"/><g class="text"/></g><g class="trace scatter tracef6b55f" style="stroke-miterlimit: 2; opacity: 1;"><g class="fills"/><g class="errorbars"/><g class="lines"><path class="js-line" d="M52.68,338.54L733.32,444.54" style="vector-effect: none; fill: none; stroke: rgb(86, 180, 233); stroke-opacity: 0.45; stroke-dasharray: 3px, 3px; stroke-width: 1.6px; opacity: 1;"/></g><g class="points"/><g class="text"/></g><g class="trace scatter trace4c83f6" style="stroke-miterlimit: 2; opacity: 1;"><g class="fills"/><g class="errorbars"/><g class="lines"><path class="js-line" d="M52.68,265.53L63.35,321L72.99,311.02L83.66,295.87L93.99,347.72L104.66,343.18L114.99,358.17L125.66,364.72L136.34,334.05L146.66,344.75L157.34,269.14L167.67,297.82L178.34,284.33L189.01,330.3L198.65,282.95L209.32,331.91L219.65,335.03L230.33,303.56L240.65,284.51L251.33,291.67L262,304.59L272.33,302.16L283,322.97L293.33,269.14L304,309.66L314.68,262.02L324.32,297.26L334.99,305.03L345.32,342.08L355.99,329.28L366.32,348.75L376.99,331.13L387.66,327.47L397.99,344.01L408.66,346.71L418.99,338.2L429.67,315.79L440.34,345.08L450.32,319.58L461,359.46L471.32,374.73L482,371.7L492.33,377.81L503,377.8L513.67,360.79L524,343.38L534.67,269.32L545,315.49L555.67,301.81L566.35,279.69L575.99,292.72L586.66,313.71L596.99,362.11L607.66,359.87L617.99,313.23L628.66,329.95L639.34,362.64L649.66,309.39L660.34,306.98L670.66,285.27L681.34,242.8L692.01,303.31L701.65,338.67L712.32,326.89L722.65,334.35L733.32,341.94" style="vector-effect: none; fill: none; stroke: rgb(0, 114, 178); stroke-opacity: 1; stroke-width: 2.4px; opacity: 1;"/></g><g class="points"/><g class="text"/></g><g class="trace scatter trace34f259" style="stroke-miterlimit: 2; opacity: 1;"><g class="fills"/><g class="errorbars"/><g class="lines"><path class="js-line" d="M52.68,315.19L733.32,327.65" style="vector-effect: none; fill: none; stroke: rgb(0, 114, 178); stroke-opacity: 0.45; stroke-dasharray: 3px, 3px; stroke-width: 1.6px; opacity: 1;"/></g><g class="points"/><g class="text"/></g></g></g></g><g class="zerolinelayer-above"/><path class="xlines-above crisp" d="M75,555.5H862" style="fill: none; stroke-width: 1px; stroke: rgb(232, 228, 222); stroke-opacity: 1;"/><path class="ylines-above crisp" d="M75.5,70V555" style="fill: none; stroke-width: 1px; stroke: rgb(232, 228, 222); stroke-opacity: 1;"/><g class="overlines-above"/><g class="xaxislayer-above"><g class="xtick"><text text-anchor="middle" x="0" y="575.2" transform="translate(128.68,0)" style="font-family: Inter; font-size: 16px; fill: rgb(26, 26, 26); fill-opacity: 1; white-space: pre;">2021</text></g><g class="xtick"><text text-anchor="middle" x="0" y="575.2" style="font-family: Inter; font-size: 16px; fill: rgb(26, 26, 26); fill-opacity: 1; white-space: pre;" transform="translate(254.34,0)">2022</text></g><g class="xtick"><text text-anchor="middle" x="0" y="575.2" style="font-family: Inter; font-size: 16px; fill: rgb(26, 26, 26); fill-opacity: 1; white-space: pre;" transform="translate(380,0)">2023</text></g><g class="xtick"><text text-anchor="middle" x="0" y="575.2" style="font-family: Inter; font-size: 16px; fill: rgb(26, 26, 26); fill-opacity: 1; white-space: pre;" transform="translate(505.67,0)">2024</text></g><g class="xtick"><text text-anchor="middle" x="0" y="575.2" style="font-family: Inter; font-size: 16px; fill: rgb(26, 26, 26); fill-opacity: 1; white-space: pre;" transform="translate(631.67,0)">2025</text></g><g class="xtick"><text text-anchor="middle" x="0" y="575.2" style="font-family: Inter; font-size: 16px; fill: rgb(26, 26, 26); fill-opacity: 1; white-space: pre;" transform="translate(757.34,0)">2026</text></g></g><g class="yaxislayer-above"><g class="ytick"><text text-anchor="end" x="71.8" y="5.6" transform="translate(0,555)" style="font-family: Inter; font-size: 16px; fill: rgb(26, 26, 26); fill-opacity: 1; white-space: pre;">0</text></g><g class="ytick"><text text-anchor="end" x="71.8" y="5.6" style="font-family: Inter; font-size: 16px; fill: rgb(26, 26, 26); fill-opacity: 1; white-space: pre;" transform="translate(0,461.65)">100</text></g><g class="ytick"><text text-anchor="end" x="71.8" y="5.6" style="font-family: Inter; font-size: 16px; fill: rgb(26, 26, 26); fill-opacity: 1; white-space: pre;" transform="translate(0,368.31)">200</text></g><g class="ytick"><text text-anchor="end" x="71.8" y="5.6" style="font-family: Inter; font-size: 16px; fill: rgb(26, 26, 26); fill-opacity: 1; white-space: pre;" transform="translate(0,274.96000000000004)">300</text></g><g class="ytick"><text text-anchor="end" x="71.8" y="5.6" style="font-family: Inter; font-size: 16px; fill: rgb(26, 26, 26); fill-opacity: 1; white-space: pre;" transform="translate(0,181.62)">400</text></g><g class="ytick"><text text-anchor="end" x="71.8" y="5.6" style="font-family: Inter; font-size: 16px; fill: rgb(26, 26, 26); fill-opacity: 1; white-space: pre;" transform="translate(0,88.27)">500</text></g></g><g class="overaxes-above"/></g></g><g class="polarlayer"/><g class="smithlayer"/><g class="ternarylayer"/><g class="geolayer"/><g class="funnelarealayer"/><g class="pielayer"/><g class="iciclelayer"/><g class="treemaplayer"/><g class="sunburstlayer"/><g class="glimages"/><defs id="topdefs-6ca2c3"><g class="clips"/><clipPath id="legend6ca2c3"><rect width="598" height="39" x="0" y="0"/></clipPath></defs><g class="layer-above"><g class="imagelayer"/><g class="shapelayer"/></g><g class="infolayer"><g class="legend" pointer-events="all" transform="translate(170,11.59999999999998)"><rect class="bg" shape-rendering="crispEdges" style="stroke: rgb(68, 68, 68); stroke-opacity: 1; fill: rgb(0, 0, 0); fill-opacity: 0; stroke-width: 0px;" width="598" height="39" x="0" y="0"/><g class="scrollbox" transform="" clip-path="url(#legend6ca2c3)"><g class="groups"><g class="traces" transform="translate(0,19.5)" style="opacity: 1;"><text class="legendtext" text-anchor="start" x="40" y="7.8" style="font-family: Inter; font-size: 20px; fill: rgb(26, 26, 26); fill-opacity: 1; white-space: pre;">Singapore</text><g class="layers" style="opacity: 1;"><g class="legendfill"/><g class="legendlines"><path class="js-line" d="M5,0h30" style="fill: none; stroke: rgb(230, 159, 0); stroke-opacity: 1; stroke-width: 2.4px;"/></g><g class="legendsymbols"><g class="legendpoints"/></g></g><rect class="legendtoggle" x="0" y="-14.5" width="138.59375" height="29" style="fill: rgb(0, 0, 0); fill-opacity: 0;"/></g><g class="traces" transform="translate(141.09375,19.5)" style="opacity: 1;"><text class="legendtext" text-anchor="start" x="40" y="7.8" style="font-family: Inter; font-size: 20px; fill: rgb(26, 26, 26); fill-opacity: 1; white-space: pre;">New York</text><g class="layers" style="opacity: 1;"><g class="legendfill"/><g class="legendlines"><path class="js-line" d="M5,0h30" style="fill: none; stroke: rgb(213, 94, 0); stroke-opacity: 1; stroke-width: 2.4px;"/></g><g class="legendsymbols"><g class="legendpoints"/></g></g><rect class="legendtoggle" x="0" y="-14.5" width="133.71875" height="29" style="fill: rgb(0, 0, 0); fill-opacity: 0;"/></g><g class="traces" transform="translate(277.3125,19.5)" style="opacity: 1;"><text class="legendtext" text-anchor="start" x="40" y="7.8" style="font-family: Inter; font-size: 20px; fill: rgb(26, 26, 26); fill-opacity: 1; white-space: pre;">PJM</text><g class="layers" style="opacity: 1;"><g class="legendfill"/><g class="legendlines"><path class="js-line" d="M5,0h30" style="fill: none; stroke: rgb(0, 158, 115); stroke-opacity: 1; stroke-width: 2.4px;"/></g><g class="legendsymbols"><g class="legendpoints"/></g></g><rect class="legendtoggle" x="0" y="-14.5" width="82.84375" height="29" style="fill: rgb(0, 0, 0); fill-opacity: 0;"/></g><g class="traces" transform="translate(362.65625,19.5)" style="opacity: 1;"><text class="legendtext" text-anchor="start" x="40" y="7.8" style="font-family: Inter; font-size: 20px; fill: rgb(26, 26, 26); fill-opacity: 1; white-space: pre;">Finland</text><g class="layers" style="opacity: 1;"><g class="legendfill"/><g class="legendlines"><path class="js-line" d="M5,0h30" style="fill: none; stroke: rgb(86, 180, 233); stroke-opacity: 1; stroke-width: 2.4px;"/></g><g class="legendsymbols"><g class="legendpoints"/></g></g><rect class="legendtoggle" x="0" y="-14.5" width="111.109375" height="29" style="fill: rgb(0, 0, 0); fill-opacity: 0;"/></g><g class="traces" transform="translate(476.265625,19.5)" style="opacity: 1;"><text class="legendtext" text-anchor="start" x="40" y="7.8" style="font-family: Inter; font-size: 20px; fill: rgb(26, 26, 26); fill-opacity: 1; white-space: pre;">Belgium</text><g class="layers" style="opacity: 1;"><g class="legendfill"/><g class="legendlines"><path class="js-line" d="M5,0h30" style="fill: none; stroke: rgb(0, 114, 178); stroke-opacity: 1; stroke-width: 2.4px;"/></g><g class="legendsymbols"><g class="legendpoints"/></g></g><rect class="legendtoggle" x="0" y="-14.5" width="118.546875" height="29" style="fill: rgb(0, 0, 0); fill-opacity: 0;"/></g></g></g><rect class="scrollbar" rx="20" ry="3" width="0" height="0" style="fill: rgb(128, 139, 164); fill-opacity: 1;" x="0" y="0"/></g><g class="g-gtitle"/><g class="g-xtitle"/><g class="g-ytitle"><text class="ytitle" transform="rotate(-90,19.7685546875,312.5)" x="19.7685546875" y="312.5" text-anchor="middle" style="opacity: 1; font-family: Inter; font-size: 20px; fill: rgb(26, 26, 26); fill-opacity: 1; white-space: pre;">gCO₂eq/kWh</text></g><g class="annotation" data-index="0" style="opacity: 1;"><g class="annotation-text-g" transform="rotate(0,107.68,95.05)"><g class="cursor-pointer" transform="translate(91,83)"><rect class="bg" x="0.5" y="0.5" width="33" height="23" style="stroke-width: 1px; stroke: rgb(0, 0, 0); stroke-opacity: 0; fill: rgb(0, 0, 0); fill-opacity: 0;"/><text class="annotation-text" text-anchor="middle" x="17.0703125" y="18" style="font-family: Inter; font-size: 16px; fill: rgb(230, 159, 0); fill-opacity: 1; white-space: pre;">493</text></g></g></g><g class="annotation" data-index="1" style="opacity: 1;"><g class="annotation-text-g" transform="rotate(0,828.82,106.22999999999999)"><g class="cursor-pointer" transform="translate(813,94)"><rect class="bg" x="0.5" y="0.5" width="30" height="23" style="stroke-width: 1px; stroke: rgb(0, 0, 0); stroke-opacity: 0; fill: rgb(0, 0, 0); fill-opacity: 0;"/><text class="annotation-text" text-anchor="middle" x="15.375" y="18" style="font-family: Inter; font-size: 16px; fill: rgb(230, 159, 0); fill-opacity: 1; white-space: pre;">481</text></g></g></g><g class="annotation" data-index="2" style="opacity: 1;"><g class="annotation-text-g" transform="rotate(0,108.18,318.16)"><g class="cursor-pointer" transform="translate(92,306)"><rect class="bg" x="0.5" y="0.5" width="32" height="23" style="stroke-width: 1px; stroke: rgb(0, 0, 0); stroke-opacity: 0; fill: rgb(0, 0, 0); fill-opacity: 0;"/><text class="annotation-text" text-anchor="middle" x="16.3515625" y="18" style="font-family: Inter; font-size: 16px; fill: rgb(213, 94, 0); fill-opacity: 1; white-space: pre;">237</text></g></g></g><g class="annotation" data-index="3" style="opacity: 1;"><g class="annotation-text-g" transform="rotate(0,830.32,269.64)"><g class="cursor-pointer" transform="translate(813,258)"><rect class="bg" x="0.5" y="0.5" width="33" height="23" style="stroke-width: 1px; stroke: rgb(0, 0, 0); stroke-opacity: 0; fill: rgb(0, 0, 0); fill-opacity: 0;"/><text class="annotation-text" text-anchor="middle" x="16.953125" y="18" style="font-family: Inter; font-size: 16px; fill: rgb(213, 94, 0); fill-opacity: 1; white-space: pre;">306</text></g></g></g><g class="annotation" data-index="4" style="opacity: 1;"><g class="annotation-text-g" transform="rotate(0,107.18,141.68)"><g class="cursor-pointer" transform="translate(90,130)"><rect class="bg" x="0.5" y="0.5" width="34" height="23" style="stroke-width: 1px; stroke: rgb(0, 0, 0); stroke-opacity: 0; fill: rgb(0, 0, 0); fill-opacity: 0;"/><text class="annotation-text" text-anchor="middle" x="17.28125" y="18" style="font-family: Inter; font-size: 16px; fill: rgb(0, 158, 115); fill-opacity: 1; white-space: pre;">443</text></g></g></g><g class="annotation" data-index="5" style="opacity: 1;"><g class="annotation-text-g" transform="rotate(0,830.32,185.20999999999998)"><g class="cursor-pointer" transform="translate(813,173)"><rect class="bg" x="0.5" y="0.5" width="33" height="23" style="stroke-width: 1px; stroke: rgb(0, 0, 0); stroke-opacity: 0; fill: rgb(0, 0, 0); fill-opacity: 0;"/><text class="annotation-text" text-anchor="middle" x="16.8671875" y="18" style="font-family: Inter; font-size: 16px; fill: rgb(0, 158, 115); fill-opacity: 1; white-space: pre;">396</text></g></g></g><g class="annotation" data-index="6" style="opacity: 1;"><g class="annotation-text-g" transform="rotate(0,107.68,359.72)"><g class="cursor-pointer" transform="translate(91,348)"><rect class="bg" x="0.5" y="0.5" width="33" height="23" style="stroke-width: 1px; stroke: rgb(0, 0, 0); stroke-opacity: 0; fill: rgb(0, 0, 0); fill-opacity: 0;"/><text class="annotation-text" text-anchor="middle" x="16.8046875" y="18" style="font-family: Inter; font-size: 16px; fill: rgb(86, 180, 233); fill-opacity: 1; white-space: pre;">224</text></g></g></g><g class="annotation" data-index="7" style="opacity: 1;"><g class="annotation-text-g" transform="rotate(0,825.32,515.8199999999999)"><g class="cursor-pointer" transform="translate(813,504)"><rect class="bg" x="0.5" y="0.5" width="23" height="23" style="stroke-width: 1px; stroke: rgb(0, 0, 0); stroke-opacity: 0; fill: rgb(0, 0, 0); fill-opacity: 0;"/><text class="annotation-text" text-anchor="middle" x="12.046875" y="18" style="font-family: Inter; font-size: 16px; fill: rgb(86, 180, 233); fill-opacity: 1; white-space: pre;">42</text></g></g></g><g class="annotation" data-index="8" style="opacity: 1;"><g class="annotation-text-g" transform="rotate(0,108.18,335.53)"><g class="cursor-pointer" transform="translate(92,324)"><rect class="bg" x="0.5" y="0.5" width="32" height="23" style="stroke-width: 1px; stroke: rgb(0, 0, 0); stroke-opacity: 0; fill: rgb(0, 0, 0); fill-opacity: 0;"/><text class="annotation-text" text-anchor="middle" x="16.6875" y="18" style="font-family: Inter; font-size: 16px; fill: rgb(0, 114, 178); fill-opacity: 1; white-space: pre;">235</text></g></g></g><g class="annotation" data-index="9" style="opacity: 1;"><g class="annotation-text-g" transform="rotate(0,828.32,411.94)"><g class="cursor-pointer" transform="translate(813,400)"><rect class="bg" x="0.5" y="0.5" width="29" height="23" style="stroke-width: 1px; stroke: rgb(0, 0, 0); stroke-opacity: 0; fill: rgb(0, 0, 0); fill-opacity: 0;"/><text class="annotation-text" text-anchor="middle" x="15.0625" y="18" style="font-family: Inter; font-size: 16px; fill: rgb(0, 114, 178); fill-opacity: 1; white-space: pre;">153</text></g></g></g></g></svg>