<svg class="main-svg" xmlns="http://www.w3.org/2000/svg" xmlns:xlink="http://www.w3.org/1999/xlink" width="1180" height="1100" style="" viewBox="0 0 1180 1100"><rect x="0" y="0" width="1180" height="1100" style="fill: rgb(250, 248, 245); fill-opacity: 1;"/><defs id="defs-a594dd"><g class="clips"><clipPath id="clipa594ddxyplot" class="plotclip"><rect width="1080" height="165.98400000000004"/></clipPath><clipPath id="clipa594ddx2y2plot" class="plotclip"><rect width="1080" height="165.98400000000004"/></clipPath><clipPath id="clipa594ddx3y3plot" class="plotclip"><rect width="1080" height="165.98399999999998"/></clipPath><clipPath id="clipa594ddx4y4plot" class="plotclip"><rect width="1080" height="165.984"/></clipPath><clipPath id="clipa594ddx5y5plot" class="plotclip"><rect width="1080" height="165.98399999999998"/></clipPath><clipPath class="axesclip" id="clipa594ddx"><rect x="76" y="0" width="1080" height="1100"/></clipPath><clipPath class="axesclip" id="clipa594ddy"><rect x="0" y="71" width="1180" height="165.98400000000004"/></clipPath><clipPath class="axesclip" id="clipa594ddxy"><rect x="76" y="71" width="1080" height="165.98400000000004"/></clipPath><clipPath class="axesclip" id="clipa594ddy2"><rect x="0" y="276.50399999999996" width="1180" height="165.98400000000004"/></clipPath><clipPath class="axesclip" id="clipa594ddxy2"><rect x="76" y="276.50399999999996" width="1080" height="165.98400000000004"/></clipPath><clipPath class="axesclip" id="clipa594ddy3"><rect x="0" y="482.00800000000004" width="1180" height="165.98399999999998"/></clipPath><clipPath class="axesclip" id="clipa594ddxy3"><rect x="76" y="482.00800000000004" width="1080" height="165.98399999999998"/></clipPath><clipPath class="axesclip" id="clipa594ddy4"><rect x="0" y="687.512" width="1180" height="165.984"/></clipPath><clipPath class="axesclip" id="clipa594ddxy4"><rect x="76" y="687.512" width="1080" height="165.984"/></clipPath><clipPath class="axesclip" id="clipa594ddy5"><rect x="0" y="893.0160000000001" width="1180" height="165.98399999999998"/></clipPath><clipPath class="axesclip" id="clipa594ddxy5"><rect x="76" y="893.0160000000001" width="1080" height="165.98399999999998"/></clipPath><clipPath class="axesclip" id="clipa594ddx2"><rect x="76" y="0" width="1080" height="1100"/></clipPath><clipPath class="axesclip" id="clipa594ddx2y"><rect x="76" y="71" width="1080" height="165.98400000000004"/></clipPath><clipPath class="axesclip" id="clipa594ddx2y2"><rect x="76" y="276.50399999999996" width="1080" height="165.98400000000004"/></clipPath><clipPath class="axesclip" id="clipa594ddx2y3"><rect x="76" y="482.00800000000004" width="1080" height="165.98399999999998"/></clipPath><clipPath class="axesclip" id="clipa594ddx2y4"><rect x="76" y="687.512" width="1080" height="165.984"/></clipPath><clipPath class="axesclip" id="clipa594ddx2y5"><rect x="76" y="893.0160000000001" width="1080" height="165.98399999999998"/></clipPath><clipPath class="axesclip" id="clipa594ddx3"><rect x="76" y="0" width="1080" height="1100"/></clipPath><clipPath class="axesclip" id="clipa594ddx3y"><rect x="76" y="71" width="1080" height="165.98400000000004"/></clipPath><clipPath class="axesclip" id="clipa594ddx3y2"><rect x="76" y="276.50399999999996" width="1080" height="165.98400000000004"/></clipPath><clipPath class="axesclip" id="clipa594ddx3y3"><rect x="76" y="482.00800000000004" width="1080" height="165.98399999999998"/></clipPath><clipPath class="axesclip" id="clipa594ddx3y4"><rect x="76" y="687.512" width="1080" height="165.984"/></clipPath><clipPath class="axesclip" id="clipa594ddx3y5"><rect x="76" y="893.0160000000001" width="1080" height="165.98399999999998"/></clipPath><clipPath class="axesclip" id="clipa594ddx4"><rect x="76" y="0" width="1080" height="1100"/></clipPath><clipPath class="axesclip" id="clipa594ddx4y"><rect x="76" y="71" width="1080" height="165.98400000000004"/></clipPath><clipPath class="axesclip" id="clipa594ddx4y2"><rect x="76" y="276.50399999999996" width="1080" height="165.98400000000004"/></clipPath><clipPath class="axesclip" id="clipa594ddx4y3"><rect x="76" y="482.00800000000004" width="1080" height="165.98399999999998"/></clipPath><clipPath class="axesclip" id="clipa594ddx4y4"><rect x="76" y="687.512" width="1080" height="165.984"/></clipPath><clipPath class="axesclip" id="clipa594ddx4y5"><rect x="76" y="893.0160000000001" width="1080" height="165.98399999999998"/></clipPath><clipPath class="axesclip" id="clipa594ddx5"><rect x="76" y="0" width="1080" height="1100"/></clipPath><clipPath class="axesclip" id="clipa594ddx5y"><rect x="76" y="71" width="1080" height="165.98400000000004"/></clipPath><clipPath class="axesclip" id="clipa594ddx5y2"><rect x="76" y="276.50399999999996" width="1080" height="165.98400000000004"/></clipPath><clipPath class="axesclip" id="clipa594ddx5y3"><rect x="76" y="482.00800000000004" width="1080" height="165.98399999999998"/></clipPath><clipPath class="axesclip" id="clipa594ddx5y4"><rect x="76" y="687.512" width="1080" height="165.984"/></clipPath><clipPath class="axesclip" id="clipa594ddx5y5"><rect x="76" y="893.0160000000001" width="1080" height="165.98399999999998"/></clipPath></g><g class="gradients"/><g class="patterns"/></defs><g class="bglayer"/><g class="layer-below"><g class="imagelayer"/><g class="shapelayer"/></g><g class="cartesianlayer"><g class="subplot xy"><g class="layer-subplot"><g class="shapelayer"/><g class="imagelayer"/></g><g class="minor-gridlayer"><g class="x"/><g class="y"/></g><g class="gridlayer"><g class="x"/><g class="y"><path class="ygrid crisp" transform="translate(0,182.51)" d="M76,0h1080" style="stroke: rgb(232, 228, 222); stroke-opacity: 1; stroke-width: 1px;"/><path class="ygrid crisp" transform="translate(0,128.19)" d="M76,0h1080" style="stroke: rgb(232, 228, 222); stroke-opacity: 1; stroke-width: 1px;"/><path class="ygrid crisp" transform="translate(0,73.87)" d="M76,0h1080" style="stroke: rgb(232, 228, 222); stroke-opacity: 1; stroke-width: 1px;"/></g></g><g class="zerolinelayer"/><g class="layer-between"><g class="shapelayer"/><g class="imagelayer"/></g><path class="xlines-below"/><path class="ylines-below"/><g class="overlines-below"/><g class="xaxislayer-below"/><g class="yaxislayer-below"/><g class="overaxes-below"/><g class="overplot"><g class="xy" transform="translate(76,71)" clip-path="url(#clipa594ddxyplot)"><g class="scatterlayer mlayer"><g class="trace scatter traceffe0b4" style="stroke-miterlimit: 2; opacity: 1;"><g class="fills"/><g class="errorbars"/><g class="lines"><path class="js-line" d="M0,30.03L2.25,49.04L4.5,84.35L9,138.67L11.25,152.25L13.5,157.68L15.75,135.96L22.5,51.76L24.75,30.03L27,16.45L29.25,16.45L31.5,19.16L33.75,16.45L38.25,16.45L40.5,13.73L42.75,13.73L45,16.45L47.25,16.45L49.5,13.73L51.75,16.45L54,30.03L56.25,49.04L58.5,84.35L63,138.67L65.25,152.25L67.5,157.68L69.75,127.81L76.5,51.76L78.75,38.18L81,16.45L83.25,16.45L87.75,16.45L90,13.73L92.25,16.45L94.5,16.45L105.75,16.45L108,32.74L110.25,49.04L112.5,84.35L117,135.96L119.25,149.54L121.5,157.68L123.75,133.24L130.5,51.76L132.75,35.46L135,19.16L137.25,16.45L139.5,16.45L141.75,13.73L144,16.45L146.25,13.73L148.5,16.45L150.75,16.45L155.25,11.02L157.5,13.73L159.75,16.45L162,30.03L164.25,49.04L166.5,84.35L171,138.67L173.25,152.25L175.5,154.97L177.75,133.24L186.75,32.74L189,19.16L193.5,19.16L195.75,16.45L213.75,16.45L216,30.03L218.25,49.04L220.5,84.35L227.25,152.25L229.5,154.97L234,111.51L236.25,84.35L240.75,35.46L243,19.16L249.75,19.16L252,16.45L254.25,13.73L256.5,13.73L258.75,16.45L261,13.73L263.25,16.45L265.5,16.45L267.75,16.45L270,32.74L272.25,49.04L274.5,84.35L279,138.67L281.25,152.25L283.5,157.68L285.75,133.24L294.75,30.03L297,16.45L301.5,16.45L303.75,13.73L310.5,13.73L312.75,16.45L321.75,16.45L324,32.74L326.25,49.04L328.5,84.35L333,135.96L335.25,152.25L337.5,157.68L339.75,135.96L344.25,84.35L346.5,59.91L351,19.16L353.25,19.16L355.5,19.16L357.75,16.45L360,16.45L362.25,13.73L364.5,13.73L366.75,16.45L369,13.73L371.25,13.73L373.5,13.73L375.75,16.45L378,30.03L380.25,49.04L384.75,111.51L387,138.67L391.5,154.97L393.75,133.24L396,111.51L398.25,81.63L402.75,38.18L405,19.16L411.75,19.16L414,16.45L423,16.45L425.25,13.73L427.5,16.45L429.75,16.45L432,30.03L434.25,49.04L438.75,114.23L441,138.67L443.25,152.25L445.5,152.25L450,108.79L452.25,76.2L456.75,32.74L459,16.45L470.25,16.45L472.5,13.73L479.25,13.73L481.5,16.45L483.75,16.45L486,32.74L488.25,49.04L490.5,84.35L495,135.96L497.25,146.82L499.5,152.25L501.75,133.24L508.5,57.19L510.75,38.18L513,19.16L515.25,19.16L517.5,19.16L519.75,16.45L537.75,16.45L540,32.74L542.25,49.04L544.5,84.35L549,138.67L551.25,152.25L553.5,157.68L555.75,135.96L562.5,51.76L564.75,35.46L567,19.16L569.25,16.45L576,16.45L578.25,13.73L582.75,13.73L585,16.45L591.75,16.45L594,30.03L596.25,49.04L598.5,84.35L603,138.67L605.25,152.25L607.5,157.68L609.75,135.96L616.5,49.04L618.75,35.46L621,19.16L623.25,16.45L645.75,16.45L648,32.74L650.25,49.04L652.5,84.35L657,138.67L659.25,152.25L661.5,157.68L663.75,135.96L670.5,54.47L672.75,32.74L675,19.16L677.25,19.16L679.5,16.45L681.75,16.45L684,16.45L686.25,13.73L688.5,13.73L690.75,16.45L697.5,16.45L699.75,13.73L704.25,49.04L706.5,84.35L711,138.67L713.25,152.25L715.5,157.68L717.75,133.24L724.5,51.76L726.75,35.46L729,19.16L731.25,16.45L733.5,13.73L735.75,13.73L738,16.45L740.25,8.3L744.75,13.73L747,13.73L749.25,16.45L751.5,16.45L753.75,13.73L756,32.74L758.25,49.04L760.5,84.35L767.25,152.25L769.5,146.82L774,111.51L776.25,81.63L780.75,35.46L783,19.16L785.25,13.73L787.5,16.45L789.75,16.45L792,13.73L794.25,13.73L796.5,16.45L798.75,16.45L801,11.02L803.25,13.73L805.5,13.73L807.75,16.45L810,30.03L812.25,49.04L814.5,84.35L819,138.67L821.25,152.25L823.5,154.97L825.75,122.38L830.25,84.35L832.5,57.19L837,16.45L839.25,19.16L841.5,16.45L843.75,16.45L861.75,16.45L864,32.74L866.25,49.04L868.5,84.35L873,138.67L875.25,152.25L877.5,157.68L879.75,130.52L888.75,38.18L891,19.16L897.75,19.16L900,16.45L906.75,16.45L909,11.02L911.25,16.45L913.5,13.73L915.75,16.45L918,32.74L920.25,49.04L922.5,84.35L927,138.67L929.25,152.25L931.5,152.25L933.75,135.96L938.25,78.92L940.5,59.91L945,19.16L947.25,19.16L949.5,19.16L951.75,16.45L954,16.45L956.25,13.73L958.5,13.73L960.75,16.45L963,13.73L965.25,16.45L969.75,16.45L972,32.74L974.25,49.04L976.5,84.35L981,138.67L983.25,152.25L985.5,154.97L987.75,135.96L990,100.65L992.25,78.92L996.75,32.74L999,16.45L1001.25,16.45L1003.5,13.73L1005.75,16.45L1008,13.73L1010.25,16.45L1012.5,16.45L1023.75,16.45L1026,30.03L1028.25,49.04L1030.5,84.35L1035,138.67L1037.25,152.25L1039.5,157.68L1041.75,135.96L1046.25,84.35L1048.5,51.76L1053,16.45L1055.25,19.16L1057.5,16.45L1059.75,16.45L1062,16.45L1064.25,13.73L1066.5,13.73L1068.75,16.45L1071,13.73L1073.25,13.73L1075.5,16.45L1077.75,16.45L1080,30.03" style="vector-effect: none; fill: none; stroke: rgb(154, 160, 166); stroke-opacity: 1; stroke-width: 1.4px; opacity: 1;"/></g><g class="points"/><g class="text"/></g><g class="trace scatter trace0f577d" style="stroke-miterlimit: 2; opacity: 1;"><g class="fills"/><g class="errorbars"/><g class="lines"><path class="js-line" d="M0,30.71L9,124.99L11.25,133.91L13.5,134.79L15.75,114.25L18,96.68L20.25,65.8L24.75,22.65L27,16.8L29.25,15.37L31.5,15.53L33.75,16.67L36,16.05L38.25,16.54L40.5,15.51L45,14.96L47.25,11.46L49.5,11.33L51.75,20.34L54,32.11L56.25,58.89L58.5,81.64L60.75,113.54L63,130.74L65.25,135.28L67.5,127.56L69.75,102.46L72,87.49L74.25,58.1L76.5,43.12L78.75,20.99L81,16.61L83.25,14.05L85.5,15.36L87.75,15.39L94.5,16.6L96.75,16.25L99,15.88L101.25,12.31L103.5,12.57L105.75,20.15L108,31.9L110.25,54.48L112.5,76.99L114.75,108.22L117,128.52L119.25,132.64L121.5,126.11L123.75,105.28L126,88.21L128.25,60.47L132.75,23.26L135,16.33L137.25,14.13L139.5,14.1L141.75,16.07L144,15.92L146.25,16.36L148.5,15.79L150.75,13.98L153,14.06L155.25,10.42L157.5,10.93L159.75,18.37L162,32.89L168.75,98.38L171,111.83L173.25,119.53L175.5,113.08L184.5,43.61L186.75,27.93L189,19.17L191.25,14.34L198,15.22L200.25,16L204.75,17.61L207,18.2L209.25,15.52L211.5,15.48L213.75,17.07L216,24.32L220.5,53.86L222.75,76.32L227.25,99.26L229.5,93.16L231.75,86.69L234,75.63L240.75,31.33L243,23.09L245.25,18.44L247.5,17.45L254.25,18.53L256.5,19.24L258.75,19.31L261,18.51L265.5,16.29L267.75,18.7L270,24.38L272.25,37.76L274.5,50.82L276.75,71.67L281.25,95.76L283.5,91.47L285.75,83.86L288,72.15L290.25,54.21L292.5,42.77L294.75,29.4L297,24.67L299.25,18.71L301.5,18.74L303.75,18.1L306,18.69L308.25,16.85L310.5,16.31L312.75,14.36L315,13.97L317.25,12.52L319.5,12.2L321.75,16.61L324,27.69L330.75,84.31L333,95.07L335.25,98.55L337.5,90.61L342,68.57L344.25,49.45L348.75,24.65L351,19.42L353.25,17.13L355.5,16.81L357.75,17.97L360,17.7L362.25,18.43L364.5,17.79L366.75,17.47L369,16.16L371.25,14.47L373.5,14.05L375.75,20.71L378,30.26L387,106.03L389.25,110.48L391.5,112.24L393.75,97.78L396,86.16L398.25,60.07L402.75,26.79L405,19.01L407.25,16.11L409.5,15.59L411.75,17.16L414,16.85L416.25,17.32L418.5,16.88L423,15.21L425.25,12.71L427.5,10.97L429.75,16.42L432,27.6L434.25,48.36L436.5,70.08L438.75,100.83L441,121.71L443.25,128.25L445.5,127.88L447.75,107.28L450,95.24L452.25,68.31L456.75,28.32L459,19.71L461.25,17.9L463.5,18.02L465.75,18.78L468,17.28L474.75,11.93L477,12.31L479.25,9.81L481.5,10.78L483.75,17.46L486,34.44L495,130.3L497.25,135.31L499.5,128.61L501.75,114.61L510.75,28.69L513,15.12L515.25,12.06L517.5,12.31L519.75,15.31L522,15.23L524.25,16.04L526.5,15.31L528.75,13.92L531,14.26L535.5,10.09L537.75,14.48L540,27.98L542.25,48.19L549,134.3L551.25,145.61L553.5,140.5L555.75,125.76L564.75,33.17L567,19.66L569.25,15.64L571.5,14.19L573.75,16.21L576,16.26L580.5,14.94L582.75,12.96L587.25,12.18L589.5,10.29L591.75,14.98L594,30.1L596.25,52.43L598.5,83.18L603,139.87L605.25,149.81L607.5,143.23L609.75,127.31L616.5,48.3L618.75,29.79L621,17.81L623.25,14.89L625.5,14.15L627.75,15.66L634.5,15.27L636.75,14.34L639,14.8L641.25,12.65L643.5,11.19L645.75,16.93L648,30.92L650.25,54.02L657,136.43L659.25,142.14L661.5,134.61L663.75,114.84L672.75,25.96L675,16.79L677.25,14.42L679.5,14.41L681.75,15.79L684,15.55L686.25,16.67L688.5,16.92L693,17.19L695.25,14.77L697.5,13.46L699.75,19.39L702,31.58L704.25,53.75L711,130.7L713.25,137.59L715.5,131.69L717.75,112.19L720,92.46L722.25,65.58L726.75,25.54L729,16.6L731.25,13.32L733.5,14.96L744.75,18.46L747,18.48L749.25,15.7L751.5,15.2L753.75,20.42L756,32L760.5,74.75L762.75,102.69L765,121.77L767.25,129.28L769.5,122.11L771.75,105.75L774,88.67L776.25,64.62L780.75,30.96L783,23.3L787.5,18.17L789.75,18.84L792,17.83L794.25,15.82L796.5,14.97L798.75,13.04L801,11.33L803.25,10.88L805.5,10L807.75,15.25L810,29.2L812.25,50.82L819,125.88L821.25,135.1L823.5,129.59L825.75,116.26L830.25,71.99L832.5,48.21L834.75,28.37L837,17.88L839.25,13.98L841.5,12.44L843.75,14.41L846,13.77L850.5,12.94L852.75,11.48L855,10.51L857.25,10.97L859.5,9.98L861.75,15.56L864,30.15L866.25,52.86L870.75,103.74L873,123.86L875.25,131.59L877.5,131.89L879.75,121.86L882,100.87L891,19.8L893.25,13.91L895.5,11.72L897.75,13.35L902.25,15.16L904.5,15.8L906.75,14.04L909,13.53L911.25,12.7L913.5,10.43L915.75,13.21L918,23.55L922.5,67.65L924.75,99.82L929.25,134.91L931.5,137.88L933.75,132.42L936,110.7L938.25,91.73L940.5,63.69L945,22.26L947.25,17.25L951.75,15.78L954,16.99L956.25,16.7L958.5,17.5L960.75,16.78L963,17.53L965.25,16.93L967.5,13.12L969.75,15.29L972,26.54L974.25,42.8L976.5,70.48L981,118.4L983.25,130.68L985.5,128.69L987.75,119.05L994.5,51.7L996.75,37.75L999,20.89L1001.25,17.28L1003.5,14.65L1005.75,16.62L1008,16.98L1010.25,16.4L1019.25,14.39L1021.5,11.56L1023.75,14.02L1026,25.66L1028.25,43.47L1030.5,71.57L1035,123.61L1037.25,133.09L1039.5,126.97L1041.75,114.78L1050.75,32.66L1053,20.24L1055.25,15.35L1057.5,13.82L1062,15.5L1064.25,14.94L1066.5,14.91L1068.75,13.88L1071,13.25L1073.25,11.77L1075.5,10.92L1077.75,14.49L1080,27.62" style="vector-effect: none; fill: none; stroke: rgb(224, 83, 18); stroke-opacity: 1; stroke-width: 1.4px; opacity: 1;"/></g><g class="points"/><g class="text"/></g></g></g></g><g class="zerolinelayer-above"/><path class="xlines-above crisp" d="M75,237.48400000000004H1156" style="fill: none; stroke-width: 1px; stroke: rgb(232, 228, 222); stroke-opacity: 1;"/><path class="ylines-above crisp" d="M75.5,71V236.98400000000004" style="fill: none; stroke-width: 1px; stroke: rgb(232, 228, 222); stroke-opacity: 1;"/><g class="overlines-above"/><g class="xaxislayer-above"/><g class="yaxislayer-above"><g class="ytick"><text text-anchor="end" x="71.8" y="5.6" transform="translate(0,236.83)" style="font-family: Inter; font-size: 16px; fill: rgb(26, 26, 26); fill-opacity: 1; white-space: pre;">440</text></g><g class="ytick"><text text-anchor="end" x="71.8" y="5.6" style="font-family: Inter; font-size: 16px; fill: rgb(26, 26, 26); fill-opacity: 1; white-space: pre;" transform="translate(0,182.51)">460</text></g><g class="ytick"><text text-anchor="end" x="71.8" y="5.6" style="font-family: Inter; font-size: 16px; fill: rgb(26, 26, 26); fill-opacity: 1; white-space: pre;" transform="translate(0,128.19)">480</text></g><g class="ytick"><text text-anchor="end" x="71.8" y="5.6" style="font-family: Inter; font-size: 16px; fill: rgb(26, 26, 26); fill-opacity: 1; white-space: pre;" transform="translate(0,73.87)">500</text></g></g><g class="overaxes-above"/></g><g class="subplot x2y2"><g class="layer-subplot"><g class="shapelayer"/><g class="imagelayer"/></g><g class="minor-gridlayer"><g class="x2"/><g class="y2"/></g><g class="gridlayer"><g class="x2"/><g class="y2"><path class="y2grid crisp" transform="translate(0,430.47399999999993)" d="M76,0h1080" style="stroke: rgb(232, 228, 222); stroke-opacity: 1; stroke-width: 1px;"/><path class="y2grid crisp" transform="translate(0,383.484)" d="M76,0h1080" style="stroke: rgb(232, 228, 222); stroke-opacity: 1; stroke-width: 1px;"/><path class="y2grid crisp" transform="translate(0,336.49399999999997)" d="M76,0h1080" style="stroke: rgb(232, 228, 222); stroke-opacity: 1; stroke-width: 1px;"/><path class="y2grid crisp" transform="translate(0,289.50399999999996)" d="M76,0h1080" style="stroke: rgb(232, 228, 222); stroke-opacity: 1; stroke-width: 1px;"/></g></g><g class="zerolinelayer"/><g class="layer-between"><g class="shapelayer"/><g class="imagelayer"/></g><path class="xlines-below"/><path class="ylines-below"/><g class="overlines-below"/><g class="xaxislayer-below"/><g class="yaxislayer-below"/><g class="overaxes-below"/><g class="overplot"><g class="x2y2" transform="translate(76,276.50399999999996)" clip-path="url(#clipa594ddx2y2plot)"><g class="scatterlayer mlayer"><g class="trace scatter tracee034d7" style="stroke-miterlimit: 2; opacity: 1;"><g class="fills"/><g class="errorbars"/><g class="lines"><path class="js-line" d="M0,81.61L2.25,74.09L4.5,76.91L6.75,75.97L9,83.48L13.5,97.58L15.75,104.16L18,103.22L20.25,100.4L22.5,101.34L24.75,105.1L27,99.46L29.25,96.64L31.5,101.34L33.75,108.86L38.25,105.1L40.5,89.12L42.75,106.04L45,100.4L47.25,95.7L49.5,81.61L51.75,84.42L54,89.12L56.25,88.18L58.5,99.46L60.75,95.7L63,106.98L65.25,118.26L67.5,122.02L69.75,128.6L72,131.42L74.25,122.02L76.5,123.9L78.75,120.14L81,112.62L83.25,108.86L85.5,103.22L87.75,100.4L90,106.98L92.25,109.8L94.5,115.44L96.75,115.44L99,118.26L101.25,117.32L103.5,103.22L110.25,73.15L112.5,68.45L114.75,66.57L117,71.27L119.25,85.36L121.5,92.88L123.75,96.64L126,98.52L128.25,95.7L130.5,82.54L132.75,71.27L135,64.69L137.25,64.69L139.5,75.03L141.75,85.36L144,86.3L146.25,78.79L148.5,76.91L150.75,70.33L153,69.39L155.25,67.51L157.5,72.21L159.75,71.27L162,66.57L166.5,75.97L168.75,76.91L171,83.48L173.25,82.54L177.75,92.88L180,85.36L182.25,88.18L184.5,82.54L186.75,73.15L189,59.99L191.25,71.27L193.5,76.91L195.75,74.09L198,79.73L200.25,77.85L202.5,79.73L204.75,84.42L207,82.54L209.25,87.24L211.5,89.12L213.75,87.24L216,74.09L218.25,56.23L220.5,64.69L225,92.88L227.25,100.4L229.5,112.62L231.75,112.62L234,114.5L236.25,112.62L238.5,103.22L240.75,89.12L243,75.03L245.25,72.21L247.5,82.54L249.75,89.12L252,84.42L254.25,90.06L256.5,91L258.75,87.24L261,87.24L263.25,82.54L265.5,70.33L267.75,69.39L272.25,74.09L274.5,66.57L276.75,80.67L279,88.18L281.25,105.1L283.5,104.16L285.75,103.22L288,103.22L290.25,104.16L292.5,95.7L297,64.69L299.25,59.05L301.5,63.75L303.75,64.69L306,64.69L308.25,68.45L310.5,63.75L312.75,61.87L315,62.81L317.25,59.99L319.5,61.87L321.75,58.11L326.25,45.89L328.5,44.01L330.75,52.47L333,72.21L337.5,96.64L339.75,102.28L342,107.92L344.25,103.22L346.5,90.06L348.75,82.54L351,75.03L353.25,75.97L355.5,75.97L357.75,84.42L360,85.36L362.25,91.94L364.5,94.76L366.75,99.46L369,100.4L371.25,85.36L373.5,78.79L375.75,79.73L378,76.91L380.25,67.51L382.5,69.39L384.75,75.03L387,84.42L389.25,113.56L391.5,128.6L393.75,131.42L396,134.23L398.25,138.93L400.5,139.87L402.75,134.23L405,129.54L407.25,119.2L411.75,115.44L414,120.14L416.25,125.78L418.5,136.11L420.75,146.45L423,140.81L427.5,110.74L429.75,99.46L432,96.64L434.25,99.46L436.5,94.76L438.75,97.58L441,107.92L443.25,131.42L445.5,141.75L447.75,144.57L450,147.39L452.25,152.09L454.5,151.15L456.75,142.69L459,126.72L461.25,119.2L463.5,116.38L465.75,123.9L468,127.66L470.25,125.78L474.75,105.1L477,94.76L481.5,62.81L483.75,59.05L486,60.93L488.25,54.35L490.5,48.71L492.75,51.53L495,57.17L497.25,84.42L499.5,102.28L501.75,112.62L504,114.5L506.25,114.5L508.5,110.74L510.75,98.52L513,94.76L515.25,85.36L517.5,80.67L519.75,73.15L524.25,57.17L526.5,52.47L531,43.07L533.25,45.89L535.5,50.59L537.75,59.99L540,61.87L542.25,53.41L544.5,49.65L546.75,44.01L549,45.89L551.25,57.17L553.5,72.21L555.75,76.91L558,80.67L560.25,82.54L562.5,80.67L564.75,75.03L567,59.99L569.25,51.53L571.5,42.13L573.75,39.31L576,43.07L578.25,44.01L582.75,27.1L585,25.22L587.25,29.92L589.5,28.04L591.75,29.92L594,34.61L596.25,31.79L598.5,26.16L600.75,26.16L603,32.73L605.25,53.41L607.5,63.75L609.75,75.03L612,77.85L614.25,77.85L616.5,73.15L618.75,63.75L621,50.59L623.25,44.95L625.5,42.13L627.75,41.19L630,39.31L632.25,34.61L634.5,24.28L636.75,19.58L639,12.06L641.25,8.3L643.5,8.3L648,25.22L650.25,24.28L654.75,31.79L657,33.67L661.5,73.15L663.75,82.54L666,85.36L668.25,86.3L670.5,77.85L672.75,75.97L675,74.09L677.25,67.51L679.5,75.97L681.75,78.79L684,83.48L686.25,80.67L688.5,80.67L690.75,82.54L693,77.85L695.25,69.39L697.5,61.87L699.75,63.75L702,64.69L704.25,59.99L706.5,63.75L708.75,74.09L713.25,96.64L715.5,105.1L717.75,109.8L720,112.62L722.25,111.68L724.5,106.04L726.75,90.06L729,79.73L731.25,78.79L733.5,87.24L738,102.28L740.25,104.16L744.75,106.98L747,104.16L751.5,77.85L753.75,72.21L756,75.03L758.25,70.33L760.5,70.33L762.75,81.61L767.25,112.62L769.5,119.2L771.75,122.02L774,127.66L776.25,133.3L778.5,132.36L780.75,121.08L783,117.32L785.25,116.38L787.5,112.62L789.75,116.38L792,115.44L794.25,118.26L796.5,116.38L798.75,117.32L801,112.62L803.25,112.62L805.5,106.04L810,92.88L812.25,92.88L814.5,92.88L816.75,93.82L819,103.22L821.25,95.7L823.5,92.88L825.75,105.1L828,106.98L830.25,106.98L832.5,106.98L834.75,108.86L837,99.46L839.25,102.28L841.5,93.82L843.75,91L846,91.94L848.25,91L850.5,95.7L852.75,89.12L857.25,91L859.5,89.12L864,78.79L866.25,81.61L868.5,79.73L870.75,82.54L873,89.12L875.25,104.16L877.5,111.68L879.75,109.8L882,110.74L884.25,109.8L886.5,106.04L888.75,93.82L891,88.18L893.25,79.73L895.5,78.79L897.75,84.42L900,91.94L902.25,93.82L904.5,95.7L906.75,95.7L909,79.73L911.25,80.67L913.5,76.91L915.75,62.81L918,57.17L920.25,62.81L924.75,69.39L927,75.03L929.25,101.34L931.5,98.52L933.75,101.34L936,91L938.25,91.94L940.5,91.94L945,70.33L947.25,75.97L949.5,76.91L951.75,87.24L954,90.06L956.25,88.18L958.5,86.3L960.75,82.54L963,81.61L965.25,69.39L967.5,59.05L969.75,60.93L972,59.99L974.25,59.99L976.5,61.87L978.75,69.39L983.25,90.06L985.5,95.7L990,105.1L992.25,106.98L994.5,92.88L996.75,86.3L1001.25,66.57L1003.5,61.87L1005.75,57.17L1008,58.11L1012.5,49.65L1014.75,49.65L1017,49.65L1019.25,51.53L1021.5,44.95L1023.75,47.77L1028.25,43.07L1030.5,43.07L1032.75,44.95L1035,55.29L1037.25,65.63L1039.5,81.61L1041.75,93.82L1044,96.64L1046.25,101.34L1048.5,98.52L1050.75,81.61L1053,74.09L1055.25,74.09L1057.5,75.03L1062,79.73L1064.25,75.97L1066.5,74.09L1068.75,79.73L1071,72.21L1073.25,67.51L1075.5,61.87L1077.75,52.47L1080,49.65" style="vector-effect: none; fill: none; stroke: rgb(154, 160, 166); stroke-opacity: 1; stroke-width: 1.4px; opacity: 1;"/></g><g class="points"/><g class="text"/></g><g class="trace scatter trace1d0891" style="stroke-miterlimit: 2; opacity: 1;"><g class="fills"/><g class="errorbars"/><g class="lines"><path class="js-line" d="M0,95.74L2.25,96.2L4.5,99.01L6.75,102.16L9,110.6L13.5,123.39L15.75,125.19L20.25,123.15L22.5,118.31L24.75,116.53L27,113.35L31.5,111.64L33.75,112.65L40.5,116.87L42.75,116.54L45,115.34L47.25,112.81L54,105.52L56.25,104.61L58.5,103.78L60.75,109.19L65.25,123.78L67.5,126.71L69.75,128.89L72,128L74.25,128.77L76.5,122.85L78.75,121.44L81,113.44L83.25,112.67L85.5,107.73L87.75,108.29L90,104.79L92.25,105.74L94.5,102.97L96.75,103.93L99,100.29L101.25,101.69L103.5,94.7L105.75,92.99L108,86.97L110.25,86.79L112.5,87.5L117,96.09L119.25,104.76L121.5,104.86L123.75,111.81L126,110.86L128.25,110.95L130.5,104.73L132.75,104.59L135,96.56L137.25,95.63L139.5,89.56L141.75,91.91L144,88.55L146.25,92.64L148.5,89.54L150.75,91.82L153,86.1L155.25,86.28L157.5,80.98L159.75,80.15L162,75.44L164.25,77.46L166.5,77.63L168.75,85.8L171,87.12L173.25,97.99L175.5,96.18L177.75,102.58L180,96.99L182.25,99.49L184.5,94.16L186.75,95.52L189,90.12L191.25,91.43L193.5,88.12L195.75,91.85L198,89.55L200.25,92.88L202.5,89.87L204.75,89.29L207,82.45L209.25,84.54L211.5,78.88L213.75,80.76L216,77.75L218.25,82.24L220.5,82.5L222.75,92.7L225,96.98L227.25,107.32L229.5,108.49L231.75,113.81L234,110.56L236.25,109.58L238.5,104.33L240.75,102.07L243,97.75L245.25,98.38L247.5,97.09L249.75,99.08L252,98.67L254.25,100L256.5,97.44L258.75,98.44L261,94.53L263.25,93.76L265.5,89.74L267.75,89.13L270,86.43L272.25,86.57L274.5,83.94L276.75,88.34L281.25,98.74L283.5,100.43L285.75,103.06L288,106.97L290.25,105.55L292.5,101.46L297,94.15L299.25,92.33L301.5,89.03L303.75,87.65L306,85.4L308.25,86.13L310.5,84.66L312.75,85.18L317.25,79.44L319.5,72.35L324,65.89L326.25,65.17L330.75,79.37L333,88.93L335.25,92.24L337.5,97.32L339.75,103.01L342,105.81L344.25,106.72L346.5,102.73L348.75,99.45L351,93.93L353.25,92.44L355.5,87.72L357.75,89.5L360,85.54L362.25,89.76L364.5,86.45L366.75,90.07L369,84.23L371.25,85.59L373.5,77.3L375.75,77.48L378,72.23L380.25,74.32L382.5,72.94L384.75,84.34L387,89.57L389.25,101.97L391.5,105.6L393.75,114.52L396,111.39L398.25,116.13L400.5,109.42L402.75,109.93L405,100.45L407.25,101.74L409.5,93.27L411.75,96.44L414,92.74L416.25,97.79L418.5,94.28L420.75,95.94L423,91.49L425.25,92.15L427.5,88.32L429.75,90.07L432,85.3L434.25,87.92L436.5,86.39L441,96.38L443.25,104.17L447.75,124.07L450,127.66L452.25,131.18L454.5,124.67L456.75,121.89L459,110.38L463.5,94.48L465.75,94.96L468,93.6L470.25,93.87L474.75,90.12L477,86.73L479.25,84.6L481.5,80.05L483.75,77.24L486,75.88L488.25,77.21L490.5,82.03L492.75,86.46L495,94.21L497.25,100.02L499.5,103.55L501.75,104.73L504,98.68L510.75,73.93L513,63.61L515.25,60.18L517.5,58.24L519.75,59.73L522,59.36L524.25,59.72L526.5,57.89L528.75,56.94L531,51.47L533.25,49.82L535.5,44.41L540,36.67L542.25,35.95L544.5,37.09L546.75,43.3L549,46.69L551.25,56.75L553.5,60.68L555.75,67.49L558,72.94L560.25,71.82L562.5,72.39L564.75,69.26L567,61.93L569.25,60.07L571.5,56.34L573.75,58.72L576,59.24L578.25,63.21L582.75,64.19L585,60.69L589.5,57.81L591.75,58.84L594,56.38L596.25,59.74L598.5,63.79L600.75,73.38L605.25,93.02L607.5,94.49L609.75,100.54L612,97.45L618.75,69.71L621,63.89L625.5,60.45L627.75,68.05L630,68.93L632.25,71.66L634.5,71.6L636.75,73.08L639,69.42L641.25,64.17L643.5,66.11L645.75,60.38L648,59.24L650.25,63.71L654.75,84.29L657,87.35L659.25,93.99L661.5,97.48L663.75,98.76L666,97.1L668.25,96.22L670.5,81.88L672.75,80.93L675,67.03L677.25,71.54L679.5,61.81L681.75,60.98L684,56.48L686.25,56.51L688.5,54.56L693,53.44L695.25,50.3L697.5,50.85L699.75,49.03L704.25,59.75L706.5,70.1L708.75,74.44L711,81.25L713.25,82.85L715.5,82.67L717.75,81.73L720,83.47L724.5,67.8L726.75,62.71L729,61.62L731.25,62.49L735.75,65.08L738,66.29L742.5,66.44L744.75,65.17L747,63.64L749.25,60.92L753.75,55.74L756,55.77L758.25,56.76L760.5,62.45L765,78.59L767.25,90.22L771.75,103.54L774,119.73L776.25,121.85L778.5,130.38L780.75,113.83L783,121.71L785.25,110.29L787.5,119.51L789.75,110.45L792,119.25L794.25,110.65L796.5,119.6L798.75,106.54L801,115.08L803.25,98.67L805.5,109.46L807.75,96.44L810,107.99L812.25,98.12L814.5,111.58L816.75,110.82L819,136.18L821.25,136.14L823.5,152.19L825.75,145.36L828,157.68L830.25,146.41L832.5,148.92L834.75,129.47L837,126.74L839.25,111.48L841.5,112.58L843.75,102.56L846,109.11L848.25,100.97L850.5,107.26L852.75,94.23L855,100.71L857.25,85.84L859.5,93.27L861.75,79.55L864,88.67L866.25,77.8L868.5,95.15L870.75,89.83L873,114.58L875.25,107.71L877.5,127.48L879.75,113.54L882,128.29L884.25,112.17L886.5,121.68L888.75,104.59L891,109.99L893.25,92.84L895.5,97.75L897.75,87.73L900,95.1L902.25,86.4L904.5,88.94L906.75,81.01L909,84.53L911.25,77.8L913.5,82.13L915.75,75.49L918,79.65L920.25,75.21L922.5,83.25L924.75,84.3L927,95.99L929.25,100.15L931.5,109.26L933.75,106.82L936,110.35L938.25,101.46L940.5,97.78L942.75,88.57L945,84.47L947.25,78.38L949.5,77.62L951.75,76.19L954,77.49L956.25,76.05L958.5,77.24L960.75,73.45L963,74.04L967.5,69.96L969.75,65.01L972,62.15L974.25,61.61L976.5,64.2L978.75,68.09L981,73.11L983.25,80.23L985.5,87.43L987.75,87.87L990,94.29L992.25,86.4L994.5,86.59L996.75,76.73L999,75.79L1001.25,66.46L1003.5,67.23L1005.75,63.42L1008,69.34L1010.25,65.96L1012.5,71.79L1014.75,66.67L1017,66.28L1019.25,58.43L1021.5,60.2L1023.75,55.27L1026,59.53L1028.25,52.46L1030.5,60.59L1032.75,61.02L1035,72.44L1037.25,73.81L1039.5,83.23L1041.75,83.09L1044,88.46L1046.25,81.82L1048.5,83.48L1050.75,75.65L1053,78.73L1055.25,74.78L1057.5,78.24L1059.75,76.37L1062,80.71L1064.25,75.69L1066.5,78.33L1068.75,74.24L1071,75.24L1073.25,71.23L1075.5,70.69L1077.75,67.14L1080,66.98" style="vector-effect: none; fill: none; stroke: rgb(224, 83, 18); stroke-opacity: 1; stroke-width: 1.4px; opacity: 1;"/></g><g class="points"/><g class="text"/></g></g></g></g><g class="zerolinelayer-above"/><path class="xlines-above crisp" d="M75,442.988H1156" style="fill: none; stroke-width: 1px; stroke: rgb(232, 228, 222); stroke-opacity: 1;"/><path class="ylines-above crisp" d="M75.5,276.50399999999996V442.488" style="fill: none; stroke-width: 1px; stroke: rgb(232, 228, 222); stroke-opacity: 1;"/><g class="overlines-above"/><g class="xaxislayer-above"/><g class="yaxislayer-above"><g class="y2tick"><text text-anchor="end" x="71.8" y="5.6" transform="translate(0,430.47399999999993)" style="font-family: Inter; font-size: 16px; fill: rgb(26, 26, 26); fill-opacity: 1; white-space: pre;">200</text></g><g class="y2tick"><text text-anchor="end" x="71.8" y="5.6" style="font-family: Inter; font-size: 16px; fill: rgb(26, 26, 26); fill-opacity: 1; white-space: pre;" transform="translate(0,383.484)">250</text></g><g class="y2tick"><text text-anchor="end" x="71.8" y="5.6" style="font-family: Inter; font-size: 16px; fill: rgb(26, 26, 26); fill-opacity: 1; white-space: pre;" transform="translate(0,336.49399999999997)">300</text></g><g class="y2tick"><text text-anchor="end" x="71.8" y="5.6" style="font-family: Inter; font-size: 16px; fill: rgb(26, 26, 26); fill-opacity: 1; white-space: pre;" transform="translate(0,289.50399999999996)">350</text></g></g><g class="overaxes-above"/></g><g class="subplot x3y3"><g class="layer-subplot"><g class="shapelayer"/><g class="imagelayer"/></g><g class="minor-gridlayer"><g class="x3"/><g class="y3"/></g><g class="gridlayer"><g class="x3"/><g class="y3"><path class="y3grid crisp" transform="translate(0,628.748)" d="M76,0h1080" style="stroke: rgb(232, 228, 222); stroke-opacity: 1; stroke-width: 1px;"/><path class="y3grid crisp" transform="translate(0,589.638)" d="M76,0h1080" style="stroke: rgb(232, 228, 222); stroke-opacity: 1; stroke-width: 1px;"/><path class="y3grid crisp" transform="translate(0,550.528)" d="M76,0h1080" style="stroke: rgb(232, 228, 222); stroke-opacity: 1; stroke-width: 1px;"/><path class="y3grid crisp" transform="translate(0,511.42800000000005)" d="M76,0h1080" style="stroke: rgb(232, 228, 222); stroke-opacity: 1; stroke-width: 1px;"/></g></g><g class="zerolinelayer"/><g class="layer-between"><g class="shapelayer"/><g class="imagelayer"/></g><path class="xlines-below"/><path class="ylines-below"/><g class="overlines-below"/><g class="xaxislayer-below"/><g class="yaxislayer-below"/><g class="overaxes-below"/><g class="overplot"><g class="x3y3" transform="translate(76,482.00800000000004)" clip-path="url(#clipa594ddx3y3plot)"><g class="scatterlayer mlayer"><g class="trace scatter trace1840c8" style="stroke-miterlimit: 2; opacity: 1;"><g class="fills"/><g class="errorbars"/><g class="lines"><path class="js-line" d="M0,95.11L4.5,87.29L6.75,90.42L9,91.2L11.25,93.55L15.75,90.42L18,93.55L20.25,92.77L22.5,99.03L24.75,97.46L27,101.37L29.25,103.72L31.5,110.76L36,133.44L38.25,142.04L40.5,145.17L42.75,149.86L45,149.86L47.25,152.21L49.5,148.3L51.75,138.13L56.25,103.72L58.5,100.59L60.75,102.15L63,96.68L65.25,101.37L67.5,102.94L69.75,96.68L72,100.59L74.25,104.5L76.5,109.98L78.75,111.54L81,110.76L85.5,142.82L87.75,146.74L90,146.74L92.25,148.3L94.5,148.3L96.75,140.48L103.5,119.36L105.75,118.58L110.25,81.04L112.5,75.56L114.75,71.65L117,71.65L119.25,78.69L121.5,80.25L123.75,82.6L126,87.29L128.25,90.42L130.5,89.64L132.75,97.46L135,100.59L137.25,102.94L139.5,99.03L141.75,99.03L144,102.94L146.25,111.54L148.5,110.76L150.75,108.41L153,107.63L157.5,108.41L159.75,110.76L164.25,81.04L166.5,74.78L168.75,81.04L171,84.95L173.25,84.95L175.5,88.08L182.25,92.77L184.5,96.68L186.75,99.03L189,109.98L191.25,135L193.5,149.86L195.75,153.77L198,154.56L204.75,157.68L207,154.56L209.25,150.65L211.5,138.91L213.75,125.62L216,107.63L218.25,88.86L220.5,87.29L227.25,110.76L229.5,110.76L231.75,115.45L234,117.01L236.25,117.01L238.5,112.32L243,114.67L245.25,128.75L247.5,140.48L249.75,135L254.25,138.91L256.5,135.79L258.75,135L261,132.66L263.25,130.31L265.5,120.92L267.75,111.54L270,88.08L272.25,91.2L274.5,77.91L276.75,76.34L279,81.04L281.25,85.73L283.5,81.04L285.75,84.17L288,81.04L290.25,81.82L292.5,81.04L294.75,85.73L297,87.29L301.5,109.19L303.75,105.28L308.25,113.89L310.5,110.76L315,106.85L317.25,106.85L321.75,102.94L324,89.64L326.25,77.13L328.5,72.43L330.75,74.78L333,81.04L335.25,88.86L337.5,84.95L339.75,86.51L342,91.99L344.25,99.03L346.5,100.59L348.75,99.81L351,106.85L353.25,124.84L355.5,131.09L357.75,132.66L360,139.7L362.25,142.04L364.5,142.82L366.75,138.13L369,135.79L371.25,133.44L373.5,128.75L375.75,120.14L378,106.85L380.25,92.77L382.5,84.17L389.25,100.59L391.5,102.94L393.75,102.94L396,101.37L398.25,101.37L400.5,99.03L402.75,99.81L405,110.76L407.25,119.36L409.5,124.05L411.75,126.4L414,127.18L420.75,142.82L423,134.22L425.25,122.49L427.5,102.94L429.75,84.95L432,76.34L434.25,66.96L436.5,70.87L438.75,70.09L441,74.78L445.5,91.2L447.75,96.68L450,99.81L452.25,99.81L456.75,104.5L459,112.32L461.25,127.18L463.5,132.66L468,135L470.25,134.22L474.75,120.92L477,117.8L479.25,110.76L481.5,97.46L483.75,86.51L486,68.52L488.25,51.32L490.5,45.84L492.75,45.06L495,54.44L497.25,66.18L499.5,71.65L501.75,77.13L504,80.25L506.25,81.82L508.5,79.47L510.75,70.87L513,75.56L515.25,92.77L517.5,99.03L522,81.82L524.25,70.09L526.5,66.18L528.75,66.96L531,59.14L533.25,46.62L535.5,39.58L537.75,26.29L542.25,8.3L544.5,13.77L546.75,17.68L549,25.51L551.25,42.71L553.5,51.32L558,65.39L560.25,68.52L564.75,56.01L567,62.27L569.25,77.91L571.5,85.73L573.75,88.86L576,84.95L578.25,75.56L580.5,71.65L587.25,58.36L589.5,51.32L591.75,45.06L594,83.38L596.25,58.36L598.5,53.66L600.75,12.21L603,20.81L605.25,29.42L607.5,34.11L609.75,41.15L612,43.49L614.25,45.84L616.5,46.62L618.75,39.58L621,44.28L623.25,56.79L625.5,59.92L627.75,58.36L630,61.48L632.25,59.92L634.5,51.32L636.75,47.41L639,40.37L641.25,40.37L643.5,43.49L650.25,31.76L652.5,29.42L657,39.58L659.25,50.53L663.75,62.27L666,67.74L668.25,70.09L670.5,69.3L672.75,68.52L675,70.09L679.5,95.11L681.75,101.37L684,105.28L686.25,110.76L693,106.85L695.25,106.85L699.75,98.24L702,87.29L704.25,89.64L706.5,84.17L708.75,87.29L711,86.51L713.25,89.64L715.5,98.24L717.75,102.94L720,103.72L722.25,103.72L724.5,105.28L726.75,103.72L729,103.72L731.25,105.28L733.5,108.41L735.75,105.28L738,106.06L744.75,106.06L747,101.37L751.5,94.33L753.75,96.68L758.25,102.15L760.5,95.11L762.75,94.33L765,99.81L767.25,105.28L769.5,106.85L778.5,103.72L780.75,104.5L783,106.06L785.25,104.5L787.5,97.46L789.75,93.55L792,95.9L794.25,106.06L798.75,109.98L801,106.85L803.25,102.94L805.5,97.46L807.75,95.9L810,96.68L812.25,96.68L814.5,91.99L816.75,86.51L819,83.38L823.5,95.11L825.75,100.59L830.25,104.5L832.5,106.06L839.25,109.19L841.5,105.28L843.75,105.28L846,108.41L848.25,114.67L850.5,117.8L855,111.54L857.25,106.85L859.5,101.37L861.75,98.24L866.25,77.13L868.5,74L870.75,74L873,80.25L877.5,92.77L879.75,94.33L882,95.9L884.25,94.33L886.5,91.99L888.75,91.99L897.75,107.63L900,109.19L902.25,109.98L904.5,114.67L906.75,117.01L909,117.8L911.25,112.32L913.5,103.72L918,76.34L920.25,60.7L922.5,57.57L924.75,62.27L927,67.74L929.25,77.91L931.5,81.04L933.75,81.04L938.25,75.56L940.5,67.74L942.75,58.36L945,56.01L947.25,58.36L949.5,59.14L956.25,67.74L958.5,63.05L960.75,59.14L963,62.27L965.25,57.57L967.5,46.62L969.75,39.58L972,35.67L974.25,30.98L976.5,30.98L978.75,30.2L981,30.98L985.5,38.8L987.75,45.84L990,52.88L992.25,52.1L996.75,38.02L999,37.24L1001.25,39.58L1003.5,45.06L1005.75,50.53L1008,51.32L1010.25,53.66L1012.5,51.32L1014.75,52.88L1017,51.32L1019.25,49.75L1021.5,42.71L1023.75,42.71L1026,36.46L1028.25,30.98L1030.5,30.2L1035,37.24L1037.25,42.71L1039.5,47.41L1041.75,54.44L1044,63.83L1046.25,68.52L1048.5,65.39L1050.75,64.61L1055.25,89.64L1057.5,98.24L1059.75,97.46L1062,94.33L1064.25,87.29L1066.5,85.73L1068.75,87.29L1071,94.33L1075.5,93.55L1077.75,90.42L1080,73.22" style="vector-effect: none; fill: none; stroke: rgb(154, 160, 166); stroke-opacity: 1; stroke-width: 1.4px; opacity: 1;"/></g><g class="points"/><g class="text"/></g><g class="trace scatter trace1c8638" style="stroke-miterlimit: 2; opacity: 1;"><g class="fills"/><g class="errorbars"/><g class="lines"><path class="js-line" d="M0,85.19L2.25,82.3L4.5,81.48L6.75,83.65L9,87.72L18,103.89L20.25,107.47L24.75,111.01L27,111.32L29.25,109.92L31.5,112.03L33.75,114.07L36,118.17L40.5,120.08L42.75,119.42L45,118.43L47.25,114.4L49.5,109.91L51.75,102.55L54,99.26L56.25,98.2L60.75,97.92L63,98.87L65.25,101.39L67.5,105.11L69.75,107.7L72,113.05L74.25,113L76.5,115.4L78.75,114.01L81,114.33L83.25,112.07L85.5,112.53L87.75,111.19L90,114.11L94.5,115.35L96.75,114.09L99,113.82L101.25,108.14L105.75,95.67L108,92.38L110.25,88.99L112.5,90.59L114.75,94.58L117,95.55L119.25,100.45L121.5,102.63L123.75,106.51L126,107.07L132.75,108.24L135,107.83L137.25,104.65L139.5,105.25L141.75,106.11L144,109.15L146.25,108.72L148.5,109.37L150.75,106.43L153,105.51L157.5,102.46L159.75,97.74L164.25,92.43L166.5,92.67L171,99.01L173.25,103.08L177.75,106.35L180,106.68L182.25,105.81L184.5,105.83L186.75,104.92L189,105.5L191.25,103.38L193.5,105.55L195.75,107.04L198,110.04L200.25,111.14L202.5,110.07L204.75,110.89L207,109.33L211.5,103.88L213.75,95.41L216,91.51L218.25,89.34L220.5,88.77L222.75,90.7L227.25,96.18L229.5,100.39L234,104.52L236.25,104.36L243,101.93L245.25,102.24L247.5,104.57L249.75,108.99L252,110.22L254.25,109.13L256.5,109.29L258.75,105.63L261,99.3L263.25,95.99L267.75,94.76L270,90.19L272.25,85.13L274.5,83.73L276.75,82.69L279,78.03L281.25,82.86L283.5,83.3L285.75,88.99L288,92.51L290.25,97.23L292.5,97.56L294.75,100.93L297,98.91L299.25,101.95L301.5,97.38L303.75,102.13L306,101.29L308.25,105.61L310.5,102.57L312.75,103.95L315,99.15L317.25,98.38L319.5,93.47L321.75,91.05L324,87.01L326.25,81.76L328.5,81.26L330.75,80.62L333,82.76L335.25,83.3L337.5,86.3L339.75,88.93L342,93.32L344.25,99.92L346.5,102.63L348.75,105.16L351,105.88L357.75,106.49L360,107.73L362.25,106.66L364.5,109.69L366.75,107.38L369,110.16L371.25,107.13L373.5,110.81L375.75,107.66L378,110.5L380.25,104.07L382.5,105.78L384.75,101.36L387,103.66L389.25,100.68L391.5,102.87L393.75,102.99L396,105.2L402.75,118.5L405,121.24L407.25,121.37L409.5,122.93L411.75,122.09L414,123.78L418.5,117.81L420.75,110.89L423,111.41L425.25,108.47L429.75,103.22L432,99.54L438.75,93.31L441,90.06L443.25,98.06L445.5,98.16L450,105.26L452.25,111.58L456.75,115.97L459,114.26L463.5,108.89L465.75,112.26L468,110.96L470.25,108.18L474.75,101.68L477,95.82L479.25,93.93L481.5,86.79L483.75,85.3L486,79.83L488.25,79.97L490.5,75.3L492.75,82.96L495,82.91L497.25,94.01L499.5,95.04L501.75,100.15L504,99.08L506.25,99.56L508.5,95.82L510.75,90.97L513,84.26L515.25,84.26L517.5,81.68L519.75,81.79L522,74.55L524.25,76.82L526.5,69.86L528.75,73.07L531,67.33L533.25,70.82L535.5,61.87L537.75,66.08L540,58.1L542.25,63.07L544.5,59.42L546.75,65.44L549,63.94L551.25,68.31L553.5,65.36L555.75,68.56L558,66.35L560.25,66.66L562.5,62.24L564.75,62.82L567,57.78L569.25,57.81L571.5,55.4L573.75,58.96L576,53.93L578.25,55.02L580.5,50.32L582.75,51.31L585,47.6L587.25,49.47L589.5,45.13L591.75,47.49L594,42.39L600.75,56.28L603,59.41L605.25,64.21L607.5,65.46L609.75,67.21L612,63.29L616.5,56.81L618.75,56.56L621,53.28L623.25,53.51L625.5,51.9L627.75,55.65L630,58.77L632.25,67.45L634.5,66.13L636.75,66.5L639,60.77L641.25,57.53L643.5,51.48L645.75,48.91L648,44.59L650.25,44.94L652.5,45.09L654.75,49.99L659.25,60.39L661.5,67.54L663.75,72.41L666,74.33L668.25,76.63L670.5,74.63L672.75,75.67L675,70.57L677.25,70.33L679.5,67.06L681.75,70.32L684,65.53L686.25,66.09L688.5,60.95L690.75,63.78L693,59.84L695.25,64.95L697.5,56.14L699.75,63.7L702,53.3L704.25,56.63L706.5,47.34L708.75,54.07L711,47.01L713.25,58.74L715.5,54.58L717.75,70.54L720,69.48L722.25,77.36L724.5,74.62L726.75,80.39L729,76.64L731.25,79.21L733.5,75.53L735.75,81.04L738,80.36L740.25,84.6L742.5,81.17L744.75,86.69L747,81.12L749.25,84.95L751.5,77.33L753.75,84.45L756,75.25L758.25,86.11L760.5,81.31L762.75,89.41L765,86.68L767.25,99.77L769.5,98.09L771.75,108.24L774,106.97L776.25,113.41L778.5,109.13L780.75,112.38L783,106.09L785.25,109.2L787.5,103.57L789.75,110.39L792,106L794.25,112.35L796.5,105.54L798.75,108.71L801,98.89L803.25,99.46L805.5,93.1L807.75,97.13L810,94.66L812.25,97.99L814.5,92.96L816.75,98.6L819,98.12L825.75,113.51L828,115.33L830.25,118.34L832.5,118.2L834.75,118.54L837,112.56L839.25,113.21L841.5,109.29L843.75,110.12L846,109.04L848.25,111.54L850.5,105.33L852.75,105.11L855,98.45L857.25,96.68L859.5,92.91L866.25,84.59L868.5,85.13L870.75,83.66L873,90.82L875.25,94.29L877.5,101.63L882,106.69L884.25,106.68L888.75,102.13L891,97.29L893.25,91.95L895.5,90.36L900,91.61L902.25,89.07L904.5,88.75L906.75,85.39L909,84.86L911.25,83.05L913.5,80.55L915.75,75.14L918,73.8L920.25,69.37L922.5,73.07L924.75,74.73L927,82.94L929.25,84.67L931.5,90.49L933.75,88.56L936,90.57L938.25,85.84L940.5,84.11L942.75,79.42L945,77.73L947.25,71.87L949.5,73.92L951.75,72.12L954,78.39L956.25,75.94L958.5,79.75L960.75,75.76L963,77.22L965.25,69.42L967.5,69.51L969.75,59.23L972,58L974.25,52.43L976.5,56.81L978.75,58.21L985.5,76.83L987.75,78.47L990,81.32L992.25,78.28L994.5,78.34L996.75,73.34L999,74.01L1001.25,67.71L1003.5,69.76L1005.75,69.55L1008,75.64L1010.25,75.5L1012.5,76.77L1014.75,73.27L1017,72.68L1019.25,66.28L1021.5,61.96L1023.75,55.47L1028.25,54.45L1030.5,56.93L1032.75,57.94L1035,64.35L1039.5,74.86L1041.75,74.57L1044,77.14L1046.25,74.57L1048.5,74.95L1050.75,71.38L1053,71.06L1055.25,66.88L1057.5,69.01L1059.75,68.21L1062,70.69L1064.25,67.7L1066.5,66.85L1068.75,66.9L1073.25,63.61L1075.5,61.99L1077.75,56.85L1080,54.7" style="vector-effect: none; fill: none; stroke: rgb(224, 83, 18); stroke-opacity: 1; stroke-width: 1.4px; opacity: 1;"/></g><g class="points"/><g class="text"/></g></g></g></g><g class="zerolinelayer-above"/><path class="xlines-above crisp" d="M75,648.492H1156" style="fill: none; stroke-width: 1px; stroke: rgb(232, 228, 222); stroke-opacity: 1;"/><path class="ylines-above crisp" d="M75.5,482.00800000000004V647.992" style="fill: none; stroke-width: 1px; stroke: rgb(232, 228, 222); stroke-opacity: 1;"/><g class="overlines-above"/><g class="xaxislayer-above"/><g class="yaxislayer-above"><g class="y3tick"><text text-anchor="end" x="71.8" y="5.6" transform="translate(0,628.748)" style="font-family: Inter; font-size: 16px; fill: rgb(26, 26, 26); fill-opacity: 1; white-space: pre;">300</text></g><g class="y3tick"><text text-anchor="end" x="71.8" y="5.6" style="font-family: Inter; font-size: 16px; fill: rgb(26, 26, 26); fill-opacity: 1; white-space: pre;" transform="translate(0,589.638)">350</text></g><g class="y3tick"><text text-anchor="end" x="71.8" y="5.6" style="font-family: Inter; font-size: 16px; fill: rgb(26, 26, 26); fill-opacity: 1; white-space: pre;" transform="translate(0,550.528)">400</text></g><g class="y3tick"><text text-anchor="end" x="71.8" y="5.6" style="font-family: Inter; font-size: 16px; fill: rgb(26, 26, 26); fill-opacity: 1; white-space: pre;" transform="translate(0,511.42800000000005)">450</text></g></g><g class="overaxes-above"/></g><g class="subplot x4y4"><g class="layer-subplot"><g class="shapelayer"/><g class="imagelayer"/></g><g class="minor-gridlayer"><g class="x4"/><g class="y4"/></g><g class="gridlayer"><g class="x4"/><g class="y4"><path class="y4grid crisp" transform="translate(0,833.4019999999999)" d="M76,0h1080" style="stroke: rgb(232, 228, 222); stroke-opacity: 1; stroke-width: 1px;"/><path class="y4grid crisp" transform="translate(0,794.092)" d="M76,0h1080" style="stroke: rgb(232, 228, 222); stroke-opacity: 1; stroke-width: 1px;"/><path class="y4grid crisp" transform="translate(0,754.7819999999999)" d="M76,0h1080" style="stroke: rgb(232, 228, 222); stroke-opacity: 1; stroke-width: 1px;"/><path class="y4grid crisp" transform="translate(0,715.472)" d="M76,0h1080" style="stroke: rgb(232, 228, 222); stroke-opacity: 1; stroke-width: 1px;"/></g></g><g class="zerolinelayer"/><g class="layer-between"><g class="shapelayer"/><g class="imagelayer"/></g><path class="xlines-below"/><path class="ylines-below"/><g class="overlines-below"/><g class="xaxislayer-below"/><g class="yaxislayer-below"/><g class="overaxes-below"/><g class="overplot"><g class="x4y4" transform="translate(76,687.512)" clip-path="url(#clipa594ddx4y4plot)"><g class="scatterlayer mlayer"><g class="trace scatter traceefe2ff" style="stroke-miterlimit: 2; opacity: 1;"><g class="fills"/><g class="errorbars"/><g class="lines"><path class="js-line" d="M0,75.13L2.25,90.85L4.5,98.72L9,114.44L11.25,94.79L13.5,79.06L15.75,82.99L18,90.85L20.25,59.4L22.5,59.4L24.75,67.27L29.25,102.65L31.5,106.58L33.75,106.58L36,102.65L38.25,86.92L40.5,79.06L42.75,98.72L45,110.51L47.25,110.51L49.5,106.58L54,106.58L56.25,110.51L58.5,114.44L60.75,122.3L63,122.3L65.25,102.65L67.5,79.06L69.75,90.85L72,110.51L74.25,114.44L76.5,118.37L78.75,126.24L81,118.37L83.25,114.44L85.5,106.58L87.75,94.79L90,106.58L92.25,102.65L94.5,75.13L96.75,79.06L99,102.65L101.25,102.65L103.5,98.72L105.75,98.72L110.25,82.99L112.5,86.92L117,94.79L119.25,71.2L121.5,47.61L123.75,43.68L126,59.4L128.25,39.75L130.5,39.75L132.75,43.68L135,51.54L137.25,43.68L139.5,47.61L141.75,47.61L144,51.54L146.25,20.09L148.5,8.3L150.75,12.23L155.25,35.82L157.5,39.75L159.75,55.47L162,59.4L164.25,63.34L166.5,63.34L168.75,63.34L171,71.2L173.25,71.2L175.5,59.4L177.75,51.54L180,51.54L182.25,43.68L184.5,63.34L186.75,67.27L189,63.34L191.25,47.61L193.5,63.34L195.75,67.27L198,67.27L200.25,67.27L202.5,63.34L204.75,47.61L207,51.54L216,102.65L218.25,102.65L220.5,110.51L222.75,110.51L225,114.44L227.25,102.65L229.5,98.72L231.75,86.92L234,86.92L236.25,94.79L238.5,90.85L240.75,94.79L243,86.92L245.25,86.92L247.5,86.92L249.75,79.06L252,79.06L254.25,90.85L256.5,98.72L258.75,102.65L261,118.37L263.25,126.24L265.5,134.1L267.75,126.24L272.25,134.1L274.5,134.1L276.75,126.24L279,122.3L283.5,130.17L285.75,130.17L288,126.24L290.25,114.44L292.5,118.37L294.75,110.51L297,102.65L299.25,114.44L301.5,106.58L303.75,110.51L306,110.51L308.25,102.65L310.5,102.65L312.75,82.99L315,94.79L317.25,98.72L319.5,94.79L321.75,98.72L326.25,90.85L328.5,90.85L330.75,82.99L333,86.92L335.25,90.85L337.5,71.2L339.75,67.27L342,75.13L344.25,43.68L346.5,59.4L348.75,63.34L351,35.82L353.25,43.68L355.5,47.61L357.75,71.2L360,67.27L362.25,59.4L364.5,67.27L366.75,67.27L369,75.13L375.75,63.34L378,63.34L382.5,63.34L384.75,67.27L387,75.13L389.25,79.06L391.5,79.06L393.75,75.13L396,47.61L398.25,39.75L400.5,35.82L402.75,39.75L405,51.54L407.25,55.47L409.5,59.4L411.75,59.4L414,75.13L416.25,67.27L418.5,71.2L420.75,71.2L423,86.92L425.25,90.85L427.5,90.85L429.75,102.65L434.25,82.99L436.5,86.92L438.75,98.72L441,98.72L445.5,63.34L447.75,67.27L450,59.4L452.25,71.2L454.5,75.13L456.75,86.92L459,94.79L461.25,86.92L465.75,94.79L468,102.65L470.25,102.65L472.5,90.85L477,71.2L479.25,82.99L481.5,94.79L483.75,82.99L486,86.92L488.25,94.79L490.5,90.85L492.75,82.99L495,79.06L497.25,47.61L499.5,35.82L501.75,47.61L506.25,67.27L508.5,71.2L510.75,67.27L513,75.13L515.25,75.13L517.5,63.34L519.75,59.4L522,47.61L524.25,43.68L526.5,31.89L528.75,31.89L531,67.27L535.5,86.92L537.75,86.92L542.25,86.92L544.5,82.99L546.75,86.92L549,94.79L551.25,102.65L553.5,90.85L555.75,67.27L558,79.06L560.25,94.79L562.5,98.72L564.75,102.65L567,102.65L569.25,102.65L571.5,98.72L573.75,114.44L576,122.3L578.25,118.37L580.5,110.51L582.75,110.51L585,118.37L589.5,118.37L591.75,114.44L594,106.58L596.25,94.79L598.5,98.72L600.75,98.72L603,90.85L605.25,98.72L607.5,86.92L609.75,86.92L612,86.92L614.25,110.51L618.75,134.1L621,134.1L623.25,130.17L625.5,138.03L627.75,138.03L630,141.96L632.25,122.3L634.5,126.24L636.75,134.1L639,138.03L641.25,134.1L643.5,134.1L645.75,122.3L648,134.1L650.25,138.03L652.5,130.17L654.75,126.24L657,114.44L659.25,106.58L661.5,102.65L663.75,110.51L666,126.24L668.25,130.17L670.5,118.37L672.75,122.3L675,122.3L677.25,134.1L679.5,138.03L681.75,134.1L684,126.24L688.5,90.85L690.75,67.27L695.25,106.58L697.5,114.44L699.75,114.44L702,122.3L706.5,130.17L708.75,126.24L711,122.3L713.25,90.85L715.5,82.99L717.75,90.85L720,114.44L722.25,114.44L724.5,102.65L726.75,106.58L729,110.51L731.25,118.37L733.5,114.44L735.75,118.37L738,118.37L740.25,110.51L742.5,94.79L744.75,106.58L747,126.24L749.25,134.1L762.75,134.1L765,130.17L767.25,110.51L769.5,102.65L771.75,102.65L774,110.51L776.25,106.58L778.5,110.51L780.75,122.3L783,126.24L785.25,122.3L787.5,122.3L789.75,118.37L792,134.1L794.25,138.03L796.5,126.24L798.75,145.89L801,145.89L803.25,126.24L805.5,126.24L807.75,134.1L810,138.03L812.25,134.1L814.5,141.96L816.75,141.96L819,138.03L821.25,130.17L823.5,130.17L825.75,122.3L828,102.65L832.5,86.92L834.75,98.72L837,102.65L839.25,102.65L841.5,102.65L843.75,110.51L848.25,138.03L850.5,134.1L855,141.96L857.25,141.96L868.5,122.3L870.75,126.24L873,134.1L875.25,134.1L879.75,141.96L882,122.3L886.5,130.17L888.75,122.3L893.25,122.3L895.5,130.17L897.75,134.1L900,145.89L902.25,145.89L904.5,130.17L906.75,138.03L909,149.82L911.25,157.68L913.5,157.68L915.75,157.68L918,149.82L920.25,134.1L922.5,126.24L924.75,118.37L927,114.44L929.25,79.06L931.5,82.99L933.75,98.72L936,102.65L940.5,102.65L942.75,106.58L949.5,106.58L951.75,118.37L954,122.3L956.25,122.3L958.5,106.58L960.75,110.51L963,126.24L965.25,134.1L972,122.3L974.25,126.24L976.5,130.17L978.75,122.3L981,122.3L983.25,114.44L985.5,122.3L987.75,134.1L990,130.17L992.25,118.37L994.5,126.24L996.75,126.24L999,130.17L1001.25,130.17L1003.5,122.3L1005.75,134.1L1008,134.1L1010.25,138.03L1012.5,145.89L1014.75,141.96L1017,145.89L1019.25,141.96L1023.75,134.1L1026,134.1L1030.5,134.1L1032.75,138.03L1035,138.03L1037.25,149.82L1039.5,153.75L1041.75,149.82L1044,157.68L1046.25,153.75L1048.5,145.89L1050.75,149.82L1053,141.96L1055.25,141.96L1057.5,141.96L1059.75,153.75L1062,149.82L1064.25,138.03L1066.5,122.3L1068.75,134.1L1071,141.96L1073.25,138.03L1075.5,138.03L1077.75,141.96L1080,149.82" style="vector-effect: none; fill: none; stroke: rgb(154, 160, 166); stroke-opacity: 1; stroke-width: 1.4px; opacity: 1;"/></g><g class="points"/><g class="text"/></g><g class="trace scatter trace97fc43" style="stroke-miterlimit: 2; opacity: 1;"><g class="fills"/><g class="errorbars"/><g class="lines"><path class="js-line" d="M0,23.19L2.25,25.34L4.5,24.06L6.75,25.81L9,25.95L15.75,30.04L18,32.71L20.25,32.64L22.5,38.23L24.75,38.38L27,45.22L29.25,43.84L31.5,47.66L33.75,46.53L36,51.06L38.25,50.48L40.5,55.14L42.75,55.98L45,59.36L47.25,59.35L49.5,63.86L51.75,64.77L54,68.76L56.25,69.88L58.5,73.81L60.75,75.34L63,79.36L65.25,81.95L67.5,86.58L69.75,88.59L72,94.36L74.25,95.29L76.5,97.26L83.25,96.23L85.5,93.98L87.75,94.72L90,93.48L94.5,90.32L96.75,86.39L99,85.38L101.25,82.97L105.75,83.6L108,86.95L110.25,86.54L112.5,87.61L114.75,86.99L117,87.54L121.5,85.78L123.75,84.28L132.75,89.37L135,87.52L137.25,84.81L139.5,88.06L141.75,98.81L144,96.15L146.25,96.51L148.5,93.32L153,96.19L155.25,96.29L157.5,94.1L159.75,89.38L162,89.85L164.25,87.06L166.5,87.56L168.75,82.31L171,84.13L173.25,77.67L175.5,79.48L177.75,71.04L180,73.79L182.25,64.02L184.5,66.69L186.75,54.99L189,59.06L191.25,48.12L193.5,54.78L195.75,43.64L198,49.71L200.25,38.54L202.5,44.28L204.75,33.21L207,38.72L209.25,27.28L211.5,32.01L213.75,18.73L216,27.78L218.25,18.81L220.5,26.64L222.75,20.05L225,26.09L227.25,19.23L229.5,25.3L231.75,17.9L234,23.08L236.25,15.94L238.5,19.91L240.75,13.78L243,15.49L245.25,11.99L249.75,17.66L252,21.62L254.25,22.34L256.5,20.58L258.75,20.39L261,19.42L263.25,19.52L265.5,20.42L270,26.8L272.25,24.96L281.25,25.69L283.5,28.62L285.75,28.46L288,35.48L290.25,38.44L292.5,49.62L294.75,57.15L297,72.12L299.25,65.38L301.5,78.73L303.75,66.94L306,80.15L308.25,68.12L310.5,82.66L312.75,71.35L315,83.68L317.25,72.59L319.5,89.97L321.75,77.52L324,100.45L326.25,87.71L328.5,106.54L330.75,93.18L333,114.17L335.25,98.9L337.5,117.13L339.75,102.73L342,117.62L344.25,103.11L346.5,116.76L348.75,108.39L351,117.72L353.25,111.1L355.5,118.22L357.75,110.38L360,118.63L362.25,114.25L364.5,119.02L366.75,115.12L369,120.25L371.25,118.93L373.5,119.77L375.75,118.58L378,120.18L380.25,118.23L382.5,118.06L384.75,114.93L387,116.4L389.25,114.06L391.5,115.57L393.75,113.57L396,116.2L398.25,113.24L400.5,115.55L402.75,111.77L405,113.27L407.25,109.04L409.5,112.86L411.75,109.68L414,114.5L416.25,111.24L418.5,113.53L420.75,108.34L423,109.93L425.25,105.81L427.5,108.47L429.75,105.51L432,108.25L434.25,105.05L436.5,108.06L438.75,104.81L441,108.03L443.25,103.68L445.5,106.2L447.75,106.57L450,122.88L452.25,118.89L454.5,116.9L456.75,109.22L459,117.67L461.25,110.53L463.5,108.76L465.75,109.29L468,114.19L470.25,106.07L472.5,108.99L474.75,105.2L477,108.23L479.25,104.82L481.5,107.31L483.75,104.95L486,106.43L488.25,104.86L490.5,105.77L495,105.97L497.25,107.19L499.5,107.63L501.75,110.68L504,109.42L506.25,111.91L508.5,110.45L510.75,113.21L513,112.18L515.25,115.12L517.5,114.11L519.75,117.66L522,116.2L524.25,120.42L526.5,118.94L528.75,122.09L531,119.78L533.25,122.37L535.5,120.59L537.75,124.33L540,123.17L542.25,125.13L544.5,123.3L546.75,124.73L549,123.32L551.25,124.42L553.5,123.1L555.75,126.08L558,125.43L560.25,128.32L562.5,127.61L564.75,132.25L567,131.05L569.25,133.26L571.5,131.32L573.75,132.54L576,131.56L578.25,132.54L580.5,131.37L582.75,131.96L585,130.94L587.25,130.79L591.75,130.47L594,129.13L596.25,129.13L598.5,126.59L603,124.11L605.25,125.55L607.5,125.58L609.75,127.19L614.25,128.61L616.5,127.66L621,126.92L623.25,127.36L630,129.07L632.25,129.44L639,130.35L641.25,130.67L645.75,129.4L648,129.43L650.25,128.21L652.5,128.04L654.75,128.55L657,128.25L659.25,128.05L661.5,126.59L663.75,126.2L666,127.92L670.5,127.37L672.75,125.05L675,127.36L677.25,126.32L679.5,126.79L681.75,126.03L684,127.26L686.25,126.37L688.5,126.41L690.75,125.19L699.75,125.41L702,124.25L713.25,121.19L715.5,122.4L717.75,122.32L720,126.11L726.75,129.04L729,131.23L733.5,132.97L735.75,132.32L740.25,130.65L742.5,130.98L744.75,132.23L747,130.84L749.25,129.86L751.5,129.87L753.75,129.97L756,129.28L762.75,127.12L765,126.84L771.75,125.21L774,125.29L776.25,124.54L778.5,124.87L787.5,124.95L789.75,123.99L792,124.64L794.25,124.38L796.5,125.15L798.75,125.08L803.25,125.6L805.5,125.71L812.25,124.11L814.5,125.04L816.75,124.8L819,125.37L825.75,126.43L828,126.63L832.5,126.73L834.75,126.69L837,127.86L839.25,126.88L841.5,127.63L843.75,126.46L846,125.9L848.25,123.62L850.5,124.43L852.75,119.99L855,120.05L857.25,116.36L859.5,117.19L861.75,113.5L864,115.41L866.25,111.83L868.5,113.91L870.75,109.53L873,112.41L875.25,108.6L877.5,111.25L879.75,107.38L882,110.07L884.25,105.97L886.5,108.77L888.75,104.12L891,105.87L893.25,102.29L895.5,103.59L897.75,101.04L900,102.62L902.25,100.02L904.5,101.55L906.75,98.26L909,99.5L911.25,96.4L913.5,97.84L915.75,95.39L918,96.59L920.25,92.19L922.5,93.85L924.75,90.56L927,93.33L929.25,90.11L931.5,93.55L933.75,90.34L936,94.12L938.25,91.13L940.5,95.24L942.75,91.74L945,96.25L947.25,92.61L949.5,97.75L951.75,93.63L954,99.18L956.25,96.51L958.5,103.62L960.75,101.43L963,109.08L965.25,105.46L967.5,111.26L969.75,107.19L972,112.1L974.25,107.22L976.5,110.34L978.75,106.62L981,114.12L983.25,113.21L985.5,116.32L987.75,114.53L990,118.05L992.25,116.37L994.5,119.8L996.75,118.08L999,121.02L1001.25,119.6L1003.5,121.43L1005.75,119.73L1008,121.96L1010.25,121L1012.5,123.05L1014.75,122.41L1017,123.52L1019.25,121.81L1021.5,121.95L1023.75,120.35L1028.25,118.01L1030.5,119.3L1035,121.06L1037.25,120.89L1039.5,122.85L1041.75,121.82L1046.25,124.05L1048.5,124.77L1053,127.53L1055.25,127.07L1057.5,128.09L1059.75,126.89L1062,125.62L1064.25,122.49L1068.75,122.75L1071,122.34L1073.25,120.03L1075.5,125.51L1077.75,127.67L1080,126.03" style="vector-effect: none; fill: none; stroke: rgb(224, 83, 18); stroke-opacity: 1; stroke-width: 1.4px; opacity: 1;"/></g><g class="points"/><g class="text"/></g></g></g></g><g class="zerolinelayer-above"/><path class="xlines-above crisp" d="M75,853.996H1156" style="fill: none; stroke-width: 1px; stroke: rgb(232, 228, 222); stroke-opacity: 1;"/><path class="ylines-above crisp" d="M75.5,687.512V853.496" style="fill: none; stroke-width: 1px; stroke: rgb(232, 228, 222); stroke-opacity: 1;"/><g class="overlines-above"/><g class="xaxislayer-above"/><g class="yaxislayer-above"><g class="y4tick"><text text-anchor="end" x="71.8" y="5.6" transform="translate(0,833.4019999999999)" style="font-family: Inter; font-size: 16px; fill: rgb(26, 26, 26); fill-opacity: 1; white-space: pre;">40</text></g><g class="y4tick"><text text-anchor="end" x="71.8" y="5.6" style="font-family: Inter; font-size: 16px; fill: rgb(26, 26, 26); fill-opacity: 1; white-space: pre;" transform="translate(0,794.092)">50</text></g><g class="y4tick"><text text-anchor="end" x="71.8" y="5.6" style="font-family: Inter; font-size: 16px; fill: rgb(26, 26, 26); fill-opacity: 1; white-space: pre;" transform="translate(0,754.7819999999999)">60</text></g><g class="y4tick"><text text-anchor="end" x="71.8" y="5.6" style="font-family: Inter; font-size: 16px; fill: rgb(26, 26, 26); fill-opacity: 1; white-space: pre;" transform="translate(0,715.472)">70</text></g></g><g class="overaxes-above"/></g><g class="subplot x5y5"><g class="layer-subplot"><g class="shapelayer"/><g class="imagelayer"/></g><g class="minor-gridlayer"><g class="x5"/><g class="y5"/></g><g class="gridlayer"><g class="x5"/><g class="y5"><path class="y5grid crisp" transform="translate(0,1029.1860000000001)" d="M76,0h1080" style="stroke: rgb(232, 228, 222); stroke-opacity: 1; stroke-width: 1px;"/><path class="y5grid crisp" transform="translate(0,976.3460000000001)" d="M76,0h1080" style="stroke: rgb(232, 228, 222); stroke-opacity: 1; stroke-width: 1px;"/><path class="y5grid crisp" transform="translate(0,923.5060000000001)" d="M76,0h1080" style="stroke: rgb(232, 228, 222); stroke-opacity: 1; stroke-width: 1px;"/></g></g><g class="zerolinelayer"/><g class="layer-between"><g class="shapelayer"/><g class="imagelayer"/></g><path class="xlines-below"/><path class="ylines-below"/><g class="overlines-below"/><g class="xaxislayer-below"/><g class="yaxislayer-below"/><g class="overaxes-below"/><g class="overplot"><g class="x5y5" transform="translate(76,893.0160000000001)" clip-path="url(#clipa594ddx5y5plot)"><g class="scatterlayer mlayer"><g class="trace scatter traceeccc42" style="stroke-miterlimit: 2; opacity: 1;"><g class="fills"/><g class="errorbars"/><g class="lines"><path class="js-line" d="M0,83.33L4.5,78.05L6.75,73.29L9,69.07L11.25,85.45L13.5,104.47L15.75,135.64L18,146.74L20.25,150.44L22.5,151.5L24.75,150.97L27,153.61L29.25,153.08L31.5,154.14L33.75,153.08L36,144.63L38.25,131.95L40.5,121.38L42.75,102.88L47.25,110.28L49.5,106.58L51.75,104.47L54,117.68L58.5,125.08L60.75,125.08L63,128.78L65.25,144.63L67.5,146.21L69.75,153.08L72,153.08L74.25,149.91L78.75,149.38L81,151.5L83.25,151.5L85.5,149.91L90,148.33L92.25,138.82L94.5,130.89L96.75,136.17L99,138.82L101.25,134.59L105.75,122.96L108,120.32L110.25,115.57L112.5,114.51L114.75,112.92L117,106.58L119.25,118.21L121.5,117.68L123.75,113.45L126,119.79L128.25,137.23L130.5,143.57L132.75,148.86L135,147.27L137.25,143.04L139.5,144.1L141.75,145.16L144,141.99L146.25,137.76L148.5,127.19L150.75,111.34L153,102.88L157.5,96.54L159.75,101.83L162,118.21L164.25,120.32L166.5,118.21L168.75,118.21L171,116.09L173.25,101.83L175.5,105L177.75,118.21L180,136.7L182.25,145.68L184.5,145.68L186.75,148.33L189,149.91L191.25,147.8L193.5,146.21L195.75,147.8L202.5,114.51L204.75,112.92L207,103.94L209.25,100.24L211.5,91.79L213.75,86.5L216,101.83L218.25,106.58L220.5,99.71L222.75,90.2L225,89.67L227.25,93.9L231.75,106.58L234,120.85L236.25,127.72L238.5,126.13L240.75,127.72L243,130.89L247.5,133L249.75,129.3L254.25,111.87L256.5,109.22L258.75,108.17L261,102.36L263.25,99.18L265.5,98.13L272.25,123.49L274.5,121.38L276.75,115.57L279,116.62L281.25,133L283.5,127.72L288,145.16L290.25,146.74L292.5,149.38L294.75,147.27L297,147.8L299.25,149.38L301.5,144.1L303.75,133L306,116.09L308.25,76.46L310.5,62.72L312.75,61.14L315,63.25L317.25,57.97L319.5,46.87L321.75,45.82L324,45.82L326.25,48.99L328.5,46.34L330.75,53.21L333,51.63L335.25,58.5L337.5,63.25L339.75,93.37L342,127.19L344.25,137.23L348.75,144.1L351,146.74L357.75,145.16L360,132.47L364.5,92.32L366.75,85.45L371.25,70.65L373.5,61.67L375.75,64.31L378,64.84L380.25,68.54L382.5,81.75L384.75,92.84L387,96.54L389.25,102.88L391.5,120.85L396,143.04L398.25,144.63L400.5,144.63L402.75,139.34L405,134.59L407.25,133L409.5,137.23L411.75,139.34L414,140.93L416.25,131.42L420.75,108.17L423,108.17L425.25,109.22L427.5,102.36L429.75,104.47L432,126.66L434.25,125.08L436.5,128.78L441,130.36L443.25,135.64L447.75,146.21L450,146.74L454.5,148.33L456.75,145.16L459,148.33L461.25,147.27L463.5,146.74L465.75,142.51L470.25,117.15L472.5,97.6L474.75,93.37L477,97.6L479.25,91.26L481.5,79.63L483.75,65.9L486,65.37L488.25,77.52L490.5,76.99L495,64.31L497.25,68.54L501.75,85.45L504,101.3L506.25,129.3L508.5,140.4L513,149.38L515.25,142.51L517.5,137.76L519.75,129.3L522,108.7L524.25,75.41L526.5,59.55L528.75,52.16L531,48.46L533.25,42.65L535.5,47.93L537.75,61.67L542.25,72.24L544.5,82.28L546.75,88.09L549,88.62L551.25,99.71L553.5,102.36L555.75,111.34L558,125.61L560.25,139.87L562.5,146.74L564.75,147.8L567,147.8L569.25,147.8L571.5,146.74L573.75,135.64L576,130.89L578.25,114.51L580.5,113.45L582.75,108.7L585,101.83L587.25,95.49L589.5,106.05L591.75,120.32L594,126.13L596.25,127.19L598.5,132.47L603,133L605.25,134.06L607.5,136.7L609.75,143.57L612,146.21L614.25,152.03L616.5,155.72L618.75,156.78L625.5,156.25L627.75,154.67L630,150.97L632.25,134.59L636.75,116.09L639,116.62L641.25,113.98L643.5,100.24L648,80.16L650.25,75.94L652.5,81.75L654.75,71.71L657,76.99L659.25,92.32L661.5,104.47L663.75,109.75L668.25,152.03L670.5,152.03L672.75,153.61L675,152.55L677.25,152.03L679.5,150.44L681.75,144.1L684,121.91L686.25,88.09L688.5,68.01L690.75,56.91L693,64.31L695.25,64.31L697.5,59.03L699.75,57.97L702,63.25L704.25,64.31L706.5,56.91L711,67.48L713.25,80.16L715.5,87.03L717.75,115.57L720,143.04L722.25,150.97L726.75,156.25L729,153.08L731.25,152.03L733.5,153.08L735.75,150.97L738,144.63L742.5,83.33L744.75,68.01L747,63.78L749.25,56.91L753.75,34.72L756,29.96L758.25,40L760.5,59.03L771.75,145.68L774,145.68L776.25,146.74L778.5,146.74L780.75,145.16L783,146.21L785.25,145.16L787.5,146.21L789.75,148.86L792,143.57L796.5,96.01L798.75,84.39L801,79.63L803.25,85.45L805.5,74.88L807.75,77.52L810,82.28L812.25,89.15L814.5,88.09L816.75,91.79L819,99.18L821.25,121.91L823.5,137.76L825.75,147.8L828,146.74L830.25,144.63L832.5,143.57L834.75,145.16L837,146.74L839.25,146.74L846,144.1L848.25,129.83L850.5,111.34L852.75,103.41L855,100.24L857.25,98.66L861.75,90.2L864,81.75L866.25,87.03L868.5,96.01L870.75,93.37L873,98.13L875.25,98.66L877.5,118.21L879.75,138.29L882,137.23L884.25,138.29L886.5,141.46L891,145.68L893.25,145.68L897.75,141.99L900,140.4L902.25,126.13L904.5,97.07L909,75.41L911.25,77.52L913.5,75.41L915.75,64.84L918,57.44L920.25,56.38L922.5,57.44L924.75,55.86L927,62.2L929.25,76.46L931.5,85.97L933.75,112.92L936,138.82L938.25,146.21L942.75,148.86L945,149.91L947.25,148.33L949.5,148.33L951.75,149.38L954,135.64L956.25,102.36L958.5,53.21L963,18.34L965.25,9.88L967.5,8.3L969.75,43.17L976.5,59.03L978.75,64.84L981,65.9L983.25,78.05L985.5,93.37L987.75,123.49L990,144.1L992.25,145.16L994.5,147.8L996.75,147.8L1001.25,148.86L1003.5,148.33L1005.75,146.21L1008,141.99L1010.25,119.79L1012.5,80.16L1014.75,70.65L1017,73.82L1019.25,66.95L1021.5,50.04L1023.75,41.06L1026,40.53L1028.25,46.34L1030.5,58.5L1032.75,57.44L1035,60.61L1037.25,74.35L1039.5,80.69L1041.75,101.3L1044,140.4L1046.25,146.74L1048.5,145.68L1050.75,145.68L1053,147.27L1055.25,145.68L1057.5,145.68L1059.75,145.16L1062,127.72L1064.25,80.69L1066.5,61.67L1068.75,42.65L1071,39.48L1073.25,42.12L1075.5,50.04L1077.75,54.8L1080,55.33" style="vector-effect: none; fill: none; stroke: rgb(154, 160, 166); stroke-opacity: 1; stroke-width: 1.4px; opacity: 1;"/></g><g class="points"/><g class="text"/></g><g class="trace scatter trace6cc916" style="stroke-miterlimit: 2; opacity: 1;"><g class="fills"/><g class="errorbars"/><g class="lines"><path class="js-line" d="M0,95.9L2.25,97.11L4.5,100.43L6.75,94.34L9,92.77L11.25,85.88L13.5,92.89L15.75,95.01L18,110.82L20.25,115.05L22.5,126.42L27,132.47L29.25,130.92L31.5,130.15L33.75,121.88L36,115.23L38.25,104.57L40.5,102.48L42.75,95.31L45,98.76L47.25,100.01L49.5,105.85L51.75,105.99L54,110.9L56.25,109.5L58.5,113.46L60.75,110.54L63,112.84L65.25,108.77L69.75,115.32L72,126.76L76.5,143.83L78.75,147.55L81,150.47L83.25,149.07L87.75,141.14L90,134.37L92.25,125.2L94.5,109.85L99,92.38L101.25,88.9L103.5,90.88L105.75,94.49L108,96.33L110.25,96.45L112.5,96.29L114.75,94.79L119.25,92.09L121.5,91.3L123.75,91.9L126,100.9L128.25,105.26L130.5,117.14L132.75,121.49L135,127.68L137.25,125.47L139.5,127.18L144,116.61L146.25,106.93L150.75,80.15L153,70.91L155.25,66.24L157.5,65.21L162,65.5L164.25,61.47L166.5,64.74L168.75,64.2L171,64.64L173.25,61.86L175.5,59.25L177.75,62.77L186.75,103.69L189,110.21L191.25,114.35L193.5,109.48L198,100.55L200.25,86.72L202.5,75.69L204.75,59.42L207,54.29L209.25,42.72L211.5,43.7L213.75,46.34L216,52.57L218.25,48.93L220.5,55.75L222.75,52.65L225,58.4L227.25,54.07L231.75,61.35L234,72.21L236.25,82.08L238.5,96.01L243,118.69L245.25,120.47L247.5,126.84L249.75,124.58L252,128.77L254.25,121.9L256.5,122.49L258.75,112.15L261,110.37L263.25,106.97L265.5,108.99L267.75,112.19L272.25,118.42L274.5,118.61L276.75,120.92L279,119.4L281.25,119.09L283.5,116.81L288,116.5L290.25,120.28L292.5,122.46L294.75,129.77L297,132.65L299.25,136.84L301.5,135.61L303.75,132.21L306,128.53L308.25,122.6L310.5,118.26L312.75,103.88L315,98.98L317.25,98.7L319.5,97.56L321.75,98.4L324,97.16L326.25,103.15L328.5,106.43L330.75,108.03L335.25,111.63L337.5,110.65L339.75,111.27L342,109.91L344.25,112.82L346.5,112.45L351,116.53L353.25,117.5L355.5,117.33L357.75,115.69L366.75,103.98L369,99L371.25,98.63L373.5,97.32L375.75,105.03L378,104.94L380.25,111.28L382.5,112.59L384.75,121.77L387,125.65L389.25,128L391.5,128.46L393.75,129.53L396,129.51L400.5,132.42L402.75,136.82L405,135.82L407.25,138.34L409.5,135.39L411.75,133.94L418.5,123.37L420.75,118.29L423,116.69L425.25,116.32L427.5,117.17L429.75,119.33L436.5,125.79L438.75,127.57L445.5,129.22L447.75,130.72L450,133.4L452.25,137.75L456.75,142.19L459,142.35L461.25,141.43L463.5,138.76L465.75,135.45L468,130.24L472.5,119.92L474.75,114.24L477,110.3L479.25,108.75L481.5,111.84L483.75,112.84L486,115.43L488.25,116.52L490.5,118.5L492.75,117.83L499.5,113.76L501.75,113.39L506.25,120.62L508.5,122.04L510.75,125.14L513,124.1L515.25,123.45L517.5,120.16L519.75,116.74L522,111.16L528.75,95.06L531,93.08L533.25,91.29L535.5,95.82L537.75,97.42L540,102.1L542.25,103.45L544.5,107.21L546.75,106.85L549,107.87L551.25,105.46L553.5,107.96L555.75,107.8L558,114.39L560.25,119.85L562.5,127.33L567,134.89L569.25,135.09L571.5,133.68L573.75,130.79L580.5,114.58L582.75,108.32L587.25,109.83L589.5,117.57L591.75,120.02L594,126.03L598.5,129.76L600.75,129.32L603,127.11L605.25,123.03L607.5,123.16L609.75,126.43L612,134.71L614.25,139.69L616.5,147.21L618.75,149.29L621,151.44L623.25,147.85L625.5,143.94L627.75,137L636.75,97.97L639,92.93L641.25,93.51L643.5,95.54L645.75,97.59L648,96.88L652.5,98.41L654.75,101.23L657,99.7L659.25,100.79L661.5,99.12L663.75,106.25L666,110.25L668.25,121.9L670.5,128.25L672.75,137.79L677.25,138.11L679.5,133.73L684,118.39L686.25,106.27L690.75,88.55L693,83.89L697.5,85.62L699.75,92.67L702,92.42L704.25,101.41L706.5,98.71L708.75,103.66L711,100.54L713.25,100.33L715.5,96.71L717.75,101.05L720,104.82L722.25,114.06L726.75,123.98L729,126.85L731.25,123.64L733.5,123.45L735.75,115.7L738,111.87L740.25,105.46L742.5,102.36L744.75,101.44L747,98.78L749.25,100.24L751.5,98.18L753.75,108.38L756,109.94L758.25,121.22L760.5,121.46L762.75,126.46L765,121.05L767.25,123.02L769.5,116.3L776.25,139.24L778.5,141.62L780.75,147.18L783,148.54L787.5,144.98L789.75,136.03L792,130.21L794.25,122.21L796.5,115.55L798.75,111.89L801,106.34L803.25,112.07L805.5,108.26L807.75,116.43L810,113.76L812.25,116.02L814.5,114.54L816.75,118.81L819,114.21L821.25,115.8L823.5,111.94L825.75,119.22L828,125.53L830.25,136.32L832.5,142.03L834.75,150.18L837,157.39L839.25,157.68L841.5,154.44L843.75,143.59L846,134.09L848.25,115.43L850.5,103.61L852.75,87.09L855,86.51L857.25,84.83L859.5,92.75L861.75,93.96L864,96.58L866.25,94.26L868.5,96.6L870.75,96.84L873,97.5L875.25,92.45L879.75,96.03L882,107.47L888.75,143.71L891,152.65L895.5,153.28L897.75,141.48L900,131.4L902.25,103.9L904.5,89.58L906.75,70.08L909,67.99L911.25,62.47L913.5,66.01L915.75,67.14L918,70.21L920.25,69.8L922.5,74.63L924.75,76.93L927,78.33L929.25,69.16L931.5,68.16L933.75,71.99L940.5,118.41L942.75,127.86L945,137.18L947.25,137.35L949.5,137.73L951.75,125.23L954,112.48L956.25,85.75L960.75,55.65L963,50.67L965.25,47.37L967.5,54.88L969.75,56.43L972,55.2L974.25,58.46L976.5,59.23L978.75,65.36L981,63.93L985.5,66.76L987.75,85.78L990,88.92L992.25,108.35L994.5,113.61L996.75,123.73L999,125.21L1001.25,129.13L1003.5,125.95L1005.75,120.3L1008,114.4L1010.25,97.59L1017,54.93L1019.25,54.31L1021.5,56.54L1023.75,63.19L1026,63.65L1028.25,68.75L1030.5,69.96L1032.75,73.56L1035,72.2L1037.25,72.24L1039.5,66.15L1041.75,75.07L1044,87.23L1046.25,104.72L1048.5,113.24L1050.75,125.72L1055.25,134.82L1057.5,134.1L1062,124L1064.25,114.19L1066.5,96.37L1068.75,88.14L1071,78.42L1073.25,75.69L1075.5,72.75L1077.75,79.46L1080,79.8" style="vector-effect: none; fill: none; stroke: rgb(224, 83, 18); stroke-opacity: 1; stroke-width: 1.4px; opacity: 1;"/></g><g class="points"/><g class="text"/></g></g></g></g><g class="zerolinelayer-above"/><path class="xlines-above crisp" d="M75,1059.5H1156" style="fill: none; stroke-width: 1px; stroke: rgb(232, 228, 222); stroke-opacity: 1;"/><path class="ylines-above crisp" d="M75.5,893.0160000000001V1059" style="fill: none; stroke-width: 1px; stroke: rgb(232, 228, 222); stroke-opacity: 1;"/><g class="overlines-above"/><g class="xaxislayer-above"/><g class="yaxislayer-above"><g class="y5tick"><text text-anchor="end" x="71.8" y="5.6" transform="translate(0,1029.1860000000001)" style="font-family: Inter; font-size: 16px; fill: rgb(26, 26, 26); fill-opacity: 1; white-space: pre;">100</text></g><g class="y5tick"><text text-anchor="end" x="71.8" y="5.6" style="font-family: Inter; font-size: 16px; fill: rgb(26, 26, 26); fill-opacity: 1; white-space: pre;" transform="translate(0,976.3460000000001)">200</text></g><g class="y5tick"><text text-anchor="end" x="71.8" y="5.6" style="font-family: Inter; font-size: 16px; fill: rgb(26, 26, 26); fill-opacity: 1; white-space: pre;" transform="translate(0,923.5060000000001)">300</text></g></g><g class="overaxes-above"/></g></g><g class="polarlayer"/><g class="smithlayer"/><g class="ternarylayer"/><g class="geolayer"/><g class="funnelarealayer"/><g class="pielayer"/><g class="iciclelayer"/><g class="treemaplayer"/><g class="sunburstlayer"/><g class="glimages"/><defs id="topdefs-a594dd"><g class="clips"/><clipPath id="legenda594dd"><rect width="327" height="39" x="0" y="0"/></clipPath></defs><g class="layer-above"><g class="imagelayer"/><g class="shapelayer"/></g><g class="infolayer"><g class="legend" pointer-events="all" transform="translate(452.5,12.23999999999998)"><rect class="bg" shape-rendering="crispEdges" style="stroke: rgb(68, 68, 68); stroke-opacity: 1; fill: rgb(0, 0, 0); fill-opacity: 0; stroke-width: 0px;" width="327" height="39" x="0" y="0"/><g class="scrollbox" transform="" clip-path="url(#legenda594dd)"><g class="groups"><g class="traces" transform="translate(0,19.5)" style="opacity: 1;"><text class="legendtext" text-anchor="start" x="40" y="7.8" style="font-family: Inter; font-size: 20px; fill: rgb(26, 26, 26); fill-opacity: 1; white-space: pre;">actual</text><g class="layers" style="opacity: 1;"><g class="legendfill"/><g class="legendlines"><path class="js-line" d="M5,0h30" style="fill: none; stroke: rgb(154, 160, 166); stroke-opacity: 1; stroke-width: 1.4px;"/></g><g class="legendsymbols"><g class="legendpoints"/></g></g><rect class="legendtoggle" x="0" y="-14.5" width="99.609375" height="29" style="fill: rgb(0, 0, 0); fill-opacity: 0;"/></g><g class="traces" transform="translate(102.109375,19.5)" style="opacity: 1;"><text class="legendtext" text-anchor="start" x="40" y="7.8" style="font-family: Inter; font-size: 20px; fill: rgb(26, 26, 26); fill-opacity: 1; white-space: pre;">single-tier forecast</text><g class="layers" style="opacity: 1;"><g class="legendfill"/><g class="legendlines"><path class="js-line" d="M5,0h30" style="fill: none; stroke: rgb(224, 83, 18); stroke-opacity: 1; stroke-width: 1.4px;"/></g><g class="legendsymbols"><g class="legendpoints"/></g></g><rect class="legendtoggle" x="0" y="-14.5" width="221.515625" height="29" style="fill: rgb(0, 0, 0); fill-opacity: 0;"/></g></g></g><rect class="scrollbar" rx="20" ry="3" width="0" height="0" style="fill: rgb(128, 139, 164); fill-opacity: 1;" x="0" y="0"/></g><g class="g-gtitle"/><g class="g-xtitle"/><g class="g-x2title"/><g class="g-x3title"/><g class="g-x4title"/><g class="g-x5title"/><g class="g-ytitle"/><g class="g-y2title"/><g class="g-y3title"/><g class="g-y4title"/><g class="g-y5title"/><g class="annotation" data-index="0" style="opacity: 1;"><g class="annotation-text-g" transform="rotate(0,616,59)"><g class="cursor-pointer" transform="translate(576,47)"><rect class="bg" x="0.5" y="0.5" width="80" height="23" style="stroke-width: 1px; stroke: rgb(0, 0, 0); stroke-opacity: 0; fill: rgb(0, 0, 0); fill-opacity: 0;"/><text class="annotation-text" text-anchor="middle" x="40.4375" y="18" style="font-family: Inter; font-size: 16px; fill: rgb(26, 26, 26); fill-opacity: 1; white-space: pre;">Singapore</text></g></g></g><g class="annotation" data-index="1" style="opacity: 1;"><g class="annotation-text-g" transform="rotate(0,616,264.50399999999996)"><g class="cursor-pointer" transform="translate(578,253)"><rect class="bg" x="0.5" y="0.5" width="76" height="23" style="stroke-width: 1px; stroke: rgb(0, 0, 0); stroke-opacity: 0; fill: rgb(0, 0, 0); fill-opacity: 0;"/><text class="annotation-text" text-anchor="middle" x="38.484375" y="18" style="font-family: Inter; font-size: 16px; fill: rgb(26, 26, 26); fill-opacity: 1; white-space: pre;">New York</text></g></g></g><g class="annotation" data-index="2" style="opacity: 1;"><g class="annotation-text-g" transform="rotate(0,616,470.00800000000004)"><g class="cursor-pointer" transform="translate(598,458)"><rect class="bg" x="0.5" y="0.5" width="35" height="23" style="stroke-width: 1px; stroke: rgb(0, 0, 0); stroke-opacity: 0; fill: rgb(0, 0, 0); fill-opacity: 0;"/><text class="annotation-text" text-anchor="middle" x="18.1328125" y="18" style="font-family: Inter; font-size: 16px; fill: rgb(26, 26, 26); fill-opacity: 1; white-space: pre;">PJM</text></g></g></g><g class="annotation" data-index="3" style="opacity: 1;"><g class="annotation-text-g" transform="rotate(0,616,675.512)"><g class="cursor-pointer" transform="translate(587,664)"><rect class="bg" x="0.5" y="0.5" width="58" height="23" style="stroke-width: 1px; stroke: rgb(0, 0, 0); stroke-opacity: 0; fill: rgb(0, 0, 0); fill-opacity: 0;"/><text class="annotation-text" text-anchor="middle" x="29.4453125" y="18" style="font-family: Inter; font-size: 16px; fill: rgb(26, 26, 26); fill-opacity: 1; white-space: pre;">Finland</text></g></g></g><g class="annotation" data-index="4" style="opacity: 1;"><g class="annotation-text-g" transform="rotate(0,616,881.0160000000001)"><g class="cursor-pointer" transform="translate(584,869)"><rect class="bg" x="0.5" y="0.5" width="64" height="23" style="stroke-width: 1px; stroke: rgb(0, 0, 0); stroke-opacity: 0; fill: rgb(0, 0, 0); fill-opacity: 0;"/><text class="annotation-text" text-anchor="middle" x="32.421875" y="18" style="font-family: Inter; font-size: 16px; fill: rgb(26, 26, 26); fill-opacity: 1; white-space: pre;">Belgium</text></g></g></g></g></svg>