<svg class="main-svg" xmlns="http://www.w3.org/2000/svg" xmlns:xlink="http://www.w3.org/1999/xlink" width="886" height="620" style="" viewBox="0 0 886 620"><rect x="0" y="0" width="886" height="620" style="fill: rgb(250, 248, 245); fill-opacity: 1;"/><defs id="defs-ca387d"><g class="clips"><clipPath id="clipca387dxyplot" class="plotclip"><rect width="790" height="485"/></clipPath><clipPath class="axesclip" id="clipca387dx"><rect x="72" y="0" width="790" height="620"/></clipPath><clipPath class="axesclip" id="clipca387dy"><rect x="0" y="70" width="886" height="485"/></clipPath><clipPath class="axesclip" id="clipca387dxy"><rect x="72" y="70" width="790" height="485"/></clipPath></g><g class="gradients"/><g class="patterns"/></defs><g class="bglayer"/><g class="layer-below"><g class="imagelayer"/><g class="shapelayer"/></g><g class="cartesianlayer"><g class="subplot xy"><g class="layer-subplot"><g class="shapelayer"/><g class="imagelayer"/></g><g class="minor-gridlayer"><g class="x"/><g class="y"/></g><g class="gridlayer"><g class="x"/><g class="y"><path class="ygrid crisp" transform="translate(0,461.65)" d="M72,0h790" style="stroke: rgb(232, 228, 222); stroke-opacity: 1; stroke-width: 1px;"/><path class="ygrid crisp" transform="translate(0,368.31)" d="M72,0h790" style="stroke: rgb(232, 228, 222); stroke-opacity: 1; stroke-width: 1px;"/><path class="ygrid crisp" transform="translate(0,274.96000000000004)" d="M72,0h790" style="stroke: rgb(232, 228, 222); stroke-opacity: 1; stroke-width: 1px;"/><path class="ygrid crisp" transform="translate(0,181.62)" d="M72,0h790" style="stroke: rgb(232, 228, 222); stroke-opacity: 1; stroke-width: 1px;"/><path class="ygrid crisp" transform="translate(0,88.27)" d="M72,0h790" style="stroke: rgb(232, 228, 222); stroke-opacity: 1; stroke-width: 1px;"/></g></g><g class="zerolinelayer"/><g class="layer-between"><g class="shapelayer"/><g class="imagelayer"/></g><path class="xlines-below"/><path class="ylines-below"/><g class="overlines-below"/><g class="xaxislayer-below"/><g class="yaxislayer-below"/><g class="overaxes-below"/><g class="overplot"><g class="xy" transform="translate(72,70)" clip-path="url(#clipca387dxyplot)"><g class="scatterlayer mlayer"><g class="trace scatter trace3d83a8" style="stroke-miterlimit: 2; opacity: 1;"><g class="fills"/><g class="errorbars"/><g class="lines"><path class="js-line" d="M52.94,25.05L73.36,25.25L84.09,26.51L115.58,26.61L126.3,26.07L147.41,26.79L158.14,25.03L168.52,26.89L179.25,26.03L189.97,26.37L199.66,25.75L210.39,25.91L220.77,27.24L241.88,25.57L252.61,26.53L263.33,25.28L273.71,26.31L284.44,26.92L294.82,26.2L305.55,25.87L316.28,26.81L336.69,28.5L347.07,30.44L368.18,30.21L378.91,31.19L389.64,30.47L400.02,31.37L410.74,29.85L421.13,29.48L431.85,30.67L442.58,33.34L452.61,33.31L463.34,31.37L484.45,30.93L494.83,34.43L505.56,31.89L516.29,31.58L526.67,32.2L537.39,30.92L558.5,30.2L569.23,33.82L578.92,32.62L589.65,33.44L610.75,33.12L621.13,33.89L642.59,34.12L652.97,35.92L663.7,34.12L674.08,33.28L684.81,35.75L695.53,35.57L737.06,36.23" style="vector-effect: none; fill: none; stroke: rgb(230, 159, 0); stroke-opacity: 1; stroke-width: 2.4px; opacity: 1;"/></g><g class="points"/><g class="text"/></g><g class="trace scatter tracebe9811" style="stroke-miterlimit: 2; opacity: 1;"><g class="fills"/><g class="errorbars"/><g class="lines"><path class="js-line" d="M52.94,24.25L737.06,35.75" style="vector-effect: none; fill: none; stroke: rgb(230, 159, 0); stroke-opacity: 0.45; stroke-dasharray: 3px, 3px; stroke-width: 1.6px; opacity: 1;"/></g><g class="points"/><g class="text"/></g><g class="trace scatter tracee04039" style="stroke-miterlimit: 2; opacity: 1;"><g class="fills"/><g class="errorbars"/><g class="lines"><path class="js-line" d="M52.94,264.16L63.67,243.62L73.36,278.68L84.09,290.5L94.47,262.61L105.19,214.77L115.58,205.7L126.3,191.6L137.03,234.71L147.41,237.74L158.14,243.24L168.52,244.87L179.25,202.97L189.97,211.71L199.66,229.84L210.39,246.34L220.77,226.11L231.5,230.94L241.88,195.38L252.61,186.18L263.33,216.61L273.71,229.39L284.44,227.92L305.55,237.27L316.28,234.39L325.97,239.91L336.69,241.86L347.07,252.38L357.8,203.25L368.18,166.72L378.91,194.68L389.64,199.14L400.02,235.92L410.74,222.6L421.13,231.76L431.85,229.84L442.58,233.82L452.61,221.13L463.34,243.34L484.45,194.31L494.83,172.12L505.56,174.65L516.29,181.2L526.67,206.81L537.39,217.84L547.77,200.57L558.5,203.86L569.23,187.61L578.92,224.83L589.65,238.61L600.03,242.84L621.13,143.08L631.86,159.9L642.59,178.57L652.97,200.85L663.7,205.77L674.08,181.83L684.81,179.57L695.53,167.03L705.22,195.16L715.95,212.67L726.33,232.81L737.06,199.64" style="vector-effect: none; fill: none; stroke: rgb(213, 94, 0); stroke-opacity: 1; stroke-width: 2.4px; opacity: 1;"/></g><g class="points"/><g class="text"/></g><g class="trace scatter tracec4d584" style="stroke-miterlimit: 2; opacity: 1;"><g class="fills"/><g class="errorbars"/><g class="lines"><path class="js-line" d="M52.94,243.09L737.06,188.68" style="vector-effect: none; fill: none; stroke: rgb(213, 94, 0); stroke-opacity: 0.45; stroke-dasharray: 3px, 3px; stroke-width: 1.6px; opacity: 1;"/></g><g class="points"/><g class="text"/></g><g class="trace scatter trace358553" style="stroke-miterlimit: 2; opacity: 1;"><g class="fills"/><g class="errorbars"/><g class="lines"><path class="js-line" d="M52.94,71.68L63.67,29.57L73.36,97.81L84.09,104.13L94.47,103.6L105.19,55.6L115.58,27.39L126.3,31.94L137.03,90.55L147.41,117.5L158.14,125.19L168.52,115.35L179.25,35.67L189.97,64.85L199.66,104.78L210.39,96.6L220.77,108.52L231.5,84.13L241.88,53.46L252.61,47.82L263.33,98.98L273.71,128.36L284.44,122.16L294.82,74.47L305.55,115.07L316.28,121.79L325.97,114.74L336.69,125.12L347.07,140.63L357.8,124.67L368.18,68.83L378.91,75.44L389.64,108.03L400.02,138.1L410.74,129.28L421.13,115.68L431.85,78.38L442.58,130.53L452.61,149.77L463.34,132.38L473.72,123.37L484.45,87.02L494.83,65.88L505.56,82.28L516.29,126.79L526.67,146.97L537.39,144.37L547.77,106.09L558.5,59.61L569.23,89.48L578.92,133.73L589.65,126.79L600.03,139.7L621.13,48.67L631.86,87.9L642.59,113.71L652.97,113.85L663.7,117.76L674.08,81.64L684.81,68.86L695.53,76.86L705.22,135.25L715.95,132.74L726.33,138.33L737.06,115.21" style="vector-effect: none; fill: none; stroke: rgb(0, 158, 115); stroke-opacity: 1; stroke-width: 2.4px; opacity: 1;"/></g><g class="points"/><g class="text"/></g><g class="trace scatter trace27aa4e" style="stroke-miterlimit: 2; opacity: 1;"><g class="fills"/><g class="errorbars"/><g class="lines"><path class="js-line" d="M52.94,81.98L737.06,118.48" style="vector-effect: none; fill: none; stroke: rgb(0, 158, 115); stroke-opacity: 0.45; stroke-dasharray: 3px, 3px; stroke-width: 1.6px; opacity: 1;"/></g><g class="points"/><g class="text"/></g><g class="trace scatter tracefddbf6" style="stroke-miterlimit: 2; opacity: 1;"><g class="fills"/><g class="errorbars"/><g class="lines"><path class="js-line" d="M52.94,275.72L63.67,271.45L73.36,316.83L84.09,342.45L94.47,356.4L105.19,386.87L115.58,407.9L137.03,329.82L147.41,351.94L158.14,332.15L168.52,271.52L179.25,318.79L189.97,324.13L199.66,334.44L210.39,343L220.77,367.99L231.5,413.36L241.88,425.19L252.61,414.17L273.71,392.02L284.44,347.48L294.82,314.88L305.55,367.45L316.28,365.26L325.97,372.87L347.07,432.92L357.8,444.03L368.18,446.65L378.91,423.86L389.64,443.86L400.02,433.77L410.74,398.14L421.13,386.96L431.85,371.12L442.58,393.72L452.61,386.71L463.34,397.5L473.72,425.11L484.45,439.12L494.83,441.99L505.56,435.8L516.29,429.11L526.67,426.85L537.39,409.21L547.77,404.15L558.5,395.44L569.23,397.89L578.92,398.52L589.65,412.99L600.03,430.56L610.75,440.35L621.13,443.23L631.86,440.9L642.59,438.94L652.97,431.83L663.7,421.1L674.08,424.44L684.81,371.53L695.53,365.63L705.22,428.34L715.95,428.09L726.33,434.49L737.06,445.82" style="vector-effect: none; fill: none; stroke: rgb(86, 180, 233); stroke-opacity: 1; stroke-width: 2.4px; opacity: 1;"/></g><g class="points"/><g class="text"/></g><g class="trace scatter trace29432c" style="stroke-miterlimit: 2; opacity: 1;"><g class="fills"/><g class="errorbars"/><g class="lines"><path class="js-line" d="M52.94,338.54L737.06,444.54" style="vector-effect: none; fill: none; stroke: rgb(86, 180, 233); stroke-opacity: 0.45; stroke-dasharray: 3px, 3px; stroke-width: 1.6px; opacity: 1;"/></g><g class="points"/><g class="text"/></g><g class="trace scatter trace0ecfbe" style="stroke-miterlimit: 2; opacity: 1;"><g class="fills"/><g class="errorbars"/><g class="lines"><path class="js-line" d="M52.94,265.53L63.67,321L73.36,311.02L84.09,295.87L94.47,347.72L105.19,343.18L115.58,358.17L126.3,364.72L137.03,334.05L147.41,344.75L158.14,269.14L168.52,297.82L179.25,284.33L189.97,330.3L199.66,282.95L210.39,331.91L220.77,335.03L231.5,303.56L241.88,284.51L252.61,291.67L263.33,304.59L273.71,302.16L284.44,322.97L294.82,269.14L305.55,309.66L316.28,262.02L325.97,297.26L336.69,305.03L347.07,342.08L357.8,329.28L368.18,348.75L378.91,331.13L389.64,327.47L400.02,344.01L410.74,346.71L421.13,338.2L431.85,315.79L442.58,345.08L452.61,319.58L463.34,359.46L473.72,374.73L484.45,371.7L494.83,377.81L505.56,377.8L516.29,360.79L526.67,343.38L537.39,269.32L547.77,315.49L558.5,301.81L569.23,279.69L578.92,292.72L589.65,313.71L600.03,362.11L610.75,359.87L621.13,313.23L631.86,329.95L642.59,362.64L652.97,309.39L663.7,306.98L674.08,285.27L684.81,242.8L695.53,303.31L705.22,338.67L715.95,326.89L726.33,334.35L737.06,341.94" style="vector-effect: none; fill: none; stroke: rgb(0, 114, 178); stroke-opacity: 1; stroke-width: 2.4px; opacity: 1;"/></g><g class="points"/><g class="text"/></g><g class="trace scatter trace62eafb" style="stroke-miterlimit: 2; opacity: 1;"><g class="fills"/><g class="errorbars"/><g class="lines"><path class="js-line" d="M52.94,315.19L737.06,327.65" style="vector-effect: none; fill: none; stroke: rgb(0, 114, 178); stroke-opacity: 0.45; stroke-dasharray: 3px, 3px; stroke-width: 1.6px; opacity: 1;"/></g><g class="points"/><g class="text"/></g></g></g></g><g class="zerolinelayer-above"/><path class="xlines-above crisp" d="M71,555.5H862" style="fill: none; stroke-width: 1px; stroke: rgb(232, 228, 222); stroke-opacity: 1;"/><path class="ylines-above crisp" d="M71.5,70V555" style="fill: none; stroke-width: 1px; stroke: rgb(232, 228, 222); stroke-opacity: 1;"/><g class="overlines-above"/><g class="xaxislayer-above"><g class="xtick"><text text-anchor="middle" x="0" y="575.2" transform="translate(124.94,0)" style="font-family: Inter; font-size: 16px; fill: rgb(26, 26, 26); fill-opacity: 1; white-space: pre;">2021</text></g><g class="xtick"><text text-anchor="middle" x="0" y="575.2" style="font-family: Inter; font-size: 16px; fill: rgb(26, 26, 26); fill-opacity: 1; white-space: pre;" transform="translate(251.25,0)">2022</text></g><g class="xtick"><text text-anchor="middle" x="0" y="575.2" style="font-family: Inter; font-size: 16px; fill: rgb(26, 26, 26); fill-opacity: 1; white-space: pre;" transform="translate(377.55,0)">2023</text></g><g class="xtick"><text text-anchor="middle" x="0" y="575.2" style="font-family: Inter; font-size: 16px; fill: rgb(26, 26, 26); fill-opacity: 1; white-space: pre;" transform="translate(503.85,0)">2024</text></g><g class="xtick"><text text-anchor="middle" x="0" y="575.2" style="font-family: Inter; font-size: 16px; fill: rgb(26, 26, 26); fill-opacity: 1; white-space: pre;" transform="translate(630.5,0)">2025</text></g><g class="xtick"><text text-anchor="middle" x="0" y="575.2" style="font-family: Inter; font-size: 16px; fill: rgb(26, 26, 26); fill-opacity: 1; white-space: pre;" transform="translate(756.81,0)">2026</text></g></g><g class="yaxislayer-above"><g class="ytick"><text text-anchor="end" x="67.8" y="5.6" transform="translate(0,555)" style="font-family: Inter; font-size: 16px; fill: rgb(26, 26, 26); fill-opacity: 1; white-space: pre;">0</text></g><g class="ytick"><text text-anchor="end" x="67.8" y="5.6" style="font-family: Inter; font-size: 16px; fill: rgb(26, 26, 26); fill-opacity: 1; white-space: pre;" transform="translate(0,461.65)">100</text></g><g class="ytick"><text text-anchor="end" x="67.8" y="5.6" style="font-family: Inter; font-size: 16px; fill: rgb(26, 26, 26); fill-opacity: 1; white-space: pre;" transform="translate(0,368.31)">200</text></g><g class="ytick"><text text-anchor="end" x="67.8" y="5.6" style="font-family: Inter; font-size: 16px; fill: rgb(26, 26, 26); fill-opacity: 1; white-space: pre;" transform="translate(0,274.96000000000004)">300</text></g><g class="ytick"><text text-anchor="end" x="67.8" y="5.6" style="font-family: Inter; font-size: 16px; fill: rgb(26, 26, 26); fill-opacity: 1; white-space: pre;" transform="translate(0,181.62)">400</text></g><g class="ytick"><text text-anchor="end" x="67.8" y="5.6" style="font-family: Inter; font-size: 16px; fill: rgb(26, 26, 26); fill-opacity: 1; white-space: pre;" transform="translate(0,88.27)">500</text></g></g><g class="overaxes-above"/></g></g><g class="polarlayer"/><g class="smithlayer"/><g class="ternarylayer"/><g class="geolayer"/><g class="funnelarealayer"/><g class="pielayer"/><g class="iciclelayer"/><g class="treemaplayer"/><g class="sunburstlayer"/><g class="glimages"/><defs id="topdefs-ca387d"><g class="clips"/><clipPath id="legendca387d"><rect width="378" height="39" x="0" y="0"/></clipPath></defs><g class="layer-above"><g class="imagelayer"/><g class="shapelayer"/></g><g class="infolayer"><g class="legend" pointer-events="all" transform="translate(278,11.59999999999998)"><rect class="bg" shape-rendering="crispEdges" style="stroke: rgb(68, 68, 68); stroke-opacity: 1; fill: rgb(0, 0, 0); fill-opacity: 0; stroke-width: 0px;" width="378" height="39" x="0" y="0"/><g class="scrollbox" transform="" clip-path="url(#legendca387d)"><g class="groups"><g class="traces" transform="translate(0,19.5)" style="opacity: 1;"><text class="legendtext" text-anchor="start" x="40" y="7.8" style="font-family: Inter; font-size: 20px; fill: rgb(26, 26, 26); fill-opacity: 1; white-space: pre;">SG</text><g class="layers" style="opacity: 1;"><g class="legendfill"/><g class="legendlines"><path class="js-line" d="M5,0h30" style="fill: none; stroke: rgb(230, 159, 0); stroke-opacity: 1; stroke-width: 2.4px;"/></g><g class="legendsymbols"><g class="legendpoints"/></g></g><rect class="legendtoggle" x="0" y="-14.5" width="68.078125" height="29" style="fill: rgb(0, 0, 0); fill-opacity: 0;"/></g><g class="traces" transform="translate(70.578125,19.5)" style="opacity: 1;"><text class="legendtext" text-anchor="start" x="40" y="7.8" style="font-family: Inter; font-size: 20px; fill: rgb(26, 26, 26); fill-opacity: 1; white-space: pre;">NYIS</text><g class="layers" style="opacity: 1;"><g class="legendfill"/><g class="legendlines"><path class="js-line" d="M5,0h30" style="fill: none; stroke: rgb(213, 94, 0); stroke-opacity: 1; stroke-width: 2.4px;"/></g><g class="legendsymbols"><g class="legendpoints"/></g></g><rect class="legendtoggle" x="0" y="-14.5" width="89.171875" height="29" style="fill: rgb(0, 0, 0); fill-opacity: 0;"/></g><g class="traces" transform="translate(162.25,19.5)" style="opacity: 1;"><text class="legendtext" text-anchor="start" x="40" y="7.8" style="font-family: Inter; font-size: 20px; fill: rgb(26, 26, 26); fill-opacity: 1; white-space: pre;">PJM</text><g class="layers" style="opacity: 1;"><g class="legendfill"/><g class="legendlines"><path class="js-line" d="M5,0h30" style="fill: none; stroke: rgb(0, 158, 115); stroke-opacity: 1; stroke-width: 2.4px;"/></g><g class="legendsymbols"><g class="legendpoints"/></g></g><rect class="legendtoggle" x="0" y="-14.5" width="79.203125" height="29" style="fill: rgb(0, 0, 0); fill-opacity: 0;"/></g><g class="traces" transform="translate(243.953125,19.5)" style="opacity: 1;"><text class="legendtext" text-anchor="start" x="40" y="7.8" style="font-family: Inter; font-size: 20px; fill: rgb(26, 26, 26); fill-opacity: 1; white-space: pre;">FI</text><g class="layers" style="opacity: 1;"><g class="legendfill"/><g class="legendlines"><path class="js-line" d="M5,0h30" style="fill: none; stroke: rgb(86, 180, 233); stroke-opacity: 1; stroke-width: 2.4px;"/></g><g class="legendsymbols"><g class="legendpoints"/></g></g><rect class="legendtoggle" x="0" y="-14.5" width="60.296875" height="29" style="fill: rgb(0, 0, 0); fill-opacity: 0;"/></g><g class="traces" transform="translate(306.75,19.5)" style="opacity: 1;"><text class="legendtext" text-anchor="start" x="40" y="7.8" style="font-family: Inter; font-size: 20px; fill: rgb(26, 26, 26); fill-opacity: 1; white-space: pre;">BE</text><g class="layers" style="opacity: 1;"><g class="legendfill"/><g class="legendlines"><path class="js-line" d="M5,0h30" style="fill: none; stroke: rgb(0, 114, 178); stroke-opacity: 1; stroke-width: 2.4px;"/></g><g class="legendsymbols"><g class="legendpoints"/></g></g><rect class="legendtoggle" x="0" y="-14.5" width="68.0625" height="29" style="fill: rgb(0, 0, 0); fill-opacity: 0;"/></g></g></g><rect class="scrollbar" rx="20" ry="3" width="0" height="0" style="fill: rgb(128, 139, 164); fill-opacity: 1;" x="0" y="0"/></g><g class="g-gtitle"/><g class="g-xtitle"/><g class="g-ytitle"><text class="ytitle" transform="rotate(-90,22.2998046875,312.5)" x="22.2998046875" y="312.5" text-anchor="middle" style="opacity: 1; font-family: Inter; font-size: 20px; fill: rgb(26, 26, 26); fill-opacity: 1; white-space: pre;">gCO₂eq/kWh</text></g><g class="annotation" data-index="0" style="opacity: 1;"><g class="annotation-text-g" transform="rotate(0,106.94,95.05)"><g class="cursor-pointer" transform="translate(93,84)"><rect class="bg" x="0.5" y="0.5" width="27" height="21" style="stroke-width: 1px; stroke: rgb(0, 0, 0); stroke-opacity: 0; fill: rgb(0, 0, 0); fill-opacity: 0;"/><text class="annotation-text" text-anchor="middle" x="14" y="16" style="font-family: Inter; font-size: 16px; fill: rgb(230, 159, 0); fill-opacity: 1; white-space: pre;">493</text></g></g></g><g class="annotation" data-index="1" style="opacity: 1;"><g class="annotation-text-g" transform="rotate(0,827.06,106.22999999999999)"><g class="cursor-pointer" transform="translate(813,95)"><rect class="bg" x="0.5" y="0.5" width="27" height="21" style="stroke-width: 1px; stroke: rgb(0, 0, 0); stroke-opacity: 0; fill: rgb(0, 0, 0); fill-opacity: 0;"/><text class="annotation-text" text-anchor="middle" x="14" y="16" style="font-family: Inter; font-size: 16px; fill: rgb(230, 159, 0); fill-opacity: 1; white-space: pre;">481</text></g></g></g><g class="annotation" data-index="2" style="opacity: 1;"><g class="annotation-text-g" transform="rotate(0,106.94,318.16)"><g class="cursor-pointer" transform="translate(93,307)"><rect class="bg" x="0.5" y="0.5" width="27" height="21" style="stroke-width: 1px; stroke: rgb(0, 0, 0); stroke-opacity: 0; fill: rgb(0, 0, 0); fill-opacity: 0;"/><text class="annotation-text" text-anchor="middle" x="14" y="16" style="font-family: Inter; font-size: 16px; fill: rgb(213, 94, 0); fill-opacity: 1; white-space: pre;">237</text></g></g></g><g class="annotation" data-index="3" style="opacity: 1;"><g class="annotation-text-g" transform="rotate(0,827.06,269.64)"><g class="cursor-pointer" transform="translate(813,259)"><rect class="bg" x="0.5" y="0.5" width="27" height="21" style="stroke-width: 1px; stroke: rgb(0, 0, 0); stroke-opacity: 0; fill: rgb(0, 0, 0); fill-opacity: 0;"/><text class="annotation-text" text-anchor="middle" x="14" y="16" style="font-family: Inter; font-size: 16px; fill: rgb(213, 94, 0); fill-opacity: 1; white-space: pre;">306</text></g></g></g><g class="annotation" data-index="4" style="opacity: 1;"><g class="annotation-text-g" transform="rotate(0,106.94,141.68)"><g class="cursor-pointer" transform="translate(93,131)"><rect class="bg" x="0.5" y="0.5" width="27" height="21" style="stroke-width: 1px; stroke: rgb(0, 0, 0); stroke-opacity: 0; fill: rgb(0, 0, 0); fill-opacity: 0;"/><text class="annotation-text" text-anchor="middle" x="14" y="16" style="font-family: Inter; font-size: 16px; fill: rgb(0, 158, 115); fill-opacity: 1; white-space: pre;">443</text></g></g></g><g class="annotation" data-index="5" style="opacity: 1;"><g class="annotation-text-g" transform="rotate(0,827.06,185.20999999999998)"><g class="cursor-pointer" transform="translate(813,174)"><rect class="bg" x="0.5" y="0.5" width="27" height="21" style="stroke-width: 1px; stroke: rgb(0, 0, 0); stroke-opacity: 0; fill: rgb(0, 0, 0); fill-opacity: 0;"/><text class="annotation-text" text-anchor="middle" x="14" y="16" style="font-family: Inter; font-size: 16px; fill: rgb(0, 158, 115); fill-opacity: 1; white-space: pre;">396</text></g></g></g><g class="annotation" data-index="6" style="opacity: 1;"><g class="annotation-text-g" transform="rotate(0,106.94,359.72)"><g class="cursor-pointer" transform="translate(93,349)"><rect class="bg" x="0.5" y="0.5" width="27" height="21" style="stroke-width: 1px; stroke: rgb(0, 0, 0); stroke-opacity: 0; fill: rgb(0, 0, 0); fill-opacity: 0;"/><text class="annotation-text" text-anchor="middle" x="14" y="16" style="font-family: Inter; font-size: 16px; fill: rgb(86, 180, 233); fill-opacity: 1; white-space: pre;">224</text></g></g></g><g class="annotation" data-index="7" style="opacity: 1;"><g class="annotation-text-g" transform="rotate(0,823.06,515.8199999999999)"><g class="cursor-pointer" transform="translate(813,505)"><rect class="bg" x="0.5" y="0.5" width="19" height="21" style="stroke-width: 1px; stroke: rgb(0, 0, 0); stroke-opacity: 0; fill: rgb(0, 0, 0); fill-opacity: 0;"/><text class="annotation-text" text-anchor="middle" x="10" y="16" style="font-family: Inter; font-size: 16px; fill: rgb(86, 180, 233); fill-opacity: 1; white-space: pre;">42</text></g></g></g><g class="annotation" data-index="8" style="opacity: 1;"><g class="annotation-text-g" transform="rotate(0,106.94,335.53)"><g class="cursor-pointer" transform="translate(93,325)"><rect class="bg" x="0.5" y="0.5" width="27" height="21" style="stroke-width: 1px; stroke: rgb(0, 0, 0); stroke-opacity: 0; fill: rgb(0, 0, 0); fill-opacity: 0;"/><text class="annotation-text" text-anchor="middle" x="14" y="16" style="font-family: Inter; font-size: 16px; fill: rgb(0, 114, 178); fill-opacity: 1; white-space: pre;">235</text></g></g></g><g class="annotation" data-index="9" style="opacity: 1;"><g class="annotation-text-g" transform="rotate(0,827.06,411.94)"><g class="cursor-pointer" transform="translate(813,401)"><rect class="bg" x="0.5" y="0.5" width="27" height="21" style="stroke-width: 1px; stroke: rgb(0, 0, 0); stroke-opacity: 0; fill: rgb(0, 0, 0); fill-opacity: 0;"/><text class="annotation-text" text-anchor="middle" x="14" y="16" style="font-family: Inter; font-size: 16px; fill: rgb(0, 114, 178); fill-opacity: 1; white-space: pre;">153</text></g></g></g></g></svg>