<svg class="main-svg" xmlns="http://www.w3.org/2000/svg" xmlns:xlink="http://www.w3.org/1999/xlink" width="1180" height="1100" style="" viewBox="0 0 1180 1100"><rect x="0" y="0" width="1180" height="1100" style="fill: rgb(250, 248, 245); fill-opacity: 1;"/><defs id="defs-db9f49"><g class="clips"><clipPath id="clipdb9f49xyplot" class="plotclip"><rect width="1084" height="165.98400000000004"/></clipPath><clipPath id="clipdb9f49x2y2plot" class="plotclip"><rect width="1084" height="165.98400000000004"/></clipPath><clipPath id="clipdb9f49x3y3plot" class="plotclip"><rect width="1084" height="165.98399999999998"/></clipPath><clipPath id="clipdb9f49x4y4plot" class="plotclip"><rect width="1084" height="165.984"/></clipPath><clipPath id="clipdb9f49x5y5plot" class="plotclip"><rect width="1084" height="165.98399999999998"/></clipPath><clipPath class="axesclip" id="clipdb9f49x"><rect x="72" y="0" width="1084" height="1100"/></clipPath><clipPath class="axesclip" id="clipdb9f49y"><rect x="0" y="71" width="1180" height="165.98400000000004"/></clipPath><clipPath class="axesclip" id="clipdb9f49xy"><rect x="72" y="71" width="1084" height="165.98400000000004"/></clipPath><clipPath class="axesclip" id="clipdb9f49y2"><rect x="0" y="276.50399999999996" width="1180" height="165.98400000000004"/></clipPath><clipPath class="axesclip" id="clipdb9f49xy2"><rect x="72" y="276.50399999999996" width="1084" height="165.98400000000004"/></clipPath><clipPath class="axesclip" id="clipdb9f49y3"><rect x="0" y="482.00800000000004" width="1180" height="165.98399999999998"/></clipPath><clipPath class="axesclip" id="clipdb9f49xy3"><rect x="72" y="482.00800000000004" width="1084" height="165.98399999999998"/></clipPath><clipPath class="axesclip" id="clipdb9f49y4"><rect x="0" y="687.512" width="1180" height="165.984"/></clipPath><clipPath class="axesclip" id="clipdb9f49xy4"><rect x="72" y="687.512" width="1084" height="165.984"/></clipPath><clipPath class="axesclip" id="clipdb9f49y5"><rect x="0" y="893.0160000000001" width="1180" height="165.98399999999998"/></clipPath><clipPath class="axesclip" id="clipdb9f49xy5"><rect x="72" y="893.0160000000001" width="1084" height="165.98399999999998"/></clipPath><clipPath class="axesclip" id="clipdb9f49x2"><rect x="72" y="0" width="1084" height="1100"/></clipPath><clipPath class="axesclip" id="clipdb9f49x2y"><rect x="72" y="71" width="1084" height="165.98400000000004"/></clipPath><clipPath class="axesclip" id="clipdb9f49x2y2"><rect x="72" y="276.50399999999996" width="1084" height="165.98400000000004"/></clipPath><clipPath class="axesclip" id="clipdb9f49x2y3"><rect x="72" y="482.00800000000004" width="1084" height="165.98399999999998"/></clipPath><clipPath class="axesclip" id="clipdb9f49x2y4"><rect x="72" y="687.512" width="1084" height="165.984"/></clipPath><clipPath class="axesclip" id="clipdb9f49x2y5"><rect x="72" y="893.0160000000001" width="1084" height="165.98399999999998"/></clipPath><clipPath class="axesclip" id="clipdb9f49x3"><rect x="72" y="0" width="1084" height="1100"/></clipPath><clipPath class="axesclip" id="clipdb9f49x3y"><rect x="72" y="71" width="1084" height="165.98400000000004"/></clipPath><clipPath class="axesclip" id="clipdb9f49x3y2"><rect x="72" y="276.50399999999996" width="1084" height="165.98400000000004"/></clipPath><clipPath class="axesclip" id="clipdb9f49x3y3"><rect x="72" y="482.00800000000004" width="1084" height="165.98399999999998"/></clipPath><clipPath class="axesclip" id="clipdb9f49x3y4"><rect x="72" y="687.512" width="1084" height="165.984"/></clipPath><clipPath class="axesclip" id="clipdb9f49x3y5"><rect x="72" y="893.0160000000001" width="1084" height="165.98399999999998"/></clipPath><clipPath class="axesclip" id="clipdb9f49x4"><rect x="72" y="0" width="1084" height="1100"/></clipPath><clipPath class="axesclip" id="clipdb9f49x4y"><rect x="72" y="71" width="1084" height="165.98400000000004"/></clipPath><clipPath class="axesclip" id="clipdb9f49x4y2"><rect x="72" y="276.50399999999996" width="1084" height="165.98400000000004"/></clipPath><clipPath class="axesclip" id="clipdb9f49x4y3"><rect x="72" y="482.00800000000004" width="1084" height="165.98399999999998"/></clipPath><clipPath class="axesclip" id="clipdb9f49x4y4"><rect x="72" y="687.512" width="1084" height="165.984"/></clipPath><clipPath class="axesclip" id="clipdb9f49x4y5"><rect x="72" y="893.0160000000001" width="1084" height="165.98399999999998"/></clipPath><clipPath class="axesclip" id="clipdb9f49x5"><rect x="72" y="0" width="1084" height="1100"/></clipPath><clipPath class="axesclip" id="clipdb9f49x5y"><rect x="72" y="71" width="1084" height="165.98400000000004"/></clipPath><clipPath class="axesclip" id="clipdb9f49x5y2"><rect x="72" y="276.50399999999996" width="1084" height="165.98400000000004"/></clipPath><clipPath class="axesclip" id="clipdb9f49x5y3"><rect x="72" y="482.00800000000004" width="1084" height="165.98399999999998"/></clipPath><clipPath class="axesclip" id="clipdb9f49x5y4"><rect x="72" y="687.512" width="1084" height="165.984"/></clipPath><clipPath class="axesclip" id="clipdb9f49x5y5"><rect x="72" y="893.0160000000001" width="1084" height="165.98399999999998"/></clipPath></g><g class="gradients"/><g class="patterns"/></defs><g class="bglayer"/><g class="layer-below"><g class="imagelayer"/><g class="shapelayer"/></g><g class="cartesianlayer"><g class="subplot xy"><g class="layer-subplot"><g class="shapelayer"/><g class="imagelayer"/></g><g class="minor-gridlayer"><g class="x"/><g class="y"/></g><g class="gridlayer"><g class="x"/><g class="y"><path class="ygrid crisp" transform="translate(0,182.51)" d="M72,0h1084" style="stroke: rgb(232, 228, 222); stroke-opacity: 1; stroke-width: 1px;"/><path class="ygrid crisp" transform="translate(0,128.19)" d="M72,0h1084" style="stroke: rgb(232, 228, 222); stroke-opacity: 1; stroke-width: 1px;"/><path class="ygrid crisp" transform="translate(0,73.87)" d="M72,0h1084" style="stroke: rgb(232, 228, 222); stroke-opacity: 1; stroke-width: 1px;"/></g></g><g class="zerolinelayer"/><g class="layer-between"><g class="shapelayer"/><g class="imagelayer"/></g><path class="xlines-below"/><path class="ylines-below"/><g class="overlines-below"/><g class="xaxislayer-below"/><g class="yaxislayer-below"/><g class="overaxes-below"/><g class="overplot"><g class="xy" transform="translate(72,71)" clip-path="url(#clipdb9f49xyplot)"><g class="scatterlayer mlayer"><g class="trace scatter trace64c5d1" style="stroke-miterlimit: 2; opacity: 1;"><g class="fills"/><g class="errorbars"/><g class="lines"><path class="js-line" d="M0,30.03L2.26,49.04L4.52,84.35L9.03,138.67L11.29,152.25L13.55,157.68L15.81,135.96L22.58,51.76L24.84,30.03L27.1,16.45L29.36,16.45L31.62,19.16L33.88,16.45L38.39,16.45L40.65,13.73L42.91,13.73L45.17,16.45L47.42,16.45L49.68,13.73L51.94,16.45L54.2,30.03L56.46,49.04L58.72,84.35L63.23,138.67L65.49,152.25L67.75,157.68L70.01,127.81L76.78,51.76L79.04,38.18L81.3,16.45L83.56,16.45L88.07,16.45L90.33,13.73L92.59,16.45L94.85,16.45L106.14,16.45L108.4,32.74L110.66,49.04L112.92,84.35L117.43,135.96L119.69,149.54L121.95,157.68L124.21,133.24L130.98,51.76L133.24,35.46L135.5,19.16L137.76,16.45L140.02,16.45L142.27,13.73L144.53,16.45L146.79,13.73L149.05,16.45L151.31,16.45L155.82,11.02L158.08,13.73L160.34,16.45L162.6,30.03L164.86,49.04L167.12,84.35L171.63,138.67L173.89,152.25L176.15,154.97L178.41,133.24L187.44,32.74L189.7,19.16L194.22,19.16L196.47,16.45L214.54,16.45L216.8,30.03L219.06,49.04L221.32,84.35L228.09,152.25L230.35,154.97L234.87,111.51L237.13,84.35L241.64,35.46L243.9,19.16L250.67,19.16L252.93,16.45L255.19,13.73L257.45,13.73L259.71,16.45L261.97,13.73L264.22,16.45L266.48,16.45L268.74,16.45L271,32.74L273.26,49.04L275.52,84.35L280.03,138.67L282.29,152.25L284.55,157.68L286.81,133.24L291.32,84.35L293.58,51.76L295.84,30.03L298.1,16.45L302.62,16.45L304.88,13.73L311.65,13.73L313.91,16.45L322.94,16.45L325.2,32.74L327.46,49.04L329.72,84.35L334.23,135.96L336.49,152.25L338.75,157.68L341.01,135.96L345.52,84.35L347.78,59.91L352.3,19.16L354.56,19.16L356.82,19.16L359.07,16.45L361.33,16.45L363.59,13.73L365.85,13.73L368.11,16.45L370.37,13.73L372.63,13.73L374.88,13.73L377.14,16.45L379.4,30.03L381.66,49.04L386.17,111.51L388.43,138.67L392.95,154.97L395.21,133.24L397.47,111.51L399.72,81.63L404.24,38.18L406.5,19.16L413.27,19.16L415.53,16.45L424.57,16.45L426.82,13.73L429.08,16.45L431.34,16.45L433.6,30.03L435.86,49.04L440.38,114.23L442.63,138.67L444.89,152.25L447.15,152.25L451.67,108.79L453.92,76.2L458.44,32.74L460.7,16.45L471.99,16.45L474.25,13.73L481.02,13.73L483.28,16.45L485.54,16.45L487.8,32.74L490.06,49.04L492.32,84.35L496.83,135.96L499.09,146.82L501.35,152.25L503.61,133.24L510.38,57.19L512.64,38.18L514.9,19.16L517.16,19.16L519.42,19.16L521.67,16.45L539.74,16.45L542,32.74L544.26,49.04L546.52,84.35L551.03,138.67L553.29,152.25L555.55,157.68L557.81,135.96L564.58,51.76L566.84,35.46L569.1,19.16L571.36,16.45L578.13,16.45L580.39,13.73L584.91,13.73L587.17,16.45L593.94,16.45L596.2,30.03L598.46,49.04L600.72,84.35L605.23,138.67L607.49,152.25L609.75,157.68L612.01,135.96L618.78,49.04L621.04,35.46L623.3,19.16L625.56,16.45L648.14,16.45L650.4,32.74L652.66,49.04L654.92,84.35L659.43,138.67L661.69,152.25L663.95,157.68L666.21,135.96L672.98,54.47L675.24,32.74L677.5,19.16L679.76,19.16L682.02,16.45L684.27,16.45L686.53,16.45L688.79,13.73L691.05,13.73L693.31,16.45L700.08,16.45L702.34,13.73L706.86,49.04L709.12,84.35L713.63,138.67L715.89,152.25L718.15,157.68L720.41,133.24L727.18,51.76L729.44,35.46L731.7,19.16L733.96,16.45L736.22,13.73L738.47,13.73L740.73,16.45L742.99,8.3L747.51,13.73L749.77,13.73L752.02,16.45L754.28,16.45L756.54,13.73L758.8,32.74L761.06,49.04L763.32,84.35L767.83,135.96L770.09,152.25L772.35,146.82L774.61,127.81L776.87,111.51L779.13,81.63L783.64,35.46L785.9,19.16L788.16,13.73L790.42,16.45L792.67,16.45L794.93,13.73L797.19,13.73L799.45,16.45L801.71,16.45L803.97,11.02L806.22,13.73L808.48,13.73L810.74,16.45L813,30.03L815.26,49.04L817.52,84.35L822.03,138.67L824.29,152.25L826.55,154.97L828.81,122.38L833.32,84.35L835.58,57.19L837.84,32.74L840.1,16.45L842.36,19.16L844.62,16.45L864.94,16.45L867.2,32.74L869.46,49.04L871.72,84.35L876.23,138.67L878.49,152.25L880.75,157.68L883.01,130.52L892.04,38.18L894.3,19.16L901.07,19.16L903.33,16.45L910.11,16.45L912.37,11.02L914.63,16.45L916.88,13.73L919.14,16.45L921.4,32.74L923.66,49.04L925.92,84.35L930.43,138.67L932.69,152.25L934.95,152.25L937.21,135.96L941.72,78.92L943.98,59.91L948.5,19.16L950.76,19.16L953.02,19.16L955.27,16.45L957.53,16.45L959.79,13.73L962.05,13.73L964.31,16.45L966.57,13.73L968.82,16.45L973.34,16.45L975.6,32.74L977.86,49.04L980.12,84.35L984.63,138.67L986.89,152.25L989.15,154.97L991.41,135.96L993.67,100.65L995.92,78.92L1000.44,32.74L1002.7,16.45L1004.96,16.45L1007.22,13.73L1009.47,16.45L1011.73,13.73L1013.99,16.45L1016.25,16.45L1027.54,16.45L1029.8,30.03L1032.06,49.04L1034.32,84.35L1038.83,138.67L1041.09,152.25L1043.35,157.68L1045.61,135.96L1050.13,84.35L1052.38,51.76L1056.9,16.45L1059.16,19.16L1061.42,16.45L1063.67,16.45L1065.93,16.45L1068.19,13.73L1070.45,13.73L1072.71,16.45L1074.97,13.73L1077.22,13.73L1079.48,16.45L1081.74,16.45L1084,30.03" style="vector-effect: none; fill: none; stroke: rgb(154, 160, 166); stroke-opacity: 1; stroke-width: 1.4px; opacity: 1;"/></g><g class="points"/><g class="text"/></g><g class="trace scatter trace4533cd" style="stroke-miterlimit: 2; opacity: 1;"><g class="fills"/><g class="errorbars"/><g class="lines"><path class="js-line" d="M0,30.71L9.03,124.99L11.29,133.91L13.55,134.79L15.81,114.25L18.07,96.68L20.32,65.8L24.84,22.65L27.1,16.8L29.36,15.37L31.62,15.53L33.88,16.67L36.13,16.05L38.39,16.54L40.65,15.51L45.17,14.96L47.42,11.46L49.68,11.33L51.94,20.34L54.2,32.11L56.46,58.89L58.72,81.64L60.97,113.54L63.23,130.74L65.49,135.28L67.75,127.56L70.01,102.46L72.27,87.49L74.52,58.1L76.78,43.12L79.04,20.99L81.3,16.61L83.56,14.05L85.82,15.36L88.07,15.39L94.85,16.6L97.11,16.25L99.37,15.88L101.63,12.31L103.88,12.57L106.14,20.15L108.4,31.9L110.66,54.48L112.92,76.99L115.17,108.22L117.43,128.52L119.69,132.64L121.95,126.11L124.21,105.28L126.47,88.21L128.72,60.47L133.24,23.26L135.5,16.33L137.76,14.13L140.02,14.1L142.27,16.07L144.53,15.92L146.79,16.36L149.05,15.79L151.31,13.98L153.57,14.06L155.82,10.42L158.08,10.93L160.34,18.37L162.6,32.89L169.38,98.38L171.63,111.83L173.89,119.53L176.15,113.08L185.18,43.61L187.44,27.93L189.7,19.17L191.96,14.34L198.73,15.22L200.99,16L205.51,17.61L207.77,18.2L210.02,15.52L212.28,15.48L214.54,17.07L216.8,24.32L221.32,53.86L223.57,76.32L228.09,99.26L230.35,93.16L232.61,86.69L234.87,75.63L241.64,31.33L243.9,23.09L246.16,18.44L248.42,17.45L255.19,18.53L257.45,19.24L259.71,19.31L261.97,18.51L266.48,16.29L268.74,18.7L271,24.38L273.26,37.76L275.52,50.82L277.77,71.67L282.29,95.76L284.55,91.47L286.81,83.86L289.07,72.15L291.32,54.21L293.58,42.77L295.84,29.4L298.1,24.67L300.36,18.71L302.62,18.74L304.88,18.1L307.13,18.69L309.39,16.85L311.65,16.31L313.91,14.36L316.17,13.97L318.42,12.52L320.68,12.2L322.94,16.61L325.2,27.69L331.97,84.31L334.23,95.07L336.49,98.55L338.75,90.61L343.27,68.57L345.52,49.45L350.04,24.65L352.3,19.42L354.56,17.13L356.82,16.81L359.07,17.97L361.33,17.7L363.59,18.43L365.85,17.79L368.11,17.47L370.37,16.16L372.63,14.47L374.88,14.05L377.14,20.71L379.4,30.26L388.43,106.03L390.69,110.48L392.95,112.24L395.21,97.78L397.47,86.16L399.72,60.07L404.24,26.79L406.5,19.01L408.76,16.11L411.02,15.59L413.27,17.16L415.53,16.85L417.79,17.32L420.05,16.88L424.57,15.21L426.82,12.71L429.08,10.97L431.34,16.42L433.6,27.6L435.86,48.36L438.12,70.08L440.38,100.83L442.63,121.71L444.89,128.25L447.15,127.88L449.41,107.28L451.67,95.24L453.92,68.31L458.44,28.32L460.7,19.71L462.96,17.9L465.22,18.02L467.47,18.78L469.73,17.28L476.51,11.93L478.77,12.31L481.02,9.81L483.28,10.78L485.54,17.46L487.8,34.44L496.83,130.3L499.09,135.31L501.35,128.61L503.61,114.61L512.64,28.69L514.9,15.12L517.16,12.06L519.42,12.31L521.67,15.31L523.93,15.23L526.19,16.04L528.45,15.31L530.71,13.92L532.97,14.26L537.48,10.09L539.74,14.48L542,27.98L544.26,48.19L551.03,134.3L553.29,145.61L555.55,140.5L557.81,125.76L566.84,33.17L569.1,19.66L571.36,15.64L573.62,14.19L575.88,16.21L578.13,16.26L582.65,14.94L584.91,12.96L589.42,12.18L591.68,10.29L593.94,14.98L596.2,30.1L598.46,52.43L600.72,83.18L605.23,139.87L607.49,149.81L609.75,143.23L612.01,127.31L618.78,48.3L621.04,29.79L623.3,17.81L625.56,14.89L627.82,14.15L630.07,15.66L636.85,15.27L639.11,14.34L641.37,14.8L643.63,12.65L645.88,11.19L648.14,16.93L650.4,30.92L652.66,54.02L659.43,136.43L661.69,142.14L663.95,134.61L666.21,114.84L675.24,25.96L677.5,16.79L679.76,14.42L682.02,14.41L684.27,15.79L686.53,15.55L688.79,16.67L691.05,16.92L695.57,17.19L697.82,14.77L700.08,13.46L702.34,19.39L704.6,31.58L706.86,53.75L713.63,130.7L715.89,137.59L718.15,131.69L720.41,112.19L722.67,92.46L724.92,65.58L729.44,25.54L731.7,16.6L733.96,13.32L736.22,14.96L747.51,18.46L749.77,18.48L752.02,15.7L754.28,15.2L756.54,20.42L758.8,32L763.32,74.75L765.57,102.69L767.83,121.77L770.09,129.28L772.35,122.11L774.61,105.75L776.87,88.67L779.13,64.62L783.64,30.96L785.9,23.3L790.42,18.17L792.67,18.84L794.93,17.83L797.19,15.82L799.45,14.97L801.71,13.04L803.97,11.33L806.22,10.88L808.48,10L810.74,15.25L813,29.2L815.26,50.82L822.03,125.88L824.29,135.1L826.55,129.59L828.81,116.26L833.32,71.99L835.58,48.21L837.84,28.37L840.1,17.88L842.36,13.98L844.62,12.44L846.88,14.41L849.13,13.77L853.65,12.94L855.91,11.48L858.17,10.51L860.42,10.97L862.68,9.98L864.94,15.56L867.2,30.15L869.46,52.86L873.97,103.74L876.23,123.86L878.49,131.59L880.75,131.89L883.01,121.86L885.27,100.87L894.3,19.8L896.56,13.91L898.82,11.72L901.07,13.35L905.59,15.16L907.85,15.8L910.11,14.04L912.37,13.53L914.63,12.7L916.88,10.43L919.14,13.21L921.4,23.55L925.92,67.65L928.17,99.82L932.69,134.91L934.95,137.88L937.21,132.42L939.47,110.7L941.72,91.73L943.98,63.69L948.5,22.26L950.76,17.25L955.27,15.78L957.53,16.99L959.79,16.7L962.05,17.5L964.31,16.78L966.57,17.53L968.82,16.93L971.08,13.12L973.34,15.29L975.6,26.54L977.86,42.8L980.12,70.48L984.63,118.4L986.89,130.68L989.15,128.69L991.41,119.05L998.18,51.7L1000.44,37.75L1002.7,20.89L1004.96,17.28L1007.22,14.65L1009.47,16.62L1011.73,16.98L1013.99,16.4L1023.02,14.39L1025.28,11.56L1027.54,14.02L1029.8,25.66L1032.06,43.47L1034.32,71.57L1038.83,123.61L1041.09,133.09L1043.35,126.97L1045.61,114.78L1054.64,32.66L1056.9,20.24L1059.16,15.35L1061.42,13.82L1065.93,15.5L1068.19,14.94L1070.45,14.91L1072.71,13.88L1074.97,13.25L1077.22,11.77L1079.48,10.92L1081.74,14.49L1084,27.62" style="vector-effect: none; fill: none; stroke: rgb(224, 83, 18); stroke-opacity: 1; stroke-width: 1.4px; opacity: 1;"/></g><g class="points"/><g class="text"/></g></g></g></g><g class="zerolinelayer-above"/><path class="xlines-above crisp" d="M71,237.48400000000004H1156" style="fill: none; stroke-width: 1px; stroke: rgb(232, 228, 222); stroke-opacity: 1;"/><path class="ylines-above crisp" d="M71.5,71V236.98400000000004" style="fill: none; stroke-width: 1px; stroke: rgb(232, 228, 222); stroke-opacity: 1;"/><g class="overlines-above"/><g class="xaxislayer-above"/><g class="yaxislayer-above"><g class="ytick"><text text-anchor="end" x="67.8" y="5.6" transform="translate(0,236.83)" style="font-family: Inter; font-size: 16px; fill: rgb(26, 26, 26); fill-opacity: 1; white-space: pre;">440</text></g><g class="ytick"><text text-anchor="end" x="67.8" y="5.6" style="font-family: Inter; font-size: 16px; fill: rgb(26, 26, 26); fill-opacity: 1; white-space: pre;" transform="translate(0,182.51)">460</text></g><g class="ytick"><text text-anchor="end" x="67.8" y="5.6" style="font-family: Inter; font-size: 16px; fill: rgb(26, 26, 26); fill-opacity: 1; white-space: pre;" transform="translate(0,128.19)">480</text></g><g class="ytick"><text text-anchor="end" x="67.8" y="5.6" style="font-family: Inter; font-size: 16px; fill: rgb(26, 26, 26); fill-opacity: 1; white-space: pre;" transform="translate(0,73.87)">500</text></g></g><g class="overaxes-above"/></g><g class="subplot x2y2"><g class="layer-subplot"><g class="shapelayer"/><g class="imagelayer"/></g><g class="minor-gridlayer"><g class="x2"/><g class="y2"/></g><g class="gridlayer"><g class="x2"/><g class="y2"><path class="y2grid crisp" transform="translate(0,430.47399999999993)" d="M72,0h1084" style="stroke: rgb(232, 228, 222); stroke-opacity: 1; stroke-width: 1px;"/><path class="y2grid crisp" transform="translate(0,383.484)" d="M72,0h1084" style="stroke: rgb(232, 228, 222); stroke-opacity: 1; stroke-width: 1px;"/><path class="y2grid crisp" transform="translate(0,336.49399999999997)" d="M72,0h1084" style="stroke: rgb(232, 228, 222); stroke-opacity: 1; stroke-width: 1px;"/><path class="y2grid crisp" transform="translate(0,289.50399999999996)" d="M72,0h1084" style="stroke: rgb(232, 228, 222); stroke-opacity: 1; stroke-width: 1px;"/></g></g><g class="zerolinelayer"/><g class="layer-between"><g class="shapelayer"/><g class="imagelayer"/></g><path class="xlines-below"/><path class="ylines-below"/><g class="overlines-below"/><g class="xaxislayer-below"/><g class="yaxislayer-below"/><g class="overaxes-below"/><g class="overplot"><g class="x2y2" transform="translate(72,276.50399999999996)" clip-path="url(#clipdb9f49x2y2plot)"><g class="scatterlayer mlayer"><g class="trace scatter trace28b586" style="stroke-miterlimit: 2; opacity: 1;"><g class="fills"/><g class="errorbars"/><g class="lines"><path class="js-line" d="M0,81.61L2.26,74.09L4.52,76.91L6.77,75.97L9.03,83.48L13.55,97.58L15.81,104.16L18.07,103.22L20.32,100.4L22.58,101.34L24.84,105.1L27.1,99.46L29.36,96.64L31.62,101.34L33.88,108.86L38.39,105.1L40.65,89.12L42.91,106.04L45.17,100.4L47.42,95.7L49.68,81.61L51.94,84.42L54.2,89.12L56.46,88.18L58.72,99.46L60.97,95.7L63.23,106.98L65.49,118.26L67.75,122.02L70.01,128.6L72.27,131.42L74.52,122.02L76.78,123.9L79.04,120.14L81.3,112.62L83.56,108.86L85.82,103.22L88.07,100.4L90.33,106.98L92.59,109.8L94.85,115.44L97.11,115.44L99.37,118.26L101.63,117.32L103.88,103.22L110.66,73.15L112.92,68.45L115.17,66.57L117.43,71.27L119.69,85.36L121.95,92.88L124.21,96.64L126.47,98.52L128.72,95.7L130.98,82.54L133.24,71.27L135.5,64.69L137.76,64.69L140.02,75.03L142.27,85.36L144.53,86.3L146.79,78.79L149.05,76.91L151.31,70.33L153.57,69.39L155.82,67.51L158.08,72.21L160.34,71.27L162.6,66.57L167.12,75.97L169.38,76.91L171.63,83.48L173.89,82.54L178.41,92.88L180.67,85.36L182.92,88.18L185.18,82.54L187.44,73.15L189.7,59.99L191.96,71.27L194.22,76.91L196.47,74.09L198.73,79.73L200.99,77.85L203.25,79.73L205.51,84.42L207.77,82.54L210.02,87.24L212.28,89.12L214.54,87.24L216.8,74.09L219.06,56.23L221.32,64.69L225.83,92.88L228.09,100.4L230.35,112.62L232.61,112.62L234.87,114.5L237.13,112.62L239.38,103.22L241.64,89.12L243.9,75.03L246.16,72.21L248.42,82.54L250.67,89.12L252.93,84.42L255.19,90.06L257.45,91L259.71,87.24L261.97,87.24L264.22,82.54L266.48,70.33L268.74,69.39L273.26,74.09L275.52,66.57L277.77,80.67L280.03,88.18L282.29,105.1L284.55,104.16L286.81,103.22L289.07,103.22L291.32,104.16L293.58,95.7L298.1,64.69L300.36,59.05L302.62,63.75L304.88,64.69L307.13,64.69L309.39,68.45L311.65,63.75L313.91,61.87L316.17,62.81L318.42,59.99L320.68,61.87L322.94,58.11L327.46,45.89L329.72,44.01L331.97,52.47L334.23,72.21L338.75,96.64L341.01,102.28L343.27,107.92L345.52,103.22L347.78,90.06L350.04,82.54L352.3,75.03L354.56,75.97L356.82,75.97L359.07,84.42L361.33,85.36L363.59,91.94L365.85,94.76L368.11,99.46L370.37,100.4L372.63,85.36L374.88,78.79L377.14,79.73L379.4,76.91L381.66,67.51L383.92,69.39L386.17,75.03L388.43,84.42L390.69,113.56L392.95,128.6L395.21,131.42L397.47,134.23L399.72,138.93L401.98,139.87L404.24,134.23L406.5,129.54L408.76,119.2L413.27,115.44L415.53,120.14L417.79,125.78L420.05,136.11L422.31,146.45L424.57,140.81L429.08,110.74L431.34,99.46L433.6,96.64L435.86,99.46L438.12,94.76L440.38,97.58L442.63,107.92L444.89,131.42L447.15,141.75L449.41,144.57L451.67,147.39L453.92,152.09L456.18,151.15L458.44,142.69L460.7,126.72L462.96,119.2L465.22,116.38L467.47,123.9L469.73,127.66L471.99,125.78L476.51,105.1L478.77,94.76L483.28,62.81L485.54,59.05L487.8,60.93L490.06,54.35L492.32,48.71L494.57,51.53L496.83,57.17L499.09,84.42L501.35,102.28L503.61,112.62L505.87,114.5L508.13,114.5L510.38,110.74L512.64,98.52L514.9,94.76L517.16,85.36L519.42,80.67L521.67,73.15L526.19,57.17L528.45,52.47L532.97,43.07L535.22,45.89L537.48,50.59L539.74,59.99L542,61.87L544.26,53.41L546.52,49.65L548.77,44.01L551.03,45.89L553.29,57.17L555.55,72.21L557.81,76.91L560.07,80.67L562.32,82.54L564.58,80.67L566.84,75.03L569.1,59.99L571.36,51.53L573.62,42.13L575.88,39.31L578.13,43.07L580.39,44.01L584.91,27.1L587.17,25.22L589.42,29.92L591.68,28.04L593.94,29.92L596.2,34.61L598.46,31.79L600.72,26.16L602.97,26.16L605.23,32.73L607.49,53.41L609.75,63.75L612.01,75.03L614.27,77.85L616.52,77.85L618.78,73.15L621.04,63.75L623.3,50.59L625.56,44.95L627.82,42.13L630.07,41.19L632.33,39.31L634.59,34.61L636.85,24.28L639.11,19.58L641.37,12.06L643.63,8.3L645.88,8.3L650.4,25.22L652.66,24.28L657.17,31.79L659.43,33.67L663.95,73.15L666.21,82.54L668.47,85.36L670.72,86.3L672.98,77.85L675.24,75.97L677.5,74.09L679.76,67.51L682.02,75.97L684.27,78.79L686.53,83.48L688.79,80.67L691.05,80.67L693.31,82.54L695.57,77.85L697.82,69.39L700.08,61.87L702.34,63.75L704.6,64.69L706.86,59.99L709.12,63.75L711.38,74.09L715.89,96.64L718.15,105.1L720.41,109.8L722.67,112.62L724.92,111.68L727.18,106.04L729.44,90.06L731.7,79.73L733.96,78.79L736.22,87.24L740.73,102.28L742.99,104.16L747.51,106.98L749.77,104.16L754.28,77.85L756.54,72.21L758.8,75.03L761.06,70.33L763.32,70.33L765.57,81.61L770.09,112.62L772.35,119.2L774.61,122.02L776.87,127.66L779.13,133.3L781.38,132.36L783.64,121.08L785.9,117.32L788.16,116.38L790.42,112.62L792.67,116.38L794.93,115.44L797.19,118.26L799.45,116.38L801.71,117.32L803.97,112.62L806.22,112.62L808.48,106.04L813,92.88L815.26,92.88L817.52,92.88L819.77,93.82L822.03,103.22L824.29,95.7L826.55,92.88L828.81,105.1L831.07,106.98L833.32,106.98L835.58,106.98L837.84,108.86L840.1,99.46L842.36,102.28L844.62,93.82L846.88,91L849.13,91.94L851.39,91L853.65,95.7L855.91,89.12L860.42,91L862.68,89.12L867.2,78.79L869.46,81.61L871.72,79.73L873.97,82.54L876.23,89.12L878.49,104.16L880.75,111.68L883.01,109.8L885.27,110.74L887.52,109.8L889.78,106.04L892.04,93.82L894.3,88.18L896.56,79.73L898.82,78.79L901.07,84.42L903.33,91.94L905.59,93.82L907.85,95.7L910.11,95.7L912.37,79.73L914.63,80.67L916.88,76.91L919.14,62.81L921.4,57.17L923.66,62.81L928.17,69.39L930.43,75.03L932.69,101.34L934.95,98.52L937.21,101.34L939.47,91L941.72,91.94L943.98,91.94L948.5,70.33L950.76,75.97L953.02,76.91L955.27,87.24L957.53,90.06L959.79,88.18L962.05,86.3L964.31,82.54L966.57,81.61L968.82,69.39L971.08,59.05L973.34,60.93L975.6,59.99L977.86,59.99L980.12,61.87L982.38,69.39L986.89,90.06L989.15,95.7L993.67,105.1L995.92,106.98L998.18,92.88L1000.44,86.3L1004.96,66.57L1007.22,61.87L1009.47,57.17L1011.73,58.11L1016.25,49.65L1018.51,49.65L1020.77,49.65L1023.02,51.53L1025.28,44.95L1027.54,47.77L1032.06,43.07L1034.32,43.07L1036.57,44.95L1038.83,55.29L1041.09,65.63L1043.35,81.61L1045.61,93.82L1047.87,96.64L1050.13,101.34L1052.38,98.52L1054.64,81.61L1056.9,74.09L1059.16,74.09L1061.42,75.03L1065.93,79.73L1068.19,75.97L1070.45,74.09L1072.71,79.73L1074.97,72.21L1077.22,67.51L1079.48,61.87L1081.74,52.47L1084,49.65" style="vector-effect: none; fill: none; stroke: rgb(154, 160, 166); stroke-opacity: 1; stroke-width: 1.4px; opacity: 1;"/></g><g class="points"/><g class="text"/></g><g class="trace scatter trace4336e7" style="stroke-miterlimit: 2; opacity: 1;"><g class="fills"/><g class="errorbars"/><g class="lines"><path class="js-line" d="M0,95.74L2.26,96.2L4.52,99.01L6.77,102.16L9.03,110.6L13.55,123.39L15.81,125.19L20.32,123.15L22.58,118.31L24.84,116.53L27.1,113.35L31.62,111.64L33.88,112.65L40.65,116.87L42.91,116.54L45.17,115.34L47.42,112.81L54.2,105.52L56.46,104.61L58.72,103.78L60.97,109.19L65.49,123.78L67.75,126.71L70.01,128.89L72.27,128L74.52,128.77L76.78,122.85L79.04,121.44L81.3,113.44L83.56,112.67L85.82,107.73L88.07,108.29L90.33,104.79L92.59,105.74L94.85,102.97L97.11,103.93L99.37,100.29L101.63,101.69L103.88,94.7L106.14,92.99L108.4,86.97L110.66,86.79L112.92,87.5L117.43,96.09L119.69,104.76L121.95,104.86L124.21,111.81L126.47,110.86L128.72,110.95L130.98,104.73L133.24,104.59L135.5,96.56L137.76,95.63L140.02,89.56L142.27,91.91L144.53,88.55L146.79,92.64L149.05,89.54L151.31,91.82L153.57,86.1L155.82,86.28L158.08,80.98L160.34,80.15L162.6,75.44L164.86,77.46L167.12,77.63L169.38,85.8L171.63,87.12L173.89,97.99L176.15,96.18L178.41,102.58L180.67,96.99L182.92,99.49L185.18,94.16L187.44,95.52L189.7,90.12L191.96,91.43L194.22,88.12L196.47,91.85L198.73,89.55L200.99,92.88L203.25,89.87L205.51,89.29L207.77,82.45L210.02,84.54L212.28,78.88L214.54,80.76L216.8,77.75L219.06,82.24L221.32,82.5L223.57,92.7L225.83,96.98L228.09,107.32L230.35,108.49L232.61,113.81L234.87,110.56L237.13,109.58L239.38,104.33L241.64,102.07L243.9,97.75L246.16,98.38L248.42,97.09L250.67,99.08L252.93,98.67L255.19,100L257.45,97.44L259.71,98.44L261.97,94.53L264.22,93.76L266.48,89.74L268.74,89.13L271,86.43L273.26,86.57L275.52,83.94L277.77,88.34L282.29,98.74L284.55,100.43L286.81,103.06L289.07,106.97L291.32,105.55L293.58,101.46L298.1,94.15L300.36,92.33L302.62,89.03L304.88,87.65L307.13,85.4L309.39,86.13L311.65,84.66L313.91,85.18L318.42,79.44L320.68,72.35L325.2,65.89L327.46,65.17L331.97,79.37L334.23,88.93L336.49,92.24L338.75,97.32L341.01,103.01L343.27,105.81L345.52,106.72L347.78,102.73L350.04,99.45L352.3,93.93L354.56,92.44L356.82,87.72L359.07,89.5L361.33,85.54L363.59,89.76L365.85,86.45L368.11,90.07L370.37,84.23L372.63,85.59L374.88,77.3L377.14,77.48L379.4,72.23L381.66,74.32L383.92,72.94L386.17,84.34L388.43,89.57L390.69,101.97L392.95,105.6L395.21,114.52L397.47,111.39L399.72,116.13L401.98,109.42L404.24,109.93L406.5,100.45L408.76,101.74L411.02,93.27L413.27,96.44L415.53,92.74L417.79,97.79L420.05,94.28L422.31,95.94L424.57,91.49L426.82,92.15L429.08,88.32L431.34,90.07L433.6,85.3L435.86,87.92L438.12,86.39L442.63,96.38L444.89,104.17L449.41,124.07L451.67,127.66L453.92,131.18L456.18,124.67L458.44,121.89L460.7,110.38L465.22,94.48L467.47,94.96L469.73,93.6L471.99,93.87L476.51,90.12L478.77,86.73L481.02,84.6L483.28,80.05L485.54,77.24L487.8,75.88L490.06,77.21L492.32,82.03L494.57,86.46L496.83,94.21L499.09,100.02L501.35,103.55L503.61,104.73L505.87,98.68L512.64,73.93L514.9,63.61L517.16,60.18L519.42,58.24L521.67,59.73L523.93,59.36L526.19,59.72L528.45,57.89L530.71,56.94L532.97,51.47L535.22,49.82L537.48,44.41L542,36.67L544.26,35.95L546.52,37.09L548.77,43.3L551.03,46.69L553.29,56.75L555.55,60.68L557.81,67.49L560.07,72.94L562.32,71.82L564.58,72.39L566.84,69.26L569.1,61.93L571.36,60.07L573.62,56.34L575.88,58.72L578.13,59.24L580.39,63.21L584.91,64.19L587.17,60.69L591.68,57.81L593.94,58.84L596.2,56.38L598.46,59.74L600.72,63.79L602.97,73.38L607.49,93.02L609.75,94.49L612.01,100.54L614.27,97.45L621.04,69.71L623.3,63.89L627.82,60.45L630.07,68.05L632.33,68.93L634.59,71.66L636.85,71.6L639.11,73.08L641.37,69.42L643.63,64.17L645.88,66.11L648.14,60.38L650.4,59.24L652.66,63.71L657.17,84.29L659.43,87.35L661.69,93.99L663.95,97.48L666.21,98.76L668.47,97.1L670.72,96.22L672.98,81.88L675.24,80.93L677.5,67.03L679.76,71.54L682.02,61.81L684.27,60.98L686.53,56.48L688.79,56.51L691.05,54.56L695.57,53.44L697.82,50.3L700.08,50.85L702.34,49.03L706.86,59.75L709.12,70.1L711.38,74.44L713.63,81.25L715.89,82.85L718.15,82.67L720.41,81.73L722.67,83.47L727.18,67.8L729.44,62.71L731.7,61.62L733.96,62.49L738.47,65.08L740.73,66.29L745.25,66.44L747.51,65.17L749.77,63.64L752.02,60.92L756.54,55.74L758.8,55.77L761.06,56.76L763.32,62.45L767.83,78.59L770.09,90.22L774.61,103.54L776.87,119.73L779.13,121.85L781.38,130.38L783.64,113.83L785.9,121.71L788.16,110.29L790.42,119.51L792.67,110.45L794.93,119.25L797.19,110.65L799.45,119.6L801.71,106.54L803.97,115.08L806.22,98.67L808.48,109.46L810.74,96.44L813,107.99L815.26,98.12L817.52,111.58L819.77,110.82L822.03,136.18L824.29,136.14L826.55,152.19L828.81,145.36L831.07,157.68L833.32,146.41L835.58,148.92L837.84,129.47L840.1,126.74L842.36,111.48L844.62,112.58L846.88,102.56L849.13,109.11L851.39,100.97L853.65,107.26L855.91,94.23L858.17,100.71L860.42,85.84L862.68,93.27L864.94,79.55L867.2,88.67L869.46,77.8L871.72,95.15L873.97,89.83L876.23,114.58L878.49,107.71L880.75,127.48L883.01,113.54L885.27,128.29L887.52,112.17L889.78,121.68L892.04,104.59L894.3,109.99L896.56,92.84L898.82,97.75L901.07,87.73L903.33,95.1L905.59,86.4L907.85,88.94L910.11,81.01L912.37,84.53L914.63,77.8L916.88,82.13L919.14,75.49L921.4,79.65L923.66,75.21L925.92,83.25L928.17,84.3L930.43,95.99L932.69,100.15L934.95,109.26L937.21,106.82L939.47,110.35L941.72,101.46L943.98,97.78L946.24,88.57L948.5,84.47L950.76,78.38L953.02,77.62L955.27,76.19L957.53,77.49L959.79,76.05L962.05,77.24L964.31,73.45L966.57,74.04L971.08,69.96L973.34,65.01L975.6,62.15L977.86,61.61L980.12,64.2L982.38,68.09L984.63,73.11L986.89,80.23L989.15,87.43L991.41,87.87L993.67,94.29L995.92,86.4L998.18,86.59L1000.44,76.73L1002.7,75.79L1004.96,66.46L1007.22,67.23L1009.47,63.42L1011.73,69.34L1013.99,65.96L1016.25,71.79L1018.51,66.67L1020.77,66.28L1023.02,58.43L1025.28,60.2L1027.54,55.27L1029.8,59.53L1032.06,52.46L1034.32,60.59L1036.57,61.02L1038.83,72.44L1041.09,73.81L1043.35,83.23L1045.61,83.09L1047.87,88.46L1050.13,81.82L1052.38,83.48L1054.64,75.65L1056.9,78.73L1059.16,74.78L1061.42,78.24L1063.67,76.37L1065.93,80.71L1068.19,75.69L1070.45,78.33L1072.71,74.24L1074.97,75.24L1077.22,71.23L1079.48,70.69L1081.74,67.14L1084,66.98" style="vector-effect: none; fill: none; stroke: rgb(224, 83, 18); stroke-opacity: 1; stroke-width: 1.4px; opacity: 1;"/></g><g class="points"/><g class="text"/></g></g></g></g><g class="zerolinelayer-above"/><path class="xlines-above crisp" d="M71,442.988H1156" style="fill: none; stroke-width: 1px; stroke: rgb(232, 228, 222); stroke-opacity: 1;"/><path class="ylines-above crisp" d="M71.5,276.50399999999996V442.488" style="fill: none; stroke-width: 1px; stroke: rgb(232, 228, 222); stroke-opacity: 1;"/><g class="overlines-above"/><g class="xaxislayer-above"/><g class="yaxislayer-above"><g class="y2tick"><text text-anchor="end" x="67.8" y="5.6" transform="translate(0,430.47399999999993)" style="font-family: Inter; font-size: 16px; fill: rgb(26, 26, 26); fill-opacity: 1; white-space: pre;">200</text></g><g class="y2tick"><text text-anchor="end" x="67.8" y="5.6" style="font-family: Inter; font-size: 16px; fill: rgb(26, 26, 26); fill-opacity: 1; white-space: pre;" transform="translate(0,383.484)">250</text></g><g class="y2tick"><text text-anchor="end" x="67.8" y="5.6" style="font-family: Inter; font-size: 16px; fill: rgb(26, 26, 26); fill-opacity: 1; white-space: pre;" transform="translate(0,336.49399999999997)">300</text></g><g class="y2tick"><text text-anchor="end" x="67.8" y="5.6" style="font-family: Inter; font-size: 16px; fill: rgb(26, 26, 26); fill-opacity: 1; white-space: pre;" transform="translate(0,289.50399999999996)">350</text></g></g><g class="overaxes-above"/></g><g class="subplot x3y3"><g class="layer-subplot"><g class="shapelayer"/><g class="imagelayer"/></g><g class="minor-gridlayer"><g class="x3"/><g class="y3"/></g><g class="gridlayer"><g class="x3"/><g class="y3"><path class="y3grid crisp" transform="translate(0,628.748)" d="M72,0h1084" style="stroke: rgb(232, 228, 222); stroke-opacity: 1; stroke-width: 1px;"/><path class="y3grid crisp" transform="translate(0,589.638)" d="M72,0h1084" style="stroke: rgb(232, 228, 222); stroke-opacity: 1; stroke-width: 1px;"/><path class="y3grid crisp" transform="translate(0,550.528)" d="M72,0h1084" style="stroke: rgb(232, 228, 222); stroke-opacity: 1; stroke-width: 1px;"/><path class="y3grid crisp" transform="translate(0,511.42800000000005)" d="M72,0h1084" style="stroke: rgb(232, 228, 222); stroke-opacity: 1; stroke-width: 1px;"/></g></g><g class="zerolinelayer"/><g class="layer-between"><g class="shapelayer"/><g class="imagelayer"/></g><path class="xlines-below"/><path class="ylines-below"/><g class="overlines-below"/><g class="xaxislayer-below"/><g class="yaxislayer-below"/><g class="overaxes-below"/><g class="overplot"><g class="x3y3" transform="translate(72,482.00800000000004)" clip-path="url(#clipdb9f49x3y3plot)"><g class="scatterlayer mlayer"><g class="trace scatter trace146c57" style="stroke-miterlimit: 2; opacity: 1;"><g class="fills"/><g class="errorbars"/><g class="lines"><path class="js-line" d="M0,95.11L4.52,87.29L6.77,90.42L9.03,91.2L11.29,93.55L15.81,90.42L18.07,93.55L20.32,92.77L22.58,99.03L24.84,97.46L27.1,101.37L29.36,103.72L31.62,110.76L36.13,133.44L38.39,142.04L40.65,145.17L42.91,149.86L45.17,149.86L47.42,152.21L49.68,148.3L51.94,138.13L56.46,103.72L58.72,100.59L60.97,102.15L63.23,96.68L65.49,101.37L67.75,102.94L70.01,96.68L72.27,100.59L74.52,104.5L76.78,109.98L79.04,111.54L81.3,110.76L85.82,142.82L88.07,146.74L90.33,146.74L92.59,148.3L94.85,148.3L97.11,140.48L103.88,119.36L106.14,118.58L110.66,81.04L112.92,75.56L115.17,71.65L117.43,71.65L119.69,78.69L121.95,80.25L124.21,82.6L126.47,87.29L128.72,90.42L130.98,89.64L133.24,97.46L135.5,100.59L137.76,102.94L140.02,99.03L142.27,99.03L144.53,102.94L146.79,111.54L149.05,110.76L151.31,108.41L153.57,107.63L158.08,108.41L160.34,110.76L164.86,81.04L167.12,74.78L169.38,81.04L171.63,84.95L173.89,84.95L176.15,88.08L182.92,92.77L185.18,96.68L187.44,99.03L189.7,109.98L191.96,135L194.22,149.86L196.47,153.77L198.73,154.56L205.51,157.68L207.77,154.56L210.02,150.65L212.28,138.91L214.54,125.62L216.8,107.63L219.06,88.86L221.32,87.29L228.09,110.76L230.35,110.76L232.61,115.45L234.87,117.01L237.13,117.01L239.38,112.32L243.9,114.67L246.16,128.75L248.42,140.48L250.67,135L255.19,138.91L257.45,135.79L259.71,135L261.97,132.66L264.22,130.31L266.48,120.92L268.74,111.54L271,88.08L273.26,91.2L275.52,77.91L277.77,76.34L280.03,81.04L282.29,85.73L284.55,81.04L286.81,84.17L289.07,81.04L291.32,81.82L293.58,81.04L295.84,85.73L298.1,87.29L302.62,109.19L304.88,105.28L309.39,113.89L311.65,110.76L316.17,106.85L318.42,106.85L322.94,102.94L325.2,89.64L327.46,77.13L329.72,72.43L331.97,74.78L334.23,81.04L336.49,88.86L338.75,84.95L341.01,86.51L343.27,91.99L345.52,99.03L347.78,100.59L350.04,99.81L352.3,106.85L354.56,124.84L356.82,131.09L359.07,132.66L361.33,139.7L363.59,142.04L365.85,142.82L368.11,138.13L370.37,135.79L372.63,133.44L374.88,128.75L377.14,120.14L379.4,106.85L381.66,92.77L383.92,84.17L390.69,100.59L392.95,102.94L395.21,102.94L397.47,101.37L399.72,101.37L401.98,99.03L404.24,99.81L406.5,110.76L408.76,119.36L411.02,124.05L413.27,126.4L415.53,127.18L422.31,142.82L424.57,134.22L426.82,122.49L429.08,102.94L431.34,84.95L433.6,76.34L435.86,66.96L438.12,70.87L440.38,70.09L442.63,74.78L447.15,91.2L449.41,96.68L451.67,99.81L453.92,99.81L458.44,104.5L460.7,112.32L462.96,127.18L465.22,132.66L469.73,135L471.99,134.22L476.51,120.92L478.77,117.8L481.02,110.76L483.28,97.46L485.54,86.51L487.8,68.52L490.06,51.32L492.32,45.84L494.57,45.06L496.83,54.44L499.09,66.18L501.35,71.65L503.61,77.13L505.87,80.25L508.13,81.82L510.38,79.47L512.64,70.87L514.9,75.56L517.16,92.77L519.42,99.03L523.93,81.82L526.19,70.09L528.45,66.18L530.71,66.96L532.97,59.14L535.22,46.62L537.48,39.58L539.74,26.29L544.26,8.3L546.52,13.77L548.77,17.68L551.03,25.51L553.29,42.71L555.55,51.32L560.07,65.39L562.32,68.52L566.84,56.01L569.1,62.27L571.36,77.91L573.62,85.73L575.88,88.86L578.13,84.95L580.39,75.56L582.65,71.65L589.42,58.36L591.68,51.32L593.94,45.06L596.2,83.38L598.46,58.36L600.72,53.66L602.97,12.21L605.23,20.81L607.49,29.42L609.75,34.11L612.01,41.15L614.27,43.49L616.52,45.84L618.78,46.62L621.04,39.58L623.3,44.28L625.56,56.79L627.82,59.92L630.07,58.36L632.33,61.48L634.59,59.92L636.85,51.32L639.11,47.41L641.37,40.37L643.63,40.37L645.88,43.49L652.66,31.76L654.92,29.42L659.43,39.58L661.69,50.53L666.21,62.27L668.47,67.74L670.72,70.09L672.98,69.3L675.24,68.52L677.5,70.09L682.02,95.11L684.27,101.37L686.53,105.28L688.79,110.76L695.57,106.85L697.82,106.85L702.34,98.24L704.6,87.29L706.86,89.64L709.12,84.17L711.38,87.29L713.63,86.51L715.89,89.64L718.15,98.24L720.41,102.94L722.67,103.72L724.92,103.72L727.18,105.28L729.44,103.72L731.7,103.72L733.96,105.28L736.22,108.41L738.47,105.28L740.73,106.06L747.51,106.06L749.77,101.37L754.28,94.33L756.54,96.68L761.06,102.15L763.32,95.11L765.57,94.33L767.83,99.81L770.09,105.28L772.35,106.85L781.38,103.72L783.64,104.5L785.9,106.06L788.16,104.5L790.42,97.46L792.67,93.55L794.93,95.9L797.19,106.06L801.71,109.98L803.97,106.85L806.22,102.94L808.48,97.46L810.74,95.9L813,96.68L815.26,96.68L817.52,91.99L819.77,86.51L822.03,83.38L826.55,95.11L828.81,100.59L833.32,104.5L835.58,106.06L842.36,109.19L844.62,105.28L846.88,105.28L849.13,108.41L851.39,114.67L853.65,117.8L858.17,111.54L860.42,106.85L862.68,101.37L864.94,98.24L869.46,77.13L871.72,74L873.97,74L876.23,80.25L880.75,92.77L883.01,94.33L885.27,95.9L887.52,94.33L889.78,91.99L892.04,91.99L901.07,107.63L903.33,109.19L905.59,109.98L907.85,114.67L910.11,117.01L912.37,117.8L914.63,112.32L916.88,103.72L921.4,76.34L923.66,60.7L925.92,57.57L928.17,62.27L930.43,67.74L932.69,77.91L934.95,81.04L937.21,81.04L941.72,75.56L943.98,67.74L946.24,58.36L948.5,56.01L950.76,58.36L953.02,59.14L959.79,67.74L962.05,63.05L964.31,59.14L966.57,62.27L968.82,57.57L971.08,46.62L973.34,39.58L975.6,35.67L977.86,30.98L980.12,30.98L982.38,30.2L984.63,30.98L989.15,38.8L991.41,45.84L993.67,52.88L995.92,52.1L1000.44,38.02L1002.7,37.24L1004.96,39.58L1007.22,45.06L1009.47,50.53L1011.73,51.32L1013.99,53.66L1016.25,51.32L1018.51,52.88L1020.77,51.32L1023.02,49.75L1025.28,42.71L1027.54,42.71L1029.8,36.46L1032.06,30.98L1034.32,30.2L1038.83,37.24L1041.09,42.71L1043.35,47.41L1045.61,54.44L1047.87,63.83L1050.13,68.52L1052.38,65.39L1054.64,64.61L1059.16,89.64L1061.42,98.24L1063.67,97.46L1065.93,94.33L1068.19,87.29L1070.45,85.73L1072.71,87.29L1074.97,94.33L1079.48,93.55L1081.74,90.42L1084,73.22" style="vector-effect: none; fill: none; stroke: rgb(154, 160, 166); stroke-opacity: 1; stroke-width: 1.4px; opacity: 1;"/></g><g class="points"/><g class="text"/></g><g class="trace scatter trace5ea685" style="stroke-miterlimit: 2; opacity: 1;"><g class="fills"/><g class="errorbars"/><g class="lines"><path class="js-line" d="M0,85.19L2.26,82.3L4.52,81.48L6.77,83.65L9.03,87.72L18.07,103.89L20.32,107.47L24.84,111.01L27.1,111.32L29.36,109.92L31.62,112.03L33.88,114.07L36.13,118.17L40.65,120.08L42.91,119.42L45.17,118.43L47.42,114.4L49.68,109.91L51.94,102.55L54.2,99.26L56.46,98.2L60.97,97.92L63.23,98.87L65.49,101.39L67.75,105.11L70.01,107.7L72.27,113.05L74.52,113L76.78,115.4L79.04,114.01L81.3,114.33L83.56,112.07L85.82,112.53L88.07,111.19L90.33,114.11L94.85,115.35L97.11,114.09L99.37,113.82L101.63,108.14L106.14,95.67L108.4,92.38L110.66,88.99L112.92,90.59L115.17,94.58L117.43,95.55L119.69,100.45L121.95,102.63L124.21,106.51L126.47,107.07L133.24,108.24L135.5,107.83L137.76,104.65L140.02,105.25L142.27,106.11L144.53,109.15L146.79,108.72L149.05,109.37L151.31,106.43L153.57,105.51L158.08,102.46L160.34,97.74L164.86,92.43L167.12,92.67L171.63,99.01L173.89,103.08L178.41,106.35L180.67,106.68L182.92,105.81L185.18,105.83L187.44,104.92L189.7,105.5L191.96,103.38L194.22,105.55L196.47,107.04L198.73,110.04L200.99,111.14L203.25,110.07L205.51,110.89L207.77,109.33L212.28,103.88L214.54,95.41L216.8,91.51L219.06,89.34L221.32,88.77L223.57,90.7L228.09,96.18L230.35,100.39L234.87,104.52L237.13,104.36L243.9,101.93L246.16,102.24L248.42,104.57L250.67,108.99L252.93,110.22L255.19,109.13L257.45,109.29L259.71,105.63L261.97,99.3L264.22,95.99L268.74,94.76L271,90.19L273.26,85.13L275.52,83.73L277.77,82.69L280.03,78.03L282.29,82.86L284.55,83.3L286.81,88.99L289.07,92.51L291.32,97.23L293.58,97.56L295.84,100.93L298.1,98.91L300.36,101.95L302.62,97.38L304.88,102.13L307.13,101.29L309.39,105.61L311.65,102.57L313.91,103.95L316.17,99.15L318.42,98.38L320.68,93.47L322.94,91.05L325.2,87.01L327.46,81.76L329.72,81.26L331.97,80.62L334.23,82.76L336.49,83.3L338.75,86.3L341.01,88.93L343.27,93.32L345.52,99.92L347.78,102.63L350.04,105.16L352.3,105.88L359.07,106.49L361.33,107.73L363.59,106.66L365.85,109.69L368.11,107.38L370.37,110.16L372.63,107.13L374.88,110.81L377.14,107.66L379.4,110.5L381.66,104.07L383.92,105.78L386.17,101.36L388.43,103.66L390.69,100.68L392.95,102.87L395.21,102.99L397.47,105.2L404.24,118.5L406.5,121.24L408.76,121.37L411.02,122.93L413.27,122.09L415.53,123.78L420.05,117.81L422.31,110.89L424.57,111.41L426.82,108.47L431.34,103.22L433.6,99.54L440.38,93.31L442.63,90.06L444.89,98.06L447.15,98.16L451.67,105.26L453.92,111.58L458.44,115.97L460.7,114.26L465.22,108.89L467.47,112.26L469.73,110.96L471.99,108.18L476.51,101.68L478.77,95.82L481.02,93.93L483.28,86.79L485.54,85.3L487.8,79.83L490.06,79.97L492.32,75.3L494.57,82.96L496.83,82.91L499.09,94.01L501.35,95.04L503.61,100.15L505.87,99.08L508.13,99.56L510.38,95.82L512.64,90.97L514.9,84.26L517.16,84.26L519.42,81.68L521.67,81.79L523.93,74.55L526.19,76.82L528.45,69.86L530.71,73.07L532.97,67.33L535.22,70.82L537.48,61.87L539.74,66.08L542,58.1L544.26,63.07L546.52,59.42L548.77,65.44L551.03,63.94L553.29,68.31L555.55,65.36L557.81,68.56L560.07,66.35L562.32,66.66L564.58,62.24L566.84,62.82L569.1,57.78L571.36,57.81L573.62,55.4L575.88,58.96L578.13,53.93L580.39,55.02L582.65,50.32L584.91,51.31L587.17,47.6L589.42,49.47L591.68,45.13L593.94,47.49L596.2,42.39L607.49,64.21L609.75,65.46L612.01,67.21L614.27,63.29L618.78,56.81L621.04,56.56L623.3,53.28L625.56,53.51L627.82,51.9L630.07,55.65L632.33,58.77L634.59,67.45L636.85,66.13L639.11,66.5L641.37,60.77L643.63,57.53L645.88,51.48L648.14,48.91L650.4,44.59L652.66,44.94L654.92,45.09L657.17,49.99L661.69,60.39L663.95,67.54L666.21,72.41L668.47,74.33L670.72,76.63L672.98,74.63L675.24,75.67L677.5,70.57L679.76,70.33L682.02,67.06L684.27,70.32L686.53,65.53L688.79,66.09L691.05,60.95L693.31,63.78L695.57,59.84L697.82,64.95L700.08,56.14L702.34,63.7L704.6,53.3L706.86,56.63L709.12,47.34L711.38,54.07L713.63,47.01L715.89,58.74L718.15,54.58L720.41,70.54L722.67,69.48L724.92,77.36L727.18,74.62L729.44,80.39L731.7,76.64L733.96,79.21L736.22,75.53L738.47,81.04L740.73,80.36L742.99,84.6L745.25,81.17L747.51,86.69L749.77,81.12L752.02,84.95L754.28,77.33L756.54,84.45L758.8,75.25L761.06,86.11L763.32,81.31L765.57,89.41L767.83,86.68L770.09,99.77L772.35,98.09L774.61,108.24L776.87,106.97L779.13,113.41L781.38,109.13L783.64,112.38L785.9,106.09L788.16,109.2L790.42,103.57L792.67,110.39L794.93,106L797.19,112.35L799.45,105.54L801.71,108.71L803.97,98.89L806.22,99.46L808.48,93.1L810.74,97.13L813,94.66L815.26,97.99L817.52,92.96L819.77,98.6L822.03,98.12L828.81,113.51L831.07,115.33L833.32,118.34L835.58,118.2L837.84,118.54L840.1,112.56L842.36,113.21L844.62,109.29L846.88,110.12L849.13,109.04L851.39,111.54L853.65,105.33L855.91,105.11L858.17,98.45L860.42,96.68L862.68,92.91L869.46,84.59L871.72,85.13L873.97,83.66L876.23,90.82L878.49,94.29L880.75,101.63L885.27,106.69L887.52,106.68L892.04,102.13L894.3,97.29L896.56,91.95L898.82,90.36L903.33,91.61L905.59,89.07L907.85,88.75L910.11,85.39L912.37,84.86L914.63,83.05L916.88,80.55L919.14,75.14L921.4,73.8L923.66,69.37L925.92,73.07L928.17,74.73L930.43,82.94L932.69,84.67L934.95,90.49L937.21,88.56L939.47,90.57L941.72,85.84L943.98,84.11L946.24,79.42L948.5,77.73L950.76,71.87L953.02,73.92L955.27,72.12L957.53,78.39L959.79,75.94L962.05,79.75L964.31,75.76L966.57,77.22L968.82,69.42L971.08,69.51L973.34,59.23L975.6,58L977.86,52.43L980.12,56.81L982.38,58.21L989.15,76.83L991.41,78.47L993.67,81.32L995.92,78.28L998.18,78.34L1000.44,73.34L1002.7,74.01L1004.96,67.71L1007.22,69.76L1009.47,69.55L1011.73,75.64L1013.99,75.5L1016.25,76.77L1018.51,73.27L1020.77,72.68L1023.02,66.28L1025.28,61.96L1027.54,55.47L1032.06,54.45L1034.32,56.93L1036.57,57.94L1038.83,64.35L1043.35,74.86L1045.61,74.57L1047.87,77.14L1050.13,74.57L1052.38,74.95L1054.64,71.38L1056.9,71.06L1059.16,66.88L1061.42,69.01L1063.67,68.21L1065.93,70.69L1068.19,67.7L1070.45,66.85L1072.71,66.9L1077.22,63.61L1079.48,61.99L1081.74,56.85L1084,54.7" style="vector-effect: none; fill: none; stroke: rgb(224, 83, 18); stroke-opacity: 1; stroke-width: 1.4px; opacity: 1;"/></g><g class="points"/><g class="text"/></g></g></g></g><g class="zerolinelayer-above"/><path class="xlines-above crisp" d="M71,648.492H1156" style="fill: none; stroke-width: 1px; stroke: rgb(232, 228, 222); stroke-opacity: 1;"/><path class="ylines-above crisp" d="M71.5,482.00800000000004V647.992" style="fill: none; stroke-width: 1px; stroke: rgb(232, 228, 222); stroke-opacity: 1;"/><g class="overlines-above"/><g class="xaxislayer-above"/><g class="yaxislayer-above"><g class="y3tick"><text text-anchor="end" x="67.8" y="5.6" transform="translate(0,628.748)" style="font-family: Inter; font-size: 16px; fill: rgb(26, 26, 26); fill-opacity: 1; white-space: pre;">300</text></g><g class="y3tick"><text text-anchor="end" x="67.8" y="5.6" style="font-family: Inter; font-size: 16px; fill: rgb(26, 26, 26); fill-opacity: 1; white-space: pre;" transform="translate(0,589.638)">350</text></g><g class="y3tick"><text text-anchor="end" x="67.8" y="5.6" style="font-family: Inter; font-size: 16px; fill: rgb(26, 26, 26); fill-opacity: 1; white-space: pre;" transform="translate(0,550.528)">400</text></g><g class="y3tick"><text text-anchor="end" x="67.8" y="5.6" style="font-family: Inter; font-size: 16px; fill: rgb(26, 26, 26); fill-opacity: 1; white-space: pre;" transform="translate(0,511.42800000000005)">450</text></g></g><g class="overaxes-above"/></g><g class="subplot x4y4"><g class="layer-subplot"><g class="shapelayer"/><g class="imagelayer"/></g><g class="minor-gridlayer"><g class="x4"/><g class="y4"/></g><g class="gridlayer"><g class="x4"/><g class="y4"><path class="y4grid crisp" transform="translate(0,833.4019999999999)" d="M72,0h1084" style="stroke: rgb(232, 228, 222); stroke-opacity: 1; stroke-width: 1px;"/><path class="y4grid crisp" transform="translate(0,794.092)" d="M72,0h1084" style="stroke: rgb(232, 228, 222); stroke-opacity: 1; stroke-width: 1px;"/><path class="y4grid crisp" transform="translate(0,754.7819999999999)" d="M72,0h1084" style="stroke: rgb(232, 228, 222); stroke-opacity: 1; stroke-width: 1px;"/><path class="y4grid crisp" transform="translate(0,715.472)" d="M72,0h1084" style="stroke: rgb(232, 228, 222); stroke-opacity: 1; stroke-width: 1px;"/></g></g><g class="zerolinelayer"/><g class="layer-between"><g class="shapelayer"/><g class="imagelayer"/></g><path class="xlines-below"/><path class="ylines-below"/><g class="overlines-below"/><g class="xaxislayer-below"/><g class="yaxislayer-below"/><g class="overaxes-below"/><g class="overplot"><g class="x4y4" transform="translate(72,687.512)" clip-path="url(#clipdb9f49x4y4plot)"><g class="scatterlayer mlayer"><g class="trace scatter trace6eccb8" style="stroke-miterlimit: 2; opacity: 1;"><g class="fills"/><g class="errorbars"/><g class="lines"><path class="js-line" d="M0,75.13L2.26,90.85L4.52,98.72L9.03,114.44L11.29,94.79L13.55,79.06L15.81,82.99L18.07,90.85L20.32,59.4L22.58,59.4L24.84,67.27L29.36,102.65L31.62,106.58L33.88,106.58L36.13,102.65L38.39,86.92L40.65,79.06L42.91,98.72L45.17,110.51L47.42,110.51L49.68,106.58L54.2,106.58L56.46,110.51L58.72,114.44L60.97,122.3L63.23,122.3L65.49,102.65L67.75,79.06L70.01,90.85L72.27,110.51L74.52,114.44L76.78,118.37L79.04,126.24L81.3,118.37L83.56,114.44L85.82,106.58L88.07,94.79L90.33,106.58L92.59,102.65L94.85,75.13L97.11,79.06L99.37,102.65L101.63,102.65L103.88,98.72L106.14,98.72L110.66,82.99L112.92,86.92L117.43,94.79L119.69,71.2L121.95,47.61L124.21,43.68L126.47,59.4L128.72,39.75L130.98,39.75L133.24,43.68L135.5,51.54L137.76,43.68L140.02,47.61L142.27,47.61L144.53,51.54L146.79,20.09L149.05,8.3L151.31,12.23L155.82,35.82L158.08,39.75L160.34,55.47L162.6,59.4L164.86,63.34L167.12,63.34L169.38,63.34L171.63,71.2L173.89,71.2L176.15,59.4L178.41,51.54L180.67,51.54L182.92,43.68L185.18,63.34L187.44,67.27L189.7,63.34L191.96,47.61L194.22,63.34L196.47,67.27L198.73,67.27L200.99,67.27L203.25,63.34L205.51,47.61L207.77,51.54L216.8,102.65L219.06,102.65L221.32,110.51L223.57,110.51L225.83,114.44L228.09,102.65L230.35,98.72L232.61,86.92L234.87,86.92L237.13,94.79L239.38,90.85L241.64,94.79L243.9,86.92L246.16,86.92L248.42,86.92L250.67,79.06L252.93,79.06L255.19,90.85L257.45,98.72L259.71,102.65L261.97,118.37L264.22,126.24L266.48,134.1L268.74,126.24L273.26,134.1L275.52,134.1L277.77,126.24L280.03,122.3L284.55,130.17L286.81,130.17L289.07,126.24L291.32,114.44L293.58,118.37L295.84,110.51L298.1,102.65L300.36,114.44L302.62,106.58L304.88,110.51L307.13,110.51L309.39,102.65L311.65,102.65L313.91,82.99L316.17,94.79L318.42,98.72L320.68,94.79L322.94,98.72L327.46,90.85L329.72,90.85L331.97,82.99L334.23,86.92L336.49,90.85L338.75,71.2L341.01,67.27L343.27,75.13L345.52,43.68L347.78,59.4L350.04,63.34L352.3,35.82L354.56,43.68L356.82,47.61L359.07,71.2L361.33,67.27L363.59,59.4L365.85,67.27L368.11,67.27L370.37,75.13L377.14,63.34L379.4,63.34L383.92,63.34L386.17,67.27L388.43,75.13L390.69,79.06L392.95,79.06L395.21,75.13L397.47,47.61L399.72,39.75L401.98,35.82L404.24,39.75L406.5,51.54L408.76,55.47L411.02,59.4L413.27,59.4L415.53,75.13L417.79,67.27L420.05,71.2L422.31,71.2L424.57,86.92L426.82,90.85L429.08,90.85L431.34,102.65L435.86,82.99L438.12,86.92L440.38,98.72L442.63,98.72L447.15,63.34L449.41,67.27L451.67,59.4L453.92,71.2L456.18,75.13L458.44,86.92L460.7,94.79L462.96,86.92L467.47,94.79L469.73,102.65L471.99,102.65L474.25,90.85L478.77,71.2L481.02,82.99L483.28,94.79L485.54,82.99L487.8,86.92L490.06,94.79L492.32,90.85L494.57,82.99L496.83,79.06L499.09,47.61L501.35,35.82L503.61,47.61L508.13,67.27L510.38,71.2L512.64,67.27L514.9,75.13L517.16,75.13L519.42,63.34L521.67,59.4L523.93,47.61L526.19,43.68L528.45,31.89L530.71,31.89L532.97,67.27L537.48,86.92L539.74,86.92L544.26,86.92L546.52,82.99L548.77,86.92L551.03,94.79L553.29,102.65L555.55,90.85L557.81,67.27L560.07,79.06L562.32,94.79L564.58,98.72L566.84,102.65L569.1,102.65L571.36,102.65L573.62,98.72L575.88,114.44L578.13,122.3L580.39,118.37L582.65,110.51L584.91,110.51L587.17,118.37L591.68,118.37L593.94,114.44L596.2,106.58L598.46,94.79L600.72,98.72L602.97,98.72L605.23,90.85L607.49,98.72L609.75,86.92L612.01,86.92L614.27,86.92L616.52,110.51L621.04,134.1L623.3,134.1L625.56,130.17L627.82,138.03L630.07,138.03L632.33,141.96L634.59,122.3L636.85,126.24L639.11,134.1L641.37,138.03L643.63,134.1L645.88,134.1L648.14,122.3L650.4,134.1L652.66,138.03L654.92,130.17L657.17,126.24L659.43,114.44L661.69,106.58L663.95,102.65L666.21,110.51L668.47,126.24L670.72,130.17L672.98,118.37L675.24,122.3L677.5,122.3L679.76,134.1L682.02,138.03L684.27,134.1L686.53,126.24L691.05,90.85L693.31,67.27L697.82,106.58L700.08,114.44L702.34,114.44L704.6,122.3L709.12,130.17L711.38,126.24L713.63,122.3L715.89,90.85L718.15,82.99L720.41,90.85L722.67,114.44L724.92,114.44L727.18,102.65L729.44,106.58L731.7,110.51L733.96,118.37L736.22,114.44L738.47,118.37L740.73,118.37L742.99,110.51L745.25,94.79L747.51,106.58L749.77,126.24L752.02,134.1L765.57,134.1L767.83,130.17L770.09,110.51L772.35,102.65L774.61,102.65L776.87,110.51L779.13,106.58L781.38,110.51L783.64,122.3L785.9,126.24L788.16,122.3L790.42,122.3L792.67,118.37L794.93,134.1L797.19,138.03L799.45,126.24L801.71,145.89L803.97,145.89L806.22,126.24L808.48,126.24L810.74,134.1L813,138.03L815.26,134.1L817.52,141.96L819.77,141.96L822.03,138.03L824.29,130.17L826.55,130.17L828.81,122.3L831.07,102.65L835.58,86.92L837.84,98.72L840.1,102.65L842.36,102.65L844.62,102.65L846.88,110.51L851.39,138.03L853.65,134.1L858.17,141.96L860.42,141.96L871.72,122.3L873.97,126.24L876.23,134.1L878.49,134.1L883.01,141.96L885.27,122.3L889.78,130.17L892.04,122.3L896.56,122.3L898.82,130.17L901.07,134.1L903.33,145.89L905.59,145.89L907.85,130.17L910.11,138.03L912.37,149.82L914.63,157.68L916.88,157.68L919.14,157.68L921.4,149.82L923.66,134.1L925.92,126.24L928.17,118.37L930.43,114.44L932.69,79.06L934.95,82.99L937.21,98.72L939.47,102.65L943.98,102.65L946.24,106.58L953.02,106.58L955.27,118.37L957.53,122.3L959.79,122.3L962.05,106.58L964.31,110.51L966.57,126.24L968.82,134.1L975.6,122.3L977.86,126.24L980.12,130.17L982.38,122.3L984.63,122.3L986.89,114.44L989.15,122.3L991.41,134.1L993.67,130.17L995.92,118.37L998.18,126.24L1000.44,126.24L1002.7,130.17L1004.96,130.17L1007.22,122.3L1009.47,134.1L1011.73,134.1L1013.99,138.03L1016.25,145.89L1018.51,141.96L1020.77,145.89L1023.02,141.96L1027.54,134.1L1029.8,134.1L1034.32,134.1L1036.57,138.03L1038.83,138.03L1041.09,149.82L1043.35,153.75L1045.61,149.82L1047.87,157.68L1050.13,153.75L1052.38,145.89L1054.64,149.82L1056.9,141.96L1059.16,141.96L1061.42,141.96L1063.67,153.75L1065.93,149.82L1068.19,138.03L1070.45,122.3L1072.71,134.1L1074.97,141.96L1077.22,138.03L1079.48,138.03L1081.74,141.96L1084,149.82" style="vector-effect: none; fill: none; stroke: rgb(154, 160, 166); stroke-opacity: 1; stroke-width: 1.4px; opacity: 1;"/></g><g class="points"/><g class="text"/></g><g class="trace scatter traceff7c6b" style="stroke-miterlimit: 2; opacity: 1;"><g class="fills"/><g class="errorbars"/><g class="lines"><path class="js-line" d="M0,23.19L2.26,25.34L4.52,24.06L6.77,25.81L9.03,25.95L15.81,30.04L18.07,32.71L20.32,32.64L22.58,38.23L24.84,38.38L27.1,45.22L29.36,43.84L31.62,47.66L33.88,46.53L36.13,51.06L38.39,50.48L40.65,55.14L42.91,55.98L45.17,59.36L47.42,59.35L49.68,63.86L51.94,64.77L54.2,68.76L56.46,69.88L58.72,73.81L60.97,75.34L63.23,79.36L65.49,81.95L67.75,86.58L70.01,88.59L72.27,94.36L74.52,95.29L76.78,97.26L83.56,96.23L85.82,93.98L88.07,94.72L90.33,93.48L94.85,90.32L97.11,86.39L99.37,85.38L101.63,82.97L106.14,83.6L108.4,86.95L110.66,86.54L112.92,87.61L115.17,86.99L117.43,87.54L121.95,85.78L124.21,84.28L133.24,89.37L135.5,87.52L137.76,84.81L140.02,88.06L142.27,98.81L144.53,96.15L146.79,96.51L149.05,93.32L153.57,96.19L155.82,96.29L158.08,94.1L160.34,89.38L162.6,89.85L164.86,87.06L167.12,87.56L169.38,82.31L171.63,84.13L173.89,77.67L176.15,79.48L178.41,71.04L180.67,73.79L182.92,64.02L185.18,66.69L187.44,54.99L189.7,59.06L191.96,48.12L194.22,54.78L196.47,43.64L198.73,49.71L200.99,38.54L203.25,44.28L205.51,33.21L207.77,38.72L210.02,27.28L212.28,32.01L214.54,18.73L216.8,27.78L219.06,18.81L221.32,26.64L223.57,20.05L225.83,26.09L228.09,19.23L230.35,25.3L232.61,17.9L234.87,23.08L237.13,15.94L239.38,19.91L241.64,13.78L243.9,15.49L246.16,11.99L250.67,17.66L252.93,21.62L255.19,22.34L257.45,20.58L259.71,20.39L261.97,19.42L264.22,19.52L266.48,20.42L271,26.8L273.26,24.96L282.29,25.69L284.55,28.62L286.81,28.46L289.07,35.48L291.32,38.44L293.58,49.62L295.84,57.15L298.1,72.12L300.36,65.38L302.62,78.73L304.88,66.94L307.13,80.15L309.39,68.12L311.65,82.66L313.91,71.35L316.17,83.68L318.42,72.59L320.68,89.97L322.94,77.52L325.2,100.45L327.46,87.71L329.72,106.54L331.97,93.18L334.23,114.17L336.49,98.9L338.75,117.13L341.01,102.73L343.27,117.62L345.52,103.11L347.78,116.76L350.04,108.39L352.3,117.72L354.56,111.1L356.82,118.22L359.07,110.38L361.33,118.63L363.59,114.25L365.85,119.02L368.11,115.12L370.37,120.25L372.63,118.93L374.88,119.77L377.14,118.58L379.4,120.18L381.66,118.23L383.92,118.06L386.17,114.93L388.43,116.4L390.69,114.06L392.95,115.57L395.21,113.57L397.47,116.2L399.72,113.24L401.98,115.55L404.24,111.77L406.5,113.27L408.76,109.04L411.02,112.86L413.27,109.68L415.53,114.5L417.79,111.24L420.05,113.53L422.31,108.34L424.57,109.93L426.82,105.81L429.08,108.47L431.34,105.51L433.6,108.25L435.86,105.05L438.12,108.06L440.38,104.81L442.63,108.03L444.89,103.68L447.15,106.2L449.41,106.57L451.67,122.88L453.92,118.89L456.18,116.9L458.44,109.22L460.7,117.67L462.96,110.53L465.22,108.76L467.47,109.29L469.73,114.19L471.99,106.07L474.25,108.99L476.51,105.2L478.77,108.23L481.02,104.82L483.28,107.31L485.54,104.95L487.8,106.43L490.06,104.86L492.32,105.77L496.83,105.97L499.09,107.19L501.35,107.63L503.61,110.68L505.87,109.42L508.13,111.91L510.38,110.45L512.64,113.21L514.9,112.18L517.16,115.12L519.42,114.11L521.67,117.66L523.93,116.2L526.19,120.42L528.45,118.94L530.71,122.09L532.97,119.78L535.22,122.37L537.48,120.59L539.74,124.33L542,123.17L544.26,125.13L546.52,123.3L548.77,124.73L551.03,123.32L553.29,124.42L555.55,123.1L557.81,126.08L560.07,125.43L562.32,128.32L564.58,127.61L566.84,132.25L569.1,131.05L571.36,133.26L573.62,131.32L575.88,132.54L578.13,131.56L580.39,132.54L582.65,131.37L584.91,131.96L587.17,130.94L589.42,130.79L593.94,130.47L596.2,129.13L598.46,129.13L600.72,126.59L605.23,124.11L607.49,125.55L609.75,125.58L612.01,127.19L616.52,128.61L618.78,127.66L623.3,126.92L625.56,127.36L632.33,129.07L634.59,129.44L641.37,130.35L643.63,130.67L648.14,129.4L650.4,129.43L652.66,128.21L654.92,128.04L657.17,128.55L659.43,128.25L661.69,128.05L663.95,126.59L666.21,126.2L668.47,127.92L672.98,127.37L675.24,125.05L677.5,127.36L679.76,126.32L682.02,126.79L684.27,126.03L686.53,127.26L688.79,126.37L691.05,126.41L693.31,125.19L702.34,125.41L704.6,124.25L715.89,121.19L718.15,122.4L720.41,122.32L722.67,126.11L729.44,129.04L731.7,131.23L736.22,132.97L738.47,132.32L742.99,130.65L745.25,130.98L747.51,132.23L749.77,130.84L752.02,129.86L754.28,129.87L756.54,129.97L758.8,129.28L765.57,127.12L767.83,126.84L774.61,125.21L776.87,125.29L779.13,124.54L781.38,124.87L790.42,124.95L792.67,123.99L794.93,124.64L797.19,124.38L799.45,125.15L801.71,125.08L806.22,125.6L808.48,125.71L815.26,124.11L817.52,125.04L819.77,124.8L822.03,125.37L828.81,126.43L831.07,126.63L835.58,126.73L837.84,126.69L840.1,127.86L842.36,126.88L844.62,127.63L846.88,126.46L849.13,125.9L851.39,123.62L853.65,124.43L855.91,119.99L858.17,120.05L860.42,116.36L862.68,117.19L864.94,113.5L867.2,115.41L869.46,111.83L871.72,113.91L873.97,109.53L876.23,112.41L878.49,108.6L880.75,111.25L883.01,107.38L885.27,110.07L887.52,105.97L889.78,108.77L892.04,104.12L894.3,105.87L896.56,102.29L898.82,103.59L901.07,101.04L903.33,102.62L905.59,100.02L907.85,101.55L910.11,98.26L912.37,99.5L914.63,96.4L916.88,97.84L919.14,95.39L921.4,96.59L923.66,92.19L925.92,93.85L928.17,90.56L930.43,93.33L932.69,90.11L934.95,93.55L937.21,90.34L939.47,94.12L941.72,91.13L943.98,95.24L946.24,91.74L948.5,96.25L950.76,92.61L953.02,97.75L955.27,93.63L957.53,99.18L959.79,96.51L962.05,103.62L964.31,101.43L966.57,109.08L968.82,105.46L971.08,111.26L973.34,107.19L975.6,112.1L977.86,107.22L980.12,110.34L982.38,106.62L984.63,114.12L986.89,113.21L989.15,116.32L991.41,114.53L993.67,118.05L995.92,116.37L998.18,119.8L1000.44,118.08L1002.7,121.02L1004.96,119.6L1007.22,121.43L1009.47,119.73L1011.73,121.96L1013.99,121L1016.25,123.05L1018.51,122.41L1020.77,123.52L1023.02,121.81L1025.28,121.95L1027.54,120.35L1032.06,118.01L1034.32,119.3L1038.83,121.06L1041.09,120.89L1043.35,122.85L1045.61,121.82L1050.13,124.05L1052.38,124.77L1056.9,127.53L1059.16,127.07L1061.42,128.09L1063.67,126.89L1065.93,125.62L1068.19,122.49L1072.71,122.75L1074.97,122.34L1077.22,120.03L1079.48,125.51L1081.74,127.67L1084,126.03" style="vector-effect: none; fill: none; stroke: rgb(224, 83, 18); stroke-opacity: 1; stroke-width: 1.4px; opacity: 1;"/></g><g class="points"/><g class="text"/></g></g></g></g><g class="zerolinelayer-above"/><path class="xlines-above crisp" d="M71,853.996H1156" style="fill: none; stroke-width: 1px; stroke: rgb(232, 228, 222); stroke-opacity: 1;"/><path class="ylines-above crisp" d="M71.5,687.512V853.496" style="fill: none; stroke-width: 1px; stroke: rgb(232, 228, 222); stroke-opacity: 1;"/><g class="overlines-above"/><g class="xaxislayer-above"/><g class="yaxislayer-above"><g class="y4tick"><text text-anchor="end" x="67.8" y="5.6" transform="translate(0,833.4019999999999)" style="font-family: Inter; font-size: 16px; fill: rgb(26, 26, 26); fill-opacity: 1; white-space: pre;">40</text></g><g class="y4tick"><text text-anchor="end" x="67.8" y="5.6" style="font-family: Inter; font-size: 16px; fill: rgb(26, 26, 26); fill-opacity: 1; white-space: pre;" transform="translate(0,794.092)">50</text></g><g class="y4tick"><text text-anchor="end" x="67.8" y="5.6" style="font-family: Inter; font-size: 16px; fill: rgb(26, 26, 26); fill-opacity: 1; white-space: pre;" transform="translate(0,754.7819999999999)">60</text></g><g class="y4tick"><text text-anchor="end" x="67.8" y="5.6" style="font-family: Inter; font-size: 16px; fill: rgb(26, 26, 26); fill-opacity: 1; white-space: pre;" transform="translate(0,715.472)">70</text></g></g><g class="overaxes-above"/></g><g class="subplot x5y5"><g class="layer-subplot"><g class="shapelayer"/><g class="imagelayer"/></g><g class="minor-gridlayer"><g class="x5"/><g class="y5"/></g><g class="gridlayer"><g class="x5"/><g class="y5"><path class="y5grid crisp" transform="translate(0,1029.1860000000001)" d="M72,0h1084" style="stroke: rgb(232, 228, 222); stroke-opacity: 1; stroke-width: 1px;"/><path class="y5grid crisp" transform="translate(0,976.3460000000001)" d="M72,0h1084" style="stroke: rgb(232, 228, 222); stroke-opacity: 1; stroke-width: 1px;"/><path class="y5grid crisp" transform="translate(0,923.5060000000001)" d="M72,0h1084" style="stroke: rgb(232, 228, 222); stroke-opacity: 1; stroke-width: 1px;"/></g></g><g class="zerolinelayer"/><g class="layer-between"><g class="shapelayer"/><g class="imagelayer"/></g><path class="xlines-below"/><path class="ylines-below"/><g class="overlines-below"/><g class="xaxislayer-below"/><g class="yaxislayer-below"/><g class="overaxes-below"/><g class="overplot"><g class="x5y5" transform="translate(72,893.0160000000001)" clip-path="url(#clipdb9f49x5y5plot)"><g class="scatterlayer mlayer"><g class="trace scatter tracee85213" style="stroke-miterlimit: 2; opacity: 1;"><g class="fills"/><g class="errorbars"/><g class="lines"><path class="js-line" d="M0,83.33L4.52,78.05L6.77,73.29L9.03,69.07L11.29,85.45L13.55,104.47L15.81,135.64L18.07,146.74L20.32,150.44L22.58,151.5L24.84,150.97L27.1,153.61L29.36,153.08L31.62,154.14L33.88,153.08L36.13,144.63L38.39,131.95L40.65,121.38L42.91,102.88L47.42,110.28L49.68,106.58L51.94,104.47L54.2,117.68L58.72,125.08L60.97,125.08L63.23,128.78L65.49,144.63L67.75,146.21L70.01,153.08L72.27,153.08L74.52,149.91L79.04,149.38L81.3,151.5L83.56,151.5L85.82,149.91L90.33,148.33L92.59,138.82L94.85,130.89L97.11,136.17L99.37,138.82L101.63,134.59L106.14,122.96L108.4,120.32L110.66,115.57L112.92,114.51L115.17,112.92L117.43,106.58L119.69,118.21L121.95,117.68L124.21,113.45L126.47,119.79L128.72,137.23L130.98,143.57L133.24,148.86L135.5,147.27L137.76,143.04L140.02,144.1L142.27,145.16L144.53,141.99L146.79,137.76L149.05,127.19L151.31,111.34L153.57,102.88L158.08,96.54L160.34,101.83L162.6,118.21L164.86,120.32L167.12,118.21L169.38,118.21L171.63,116.09L173.89,101.83L176.15,105L178.41,118.21L180.67,136.7L182.92,145.68L185.18,145.68L187.44,148.33L189.7,149.91L191.96,147.8L194.22,146.21L196.47,147.8L203.25,114.51L205.51,112.92L207.77,103.94L210.02,100.24L212.28,91.79L214.54,86.5L216.8,101.83L219.06,106.58L221.32,99.71L223.57,90.2L225.83,89.67L228.09,93.9L232.61,106.58L234.87,120.85L237.13,127.72L239.38,126.13L241.64,127.72L243.9,130.89L248.42,133L250.67,129.3L255.19,111.87L257.45,109.22L259.71,108.17L261.97,102.36L264.22,99.18L266.48,98.13L273.26,123.49L275.52,121.38L277.77,115.57L280.03,116.62L282.29,133L284.55,127.72L289.07,145.16L291.32,146.74L293.58,149.38L295.84,147.27L298.1,147.8L300.36,149.38L302.62,144.1L304.88,133L307.13,116.09L309.39,76.46L311.65,62.72L313.91,61.14L316.17,63.25L318.42,57.97L320.68,46.87L322.94,45.82L325.2,45.82L327.46,48.99L329.72,46.34L331.97,53.21L334.23,51.63L336.49,58.5L338.75,63.25L341.01,93.37L343.27,127.19L345.52,137.23L350.04,144.1L352.3,146.74L359.07,145.16L361.33,132.47L365.85,92.32L368.11,85.45L372.63,70.65L374.88,61.67L377.14,64.31L379.4,64.84L381.66,68.54L383.92,81.75L386.17,92.84L388.43,96.54L390.69,102.88L392.95,120.85L397.47,143.04L399.72,144.63L401.98,144.63L404.24,139.34L406.5,134.59L408.76,133L411.02,137.23L413.27,139.34L415.53,140.93L417.79,131.42L422.31,108.17L424.57,108.17L426.82,109.22L429.08,102.36L431.34,104.47L433.6,126.66L435.86,125.08L438.12,128.78L442.63,130.36L444.89,135.64L449.41,146.21L451.67,146.74L456.18,148.33L458.44,145.16L460.7,148.33L462.96,147.27L465.22,146.74L467.47,142.51L471.99,117.15L474.25,97.6L476.51,93.37L478.77,97.6L481.02,91.26L483.28,79.63L485.54,65.9L487.8,65.37L490.06,77.52L492.32,76.99L496.83,64.31L499.09,68.54L503.61,85.45L505.87,101.3L508.13,129.3L510.38,140.4L514.9,149.38L517.16,142.51L519.42,137.76L521.67,129.3L523.93,108.7L526.19,75.41L528.45,59.55L530.71,52.16L532.97,48.46L535.22,42.65L537.48,47.93L539.74,61.67L544.26,72.24L546.52,82.28L548.77,88.09L551.03,88.62L553.29,99.71L555.55,102.36L557.81,111.34L560.07,125.61L562.32,139.87L564.58,146.74L566.84,147.8L569.1,147.8L571.36,147.8L573.62,146.74L575.88,135.64L578.13,130.89L580.39,114.51L582.65,113.45L584.91,108.7L587.17,101.83L589.42,95.49L591.68,106.05L593.94,120.32L596.2,126.13L598.46,127.19L600.72,132.47L605.23,133L607.49,134.06L609.75,136.7L612.01,143.57L614.27,146.21L616.52,152.03L618.78,155.72L621.04,156.78L627.82,156.25L630.07,154.67L632.33,150.97L634.59,134.59L639.11,116.09L641.37,116.62L643.63,113.98L645.88,100.24L650.4,80.16L652.66,75.94L654.92,81.75L657.17,71.71L659.43,76.99L661.69,92.32L663.95,104.47L666.21,109.75L670.72,152.03L672.98,152.03L675.24,153.61L677.5,152.55L679.76,152.03L682.02,150.44L684.27,144.1L686.53,121.91L688.79,88.09L691.05,68.01L693.31,56.91L695.57,64.31L697.82,64.31L700.08,59.03L702.34,57.97L704.6,63.25L706.86,64.31L709.12,56.91L713.63,67.48L715.89,80.16L718.15,87.03L720.41,115.57L722.67,143.04L724.92,150.97L729.44,156.25L731.7,153.08L733.96,152.03L736.22,153.08L738.47,150.97L740.73,144.63L745.25,83.33L747.51,68.01L749.77,63.78L752.02,56.91L756.54,34.72L758.8,29.96L761.06,40L763.32,59.03L774.61,145.68L776.87,145.68L779.13,146.74L781.38,146.74L783.64,145.16L785.9,146.21L788.16,145.16L790.42,146.21L792.67,148.86L794.93,143.57L799.45,96.01L801.71,84.39L803.97,79.63L806.22,85.45L808.48,74.88L810.74,77.52L813,82.28L815.26,89.15L817.52,88.09L819.77,91.79L822.03,99.18L824.29,121.91L826.55,137.76L828.81,147.8L831.07,146.74L833.32,144.63L835.58,143.57L837.84,145.16L840.1,146.74L842.36,146.74L849.13,144.1L851.39,129.83L853.65,111.34L855.91,103.41L858.17,100.24L860.42,98.66L864.94,90.2L867.2,81.75L869.46,87.03L871.72,96.01L873.97,93.37L876.23,98.13L878.49,98.66L880.75,118.21L883.01,138.29L885.27,137.23L887.52,138.29L889.78,141.46L894.3,145.68L896.56,145.68L901.07,141.99L903.33,140.4L905.59,126.13L907.85,97.07L912.37,75.41L914.63,77.52L916.88,75.41L919.14,64.84L921.4,57.44L923.66,56.38L925.92,57.44L928.17,55.86L930.43,62.2L932.69,76.46L934.95,85.97L937.21,112.92L939.47,138.82L941.72,146.21L946.24,148.86L948.5,149.91L950.76,148.33L953.02,148.33L955.27,149.38L957.53,135.64L959.79,102.36L962.05,53.21L966.57,18.34L968.82,9.88L971.08,8.3L973.34,43.17L980.12,59.03L982.38,64.84L984.63,65.9L986.89,78.05L989.15,93.37L991.41,123.49L993.67,144.1L995.92,145.16L998.18,147.8L1000.44,147.8L1004.96,148.86L1007.22,148.33L1009.47,146.21L1011.73,141.99L1013.99,119.79L1016.25,80.16L1018.51,70.65L1020.77,73.82L1023.02,66.95L1025.28,50.04L1027.54,41.06L1029.8,40.53L1032.06,46.34L1034.32,58.5L1036.57,57.44L1038.83,60.61L1041.09,74.35L1043.35,80.69L1045.61,101.3L1047.87,140.4L1050.13,146.74L1052.38,145.68L1054.64,145.68L1056.9,147.27L1059.16,145.68L1061.42,145.68L1063.67,145.16L1065.93,127.72L1068.19,80.69L1070.45,61.67L1072.71,42.65L1074.97,39.48L1077.22,42.12L1079.48,50.04L1081.74,54.8L1084,55.33" style="vector-effect: none; fill: none; stroke: rgb(154, 160, 166); stroke-opacity: 1; stroke-width: 1.4px; opacity: 1;"/></g><g class="points"/><g class="text"/></g><g class="trace scatter trace4b7f19" style="stroke-miterlimit: 2; opacity: 1;"><g class="fills"/><g class="errorbars"/><g class="lines"><path class="js-line" d="M0,95.9L2.26,97.11L4.52,100.43L6.77,94.34L9.03,92.77L11.29,85.88L13.55,92.89L15.81,95.01L18.07,110.82L20.32,115.05L22.58,126.42L27.1,132.47L29.36,130.92L31.62,130.15L33.88,121.88L36.13,115.23L38.39,104.57L40.65,102.48L42.91,95.31L45.17,98.76L47.42,100.01L49.68,105.85L51.94,105.99L54.2,110.9L56.46,109.5L58.72,113.46L60.97,110.54L63.23,112.84L65.49,108.77L70.01,115.32L72.27,126.76L76.78,143.83L79.04,147.55L81.3,150.47L83.56,149.07L88.07,141.14L90.33,134.37L92.59,125.2L94.85,109.85L99.37,92.38L101.63,88.9L103.88,90.88L106.14,94.49L108.4,96.33L110.66,96.45L112.92,96.29L115.17,94.79L119.69,92.09L121.95,91.3L124.21,91.9L126.47,100.9L128.72,105.26L130.98,117.14L133.24,121.49L135.5,127.68L137.76,125.47L140.02,127.18L144.53,116.61L146.79,106.93L151.31,80.15L153.57,70.91L155.82,66.24L158.08,65.21L162.6,65.5L164.86,61.47L167.12,64.74L169.38,64.2L171.63,64.64L173.89,61.86L176.15,59.25L178.41,62.77L187.44,103.69L189.7,110.21L191.96,114.35L194.22,109.48L198.73,100.55L200.99,86.72L203.25,75.69L205.51,59.42L207.77,54.29L210.02,42.72L212.28,43.7L214.54,46.34L216.8,52.57L219.06,48.93L221.32,55.75L223.57,52.65L225.83,58.4L228.09,54.07L232.61,61.35L234.87,72.21L237.13,82.08L239.38,96.01L243.9,118.69L246.16,120.47L248.42,126.84L250.67,124.58L252.93,128.77L255.19,121.9L257.45,122.49L259.71,112.15L261.97,110.37L264.22,106.97L266.48,108.99L268.74,112.19L273.26,118.42L275.52,118.61L277.77,120.92L280.03,119.4L282.29,119.09L284.55,116.81L289.07,116.5L291.32,120.28L293.58,122.46L295.84,129.77L298.1,132.65L300.36,136.84L302.62,135.61L304.88,132.21L307.13,128.53L309.39,122.6L311.65,118.26L313.91,103.88L316.17,98.98L318.42,98.7L320.68,97.56L322.94,98.4L325.2,97.16L327.46,103.15L329.72,106.43L331.97,108.03L336.49,111.63L338.75,110.65L341.01,111.27L343.27,109.91L345.52,112.82L347.78,112.45L352.3,116.53L354.56,117.5L356.82,117.33L359.07,115.69L368.11,103.98L370.37,99L372.63,98.63L374.88,97.32L377.14,105.03L379.4,104.94L381.66,111.28L383.92,112.59L386.17,121.77L388.43,125.65L390.69,128L392.95,128.46L395.21,129.53L397.47,129.51L401.98,132.42L404.24,136.82L406.5,135.82L408.76,138.34L411.02,135.39L413.27,133.94L420.05,123.37L422.31,118.29L424.57,116.69L426.82,116.32L429.08,117.17L431.34,119.33L438.12,125.79L440.38,127.57L447.15,129.22L449.41,130.72L451.67,133.4L453.92,137.75L458.44,142.19L460.7,142.35L462.96,141.43L465.22,138.76L467.47,135.45L469.73,130.24L474.25,119.92L476.51,114.24L478.77,110.3L481.02,108.75L483.28,111.84L485.54,112.84L487.8,115.43L490.06,116.52L492.32,118.5L494.57,117.83L501.35,113.76L503.61,113.39L508.13,120.62L510.38,122.04L512.64,125.14L514.9,124.1L517.16,123.45L519.42,120.16L521.67,116.74L523.93,111.16L530.71,95.06L532.97,93.08L535.22,91.29L537.48,95.82L539.74,97.42L542,102.1L544.26,103.45L546.52,107.21L548.77,106.85L551.03,107.87L553.29,105.46L555.55,107.96L557.81,107.8L560.07,114.39L562.32,119.85L564.58,127.33L569.1,134.89L571.36,135.09L573.62,133.68L575.88,130.79L582.65,114.58L584.91,108.32L589.42,109.83L591.68,117.57L593.94,120.02L596.2,126.03L600.72,129.76L602.97,129.32L605.23,127.11L607.49,123.03L609.75,123.16L612.01,126.43L614.27,134.71L616.52,139.69L618.78,147.21L621.04,149.29L623.3,151.44L625.56,147.85L627.82,143.94L630.07,137L639.11,97.97L641.37,92.93L643.63,93.51L645.88,95.54L648.14,97.59L650.4,96.88L654.92,98.41L657.17,101.23L659.43,99.7L661.69,100.79L663.95,99.12L666.21,106.25L668.47,110.25L670.72,121.9L672.98,128.25L675.24,137.79L679.76,138.11L682.02,133.73L686.53,118.39L688.79,106.27L693.31,88.55L695.57,83.89L700.08,85.62L702.34,92.67L704.6,92.42L706.86,101.41L709.12,98.71L711.38,103.66L713.63,100.54L715.89,100.33L718.15,96.71L720.41,101.05L722.67,104.82L724.92,114.06L729.44,123.98L731.7,126.85L733.96,123.64L736.22,123.45L738.47,115.7L740.73,111.87L742.99,105.46L745.25,102.36L747.51,101.44L749.77,98.78L752.02,100.24L754.28,98.18L756.54,108.38L758.8,109.94L761.06,121.22L763.32,121.46L765.57,126.46L767.83,121.05L770.09,123.02L772.35,116.3L779.13,139.24L781.38,141.62L783.64,147.18L785.9,148.54L790.42,144.98L792.67,136.03L794.93,130.21L797.19,122.21L799.45,115.55L801.71,111.89L803.97,106.34L806.22,112.07L808.48,108.26L810.74,116.43L813,113.76L815.26,116.02L817.52,114.54L819.77,118.81L822.03,114.21L824.29,115.8L826.55,111.94L828.81,119.22L831.07,125.53L833.32,136.32L835.58,142.03L837.84,150.18L840.1,157.39L842.36,157.68L844.62,154.44L846.88,143.59L849.13,134.09L851.39,115.43L853.65,103.61L855.91,87.09L858.17,86.51L860.42,84.83L862.68,92.75L864.94,93.96L867.2,96.58L869.46,94.26L871.72,96.6L873.97,96.84L876.23,97.5L878.49,92.45L883.01,96.03L885.27,107.47L892.04,143.71L894.3,152.65L898.82,153.28L901.07,141.48L903.33,131.4L905.59,103.9L907.85,89.58L910.11,70.08L912.37,67.99L914.63,62.47L916.88,66.01L919.14,67.14L921.4,70.21L923.66,69.8L925.92,74.63L928.17,76.93L930.43,78.33L932.69,69.16L934.95,68.16L937.21,71.99L943.98,118.41L946.24,127.86L948.5,137.18L950.76,137.35L953.02,137.73L955.27,125.23L957.53,112.48L959.79,85.75L964.31,55.65L966.57,50.67L968.82,47.37L971.08,54.88L973.34,56.43L975.6,55.2L977.86,58.46L980.12,59.23L982.38,65.36L984.63,63.93L989.15,66.76L991.41,85.78L993.67,88.92L995.92,108.35L998.18,113.61L1000.44,123.73L1002.7,125.21L1004.96,129.13L1007.22,125.95L1009.47,120.3L1011.73,114.4L1013.99,97.59L1020.77,54.93L1023.02,54.31L1025.28,56.54L1027.54,63.19L1029.8,63.65L1032.06,68.75L1034.32,69.96L1036.57,73.56L1038.83,72.2L1041.09,72.24L1043.35,66.15L1045.61,75.07L1047.87,87.23L1050.13,104.72L1052.38,113.24L1054.64,125.72L1059.16,134.82L1061.42,134.1L1065.93,124L1068.19,114.19L1070.45,96.37L1072.71,88.14L1074.97,78.42L1077.22,75.69L1079.48,72.75L1081.74,79.46L1084,79.8" style="vector-effect: none; fill: none; stroke: rgb(224, 83, 18); stroke-opacity: 1; stroke-width: 1.4px; opacity: 1;"/></g><g class="points"/><g class="text"/></g></g></g></g><g class="zerolinelayer-above"/><path class="xlines-above crisp" d="M71,1059.5H1156" style="fill: none; stroke-width: 1px; stroke: rgb(232, 228, 222); stroke-opacity: 1;"/><path class="ylines-above crisp" d="M71.5,893.0160000000001V1059" style="fill: none; stroke-width: 1px; stroke: rgb(232, 228, 222); stroke-opacity: 1;"/><g class="overlines-above"/><g class="xaxislayer-above"/><g class="yaxislayer-above"><g class="y5tick"><text text-anchor="end" x="67.8" y="5.6" transform="translate(0,1029.1860000000001)" style="font-family: Inter; font-size: 16px; fill: rgb(26, 26, 26); fill-opacity: 1; white-space: pre;">100</text></g><g class="y5tick"><text text-anchor="end" x="67.8" y="5.6" style="font-family: Inter; font-size: 16px; fill: rgb(26, 26, 26); fill-opacity: 1; white-space: pre;" transform="translate(0,976.3460000000001)">200</text></g><g class="y5tick"><text text-anchor="end" x="67.8" y="5.6" style="font-family: Inter; font-size: 16px; fill: rgb(26, 26, 26); fill-opacity: 1; white-space: pre;" transform="translate(0,923.5060000000001)">300</text></g></g><g class="overaxes-above"/></g></g><g class="polarlayer"/><g class="smithlayer"/><g class="ternarylayer"/><g class="geolayer"/><g class="funnelarealayer"/><g class="pielayer"/><g class="iciclelayer"/><g class="treemaplayer"/><g class="sunburstlayer"/><g class="glimages"/><defs id="topdefs-db9f49"><g class="clips"/><clipPath id="legenddb9f49"><rect width="288" height="39" x="0" y="0"/></clipPath></defs><g class="layer-above"><g class="imagelayer"/><g class="shapelayer"/></g><g class="infolayer"><g class="legend" pointer-events="all" transform="translate(470,12.23999999999998)"><rect class="bg" shape-rendering="crispEdges" style="stroke: rgb(68, 68, 68); stroke-opacity: 1; fill: rgb(0, 0, 0); fill-opacity: 0; stroke-width: 0px;" width="288" height="39" x="0" y="0"/><g class="scrollbox" transform="" clip-path="url(#legenddb9f49)"><g class="groups"><g class="traces" transform="translate(0,19.5)" style="opacity: 1;"><text class="legendtext" text-anchor="start" x="40" y="7.8" style="font-family: Inter; font-size: 20px; fill: rgb(26, 26, 26); fill-opacity: 1; white-space: pre;">actual</text><g class="layers" style="opacity: 1;"><g class="legendfill"/><g class="legendlines"><path class="js-line" d="M5,0h30" style="fill: none; stroke: rgb(154, 160, 166); stroke-opacity: 1; stroke-width: 1.4px;"/></g><g class="legendsymbols"><g class="legendpoints"/></g></g><rect class="legendtoggle" x="0" y="-14.5" width="90.25" height="29" style="fill: rgb(0, 0, 0); fill-opacity: 0;"/></g><g class="traces" transform="translate(92.75,19.5)" style="opacity: 1;"><text class="legendtext" text-anchor="start" x="40" y="7.8" style="font-family: Inter; font-size: 20px; fill: rgb(26, 26, 26); fill-opacity: 1; white-space: pre;">single-tier forecast</text><g class="layers" style="opacity: 1;"><g class="legendfill"/><g class="legendlines"><path class="js-line" d="M5,0h30" style="fill: none; stroke: rgb(224, 83, 18); stroke-opacity: 1; stroke-width: 1.4px;"/></g><g class="legendsymbols"><g class="legendpoints"/></g></g><rect class="legendtoggle" x="0" y="-14.5" width="191.89453125" height="29" style="fill: rgb(0, 0, 0); fill-opacity: 0;"/></g></g></g><rect class="scrollbar" rx="20" ry="3" width="0" height="0" style="fill: rgb(128, 139, 164); fill-opacity: 1;" x="0" y="0"/></g><g class="g-gtitle"/><g class="g-xtitle"/><g class="g-x2title"/><g class="g-x3title"/><g class="g-x4title"/><g class="g-x5title"/><g class="g-ytitle"/><g class="g-y2title"/><g class="g-y3title"/><g class="g-y4title"/><g class="g-y5title"/><g class="annotation" data-index="0" style="opacity: 1;"><g class="annotation-text-g" transform="rotate(0,614,60)"><g class="cursor-pointer" transform="translate(602,49)"><rect class="bg" x="0.5" y="0.5" width="23" height="21" style="stroke-width: 1px; stroke: rgb(0, 0, 0); stroke-opacity: 0; fill: rgb(0, 0, 0); fill-opacity: 0;"/><text class="annotation-text" text-anchor="middle" x="12.2265625" y="16" style="font-family: Inter; font-size: 16px; fill: rgb(26, 26, 26); fill-opacity: 1; white-space: pre;">SG</text></g></g></g><g class="annotation" data-index="1" style="opacity: 1;"><g class="annotation-text-g" transform="rotate(0,614,265.50399999999996)"><g class="cursor-pointer" transform="translate(594,255)"><rect class="bg" x="0.5" y="0.5" width="40" height="21" style="stroke-width: 1px; stroke: rgb(0, 0, 0); stroke-opacity: 0; fill: rgb(0, 0, 0); fill-opacity: 0;"/><text class="annotation-text" text-anchor="middle" x="20.671875" y="16" style="font-family: Inter; font-size: 16px; fill: rgb(26, 26, 26); fill-opacity: 1; white-space: pre;">NYIS</text></g></g></g><g class="annotation" data-index="2" style="opacity: 1;"><g class="annotation-text-g" transform="rotate(0,614,471.00800000000004)"><g class="cursor-pointer" transform="translate(598,460)"><rect class="bg" x="0.5" y="0.5" width="32" height="21" style="stroke-width: 1px; stroke: rgb(0, 0, 0); stroke-opacity: 0; fill: rgb(0, 0, 0); fill-opacity: 0;"/><text class="annotation-text" text-anchor="middle" x="16.6796875" y="16" style="font-family: Inter; font-size: 16px; fill: rgb(26, 26, 26); fill-opacity: 1; white-space: pre;">PJM</text></g></g></g><g class="annotation" data-index="3" style="opacity: 1;"><g class="annotation-text-g" transform="rotate(0,614,676.512)"><g class="cursor-pointer" transform="translate(605,666)"><rect class="bg" x="0.5" y="0.5" width="17" height="21" style="stroke-width: 1px; stroke: rgb(0, 0, 0); stroke-opacity: 0; fill: rgb(0, 0, 0); fill-opacity: 0;"/><text class="annotation-text" text-anchor="middle" x="9.1171875" y="16" style="font-family: Inter; font-size: 16px; fill: rgb(26, 26, 26); fill-opacity: 1; white-space: pre;">FI</text></g></g></g><g class="annotation" data-index="4" style="opacity: 1;"><g class="annotation-text-g" transform="rotate(0,614,882.0160000000001)"><g class="cursor-pointer" transform="translate(602,871)"><rect class="bg" x="0.5" y="0.5" width="23" height="21" style="stroke-width: 1px; stroke: rgb(0, 0, 0); stroke-opacity: 0; fill: rgb(0, 0, 0); fill-opacity: 0;"/><text class="annotation-text" text-anchor="middle" x="12.2265625" y="16" style="font-family: Inter; font-size: 16px; fill: rgb(26, 26, 26); fill-opacity: 1; white-space: pre;">BE</text></g></g></g></g></svg>