<svg class="main-svg" xmlns="http://www.w3.org/2000/svg" xmlns:xlink="http://www.w3.org/1999/xlink" width="1180" height="480" style="" viewBox="0 0 1180 480"><rect x="0" y="0" width="1180" height="480" style="fill: rgb(250, 248, 245); fill-opacity: 1;"/><defs id="defs-503605"><g class="clips"><clipPath id="clip503605xyplot" class="plotclip"><rect width="1084" height="350"/></clipPath><clipPath class="axesclip" id="clip503605x"><rect x="72" y="0" width="1084" height="480"/></clipPath><clipPath class="axesclip" id="clip503605y"><rect x="0" y="65" width="1180" height="350"/></clipPath><clipPath class="axesclip" id="clip503605xy"><rect x="72" y="65" width="1084" height="350"/></clipPath></g><g class="gradients"/><g class="patterns"/></defs><g class="bglayer"/><g class="layer-below"><g class="imagelayer"/><g class="shapelayer"/></g><g class="cartesianlayer"><g class="subplot xy"><g class="layer-subplot"><g class="shapelayer"/><g class="imagelayer"/></g><g class="minor-gridlayer"><g class="x"/><g class="y"/></g><g class="gridlayer"><g class="x"/><g class="y"><path class="ygrid crisp" transform="translate(0,364.62)" d="M72,0h1084" style="stroke: rgb(232, 228, 222); stroke-opacity: 1; stroke-width: 1px;"/><path class="ygrid crisp" transform="translate(0,298.75)" d="M72,0h1084" style="stroke: rgb(232, 228, 222); stroke-opacity: 1; stroke-width: 1px;"/><path class="ygrid crisp" transform="translate(0,232.89)" d="M72,0h1084" style="stroke: rgb(232, 228, 222); stroke-opacity: 1; stroke-width: 1px;"/><path class="ygrid crisp" transform="translate(0,167.01999999999998)" d="M72,0h1084" style="stroke: rgb(232, 228, 222); stroke-opacity: 1; stroke-width: 1px;"/><path class="ygrid crisp" transform="translate(0,101.15)" d="M72,0h1084" style="stroke: rgb(232, 228, 222); stroke-opacity: 1; stroke-width: 1px;"/></g></g><g class="zerolinelayer"/><g class="layer-between"><g class="shapelayer"/><g class="imagelayer"/></g><path class="xlines-below"/><path class="ylines-below"/><g class="overlines-below"/><g class="xaxislayer-below"/><g class="yaxislayer-below"/><g class="overaxes-below"/><g class="overplot"><g class="xy" transform="translate(72,65)" clip-path="url(#clip503605xyplot)"><g class="scatterlayer mlayer"><g class="trace scatter tracea557e9" style="stroke-miterlimit: 2; opacity: 1;"><g class="fills"/><g class="errorbars"/><g class="lines"><path class="js-line" d="M0,330.95L11.41,332.5L22.82,327.29L34.23,323.22L45.64,322.82L57.05,325.1L68.46,325.24L79.87,322.25L91.28,321.17L102.69,319.68L114.11,319.82L125.52,317.6L136.93,318.71L159.75,321.7L171.16,323.92L182.57,321.04L193.98,319.89L205.39,319.61L216.8,322.07L228.21,321.85L239.62,319.05L262.44,319.47L273.85,319.34L285.26,320.91L296.67,319.17L308.08,317.93L319.49,314.55L330.91,315.25L342.32,313.72L353.73,313.26L365.14,313.94L376.55,315.14L387.96,311.65L399.37,311.17L410.78,312.04L422.19,313.35L433.6,313.35L445.01,314.75L456.42,313.11L467.83,308.53L479.24,306.61L502.06,304.94L513.47,302.17L524.88,306.1L536.29,306.15L547.71,306.72L559.12,309.79L581.94,309.65L593.35,307.65L604.76,308.12L616.17,307.17L627.58,305.47L638.99,305.61L650.4,304.34L661.81,304.94L673.22,304.04L684.63,309.4L707.45,316.35L718.86,314.3L730.27,309.59L741.68,307.73L753.09,307.49L764.51,311.33L775.92,314.6L787.33,309.19L798.74,307.66L810.15,308.6L821.56,310.32L832.97,310.83L855.79,311.09L867.2,310.78L878.61,309.05L890.02,305.54L901.43,301.63L912.84,303.01L924.25,302.79L935.66,301.57L947.07,304.59L958.48,304.36L969.89,307.08L981.31,308.55L992.72,305.93L1004.13,299.87L1015.54,297.76L1026.95,298.68L1038.36,297.97L1049.77,296.39L1061.18,297.89L1072.59,302.02L1084,306.91" style="vector-effect: none; fill: none; stroke: rgb(230, 159, 0); stroke-opacity: 1; stroke-width: 2.4px; opacity: 1;"/></g><g class="points"/><g class="text"/></g><g class="trace scatter trace511325" style="stroke-miterlimit: 2; opacity: 1;"><g class="fills"/><g class="errorbars"/><g class="lines"><path class="js-line" d="M0,256.3L11.41,254.9L22.82,250.27L34.23,245.55L45.64,242.04L57.05,243.44L68.46,247.57L79.87,242.35L91.28,240.95L102.69,237.03L114.11,231.56L125.52,237.07L136.93,228.66L148.34,233.31L159.75,233.29L182.57,233.16L193.98,227.98L205.39,224.53L216.8,224.65L239.62,219.08L251.03,215.48L262.44,217.13L273.85,209.9L296.67,208.07L308.08,208.6L319.49,205.36L330.91,205.91L342.32,204.38L353.73,205.18L365.14,205.9L376.55,201.19L387.96,199.94L399.37,196.72L410.78,201.59L422.19,196.76L433.6,196.92L445.01,199.87L456.42,199.88L467.83,196.3L479.24,195.93L490.65,197.35L502.06,198.51L513.47,189.78L524.88,195.19L536.29,191.65L547.71,192.21L559.12,187.77L570.53,191.92L581.94,186.58L593.35,189.87L604.76,188.98L616.17,194.04L627.58,197.39L638.99,197.88L650.4,192.26L661.81,194.27L673.22,189.79L696.04,194.05L707.45,187.89L718.86,197.42L730.27,194.83L741.68,191.96L753.09,192.01L764.51,197.07L775.92,192.79L787.33,187.9L798.74,186.71L810.15,190.89L821.56,191.51L832.97,186.46L844.38,184.08L855.79,192.39L867.2,185.28L878.61,182.05L890.02,186.65L901.43,190.71L912.84,187.18L924.25,183.74L935.66,181.94L947.07,180.31L958.48,182.34L969.89,180.22L981.31,181.09L992.72,187.06L1004.13,185.83L1015.54,184.52L1026.95,184.43L1038.36,187.31L1049.77,182.33L1061.18,180.88L1072.59,178.26L1084,177.4" style="vector-effect: none; fill: none; stroke: rgb(213, 94, 0); stroke-opacity: 1; stroke-width: 2.4px; opacity: 1;"/></g><g class="points"/><g class="text"/></g><g class="trace scatter traceb3d2bc" style="stroke-miterlimit: 2; opacity: 1;"><g class="fills"/><g class="errorbars"/><g class="lines"><path class="js-line" d="M0,302.49L11.41,297.89L22.82,296.54L34.23,295.27L45.64,295.43L57.05,290.32L68.46,287.49L79.87,287.49L91.28,289.91L102.69,284.75L114.11,283.43L125.52,284.82L136.93,285L148.34,281.63L159.75,281.8L171.16,282.02L182.57,279.74L193.98,278.3L205.39,276.05L216.8,275.13L228.21,278.55L239.62,276.63L251.03,273.89L262.44,270.44L273.85,268.39L285.26,265.11L296.67,266.11L308.08,267.49L319.49,266.73L330.91,263.12L342.32,263.08L365.14,262.14L376.55,259.67L410.78,258.99L422.19,256.87L433.6,256.99L445.01,256.1L467.83,257.37L479.24,257.77L502.06,258.27L513.47,255.34L524.88,256.21L536.29,254.9L547.71,257.38L559.12,253.99L570.53,254.51L581.94,254.18L593.35,253.21L604.76,249.77L616.17,250.64L627.58,249.53L650.4,253.27L661.81,250.62L673.22,251.88L684.63,250.24L696.04,247.96L707.45,246.84L730.27,249.13L741.68,250.99L764.51,249.59L775.92,246.19L787.33,245.99L798.74,241.65L810.15,241.43L821.56,244.09L832.97,247.06L844.38,245.66L855.79,241.94L867.2,242.45L878.61,240.91L890.02,237.26L901.43,236.69L912.84,239.57L924.25,238.01L935.66,233.72L947.07,237.95L958.48,238.73L992.72,237.32L1004.13,235.57L1015.54,236.82L1026.95,234.56L1038.36,232.21L1049.77,229.07L1072.59,229.1L1084,226.35" style="vector-effect: none; fill: none; stroke: rgb(0, 158, 115); stroke-opacity: 1; stroke-width: 2.4px; opacity: 1;"/></g><g class="points"/><g class="text"/></g><g class="trace scatter trace977553" style="stroke-miterlimit: 2; opacity: 1;"><g class="fills"/><g class="errorbars"/><g class="lines"><path class="js-line" d="M0,232.88L22.82,219.69L34.23,212.57L68.46,195.31L79.87,192.69L91.28,188.51L102.69,187.91L114.11,185.52L125.52,184.2L136.93,181.75L148.34,176.6L171.16,172.83L182.57,170.37L193.98,171.32L205.39,173.67L216.8,171.12L228.21,173.11L239.62,174.3L251.03,170.2L262.44,172.11L273.85,171.28L285.26,169.19L296.67,169.61L308.08,171.78L319.49,172.34L330.91,174.05L342.32,171.11L353.73,174.51L365.14,175.26L376.55,173.01L387.96,172.01L399.37,174.29L410.78,170.07L422.19,167.18L433.6,162.22L445.01,160.94L456.42,158.36L467.83,156.55L479.24,153.01L490.65,151.9L502.06,150.02L513.47,146.46L524.88,144.08L536.29,138.14L547.71,138.41L559.12,137.3L570.53,138.15L581.94,136.37L593.35,138.12L604.76,139.27L616.17,143.06L627.58,146.65L638.99,147.21L650.4,144.88L661.81,143.32L673.22,140.94L684.63,133.28L696.04,134.87L707.45,132.09L718.86,133.9L730.27,130.96L741.68,136.66L753.09,134.91L775.92,141.24L787.33,141.98L798.74,144.47L810.15,148.59L821.56,146.81L832.97,147.63L855.79,156.44L867.2,158.83L878.61,161.42L890.02,161.78L901.43,167.72L912.84,169.54L924.25,171.59L935.66,169.83L947.07,170.78L958.48,174.12L981.31,173.35L992.72,180.67L1004.13,183.36L1015.54,184.51L1026.95,186.42L1038.36,186.4L1049.77,187.56L1061.18,183.56L1072.59,182.82L1084,179.16" style="vector-effect: none; fill: none; stroke: rgb(86, 180, 233); stroke-opacity: 1; stroke-width: 2.4px; opacity: 1;"/></g><g class="points"/><g class="text"/></g><g class="trace scatter trace076172" style="stroke-miterlimit: 2; opacity: 1;"><g class="fills"/><g class="errorbars"/><g class="lines"><path class="js-line" d="M0,130.95L11.41,132.18L22.82,127.42L34.23,118.93L45.64,113.14L57.05,101.49L68.46,85.31L79.87,83.43L91.28,75.2L102.69,74.95L114.11,79.12L125.52,88.32L136.93,83.9L148.34,85.48L159.75,81.6L171.16,81.34L182.57,88.4L193.98,72.72L205.39,82.35L216.8,82.65L228.21,89.68L239.62,86.3L251.03,92.31L262.44,83.91L273.85,83.37L285.26,92.35L296.67,82.1L308.08,90.68L319.49,78.86L330.91,64.61L342.32,66.03L353.73,59.81L365.14,68.01L376.55,60.24L387.96,47.82L399.37,56.29L410.78,56.2L422.19,62.64L433.6,60.61L445.01,60.91L456.42,67.91L479.24,61.12L490.65,72.31L502.06,60.15L513.47,56.65L524.88,47.95L536.29,69.89L547.71,69.65L559.12,73.41L570.53,62.97L581.94,63.92L593.35,65.55L604.76,62.67L627.58,53.21L638.99,54.14L650.4,43.46L661.81,43.51L673.22,51.48L684.63,49.04L696.04,54.42L707.45,51.33L718.86,58.27L730.27,56.47L741.68,58.83L753.09,43.11L764.51,64.32L775.92,59.05L787.33,56.17L798.74,57.94L810.15,74.16L821.56,84.97L832.97,79.9L844.38,89.96L855.79,97.09L867.2,94.75L878.61,78.98L890.02,77.13L901.43,57.05L912.84,70.51L924.25,64.04L935.66,50.28L947.07,54.85L958.48,41.62L969.89,41.43L981.31,43.3L992.72,44.56L1004.13,44L1015.54,44.67L1026.95,48.95L1038.36,60.03L1049.77,54.77L1061.18,39.07L1072.59,17.5L1084,31.91" style="vector-effect: none; fill: none; stroke: rgb(0, 114, 178); stroke-opacity: 1; stroke-width: 2.4px; opacity: 1;"/></g><g class="points"/><g class="text"/></g></g></g></g><g class="zerolinelayer-above"/><path class="xlines-above crisp" d="M71,415.5H1156" style="fill: none; stroke-width: 1px; stroke: rgb(232, 228, 222); stroke-opacity: 1;"/><path class="ylines-above crisp" d="M71.5,65V415" style="fill: none; stroke-width: 1px; stroke: rgb(232, 228, 222); stroke-opacity: 1;"/><g class="overlines-above"/><g class="xaxislayer-above"><g class="xtick"><text text-anchor="middle" x="0" y="435.2" transform="translate(334.44,0)" style="font-family: Inter; font-size: 16px; fill: rgb(26, 26, 26); fill-opacity: 1; white-space: pre;">24</text></g><g class="xtick"><text text-anchor="middle" x="0" y="435.2" style="font-family: Inter; font-size: 16px; fill: rgb(26, 26, 26); fill-opacity: 1; white-space: pre;" transform="translate(608.29,0)">48</text></g><g class="xtick"><text text-anchor="middle" x="0" y="435.2" style="font-family: Inter; font-size: 16px; fill: rgb(26, 26, 26); fill-opacity: 1; white-space: pre;" transform="translate(882.15,0)">72</text></g><g class="xtick"><text text-anchor="middle" x="0" y="435.2" style="font-family: Inter; font-size: 16px; fill: rgb(26, 26, 26); fill-opacity: 1; white-space: pre;" transform="translate(1156,0)">96</text></g></g><g class="yaxislayer-above"><g class="ytick"><text text-anchor="end" x="67.8" y="5.6" transform="translate(0,364.62)" style="font-family: Inter; font-size: 16px; fill: rgb(26, 26, 26); fill-opacity: 1; white-space: pre;">5</text></g><g class="ytick"><text text-anchor="end" x="67.8" y="5.6" style="font-family: Inter; font-size: 16px; fill: rgb(26, 26, 26); fill-opacity: 1; white-space: pre;" transform="translate(0,298.75)">10</text></g><g class="ytick"><text text-anchor="end" x="67.8" y="5.6" style="font-family: Inter; font-size: 16px; fill: rgb(26, 26, 26); fill-opacity: 1; white-space: pre;" transform="translate(0,232.89)">15</text></g><g class="ytick"><text text-anchor="end" x="67.8" y="5.6" style="font-family: Inter; font-size: 16px; fill: rgb(26, 26, 26); fill-opacity: 1; white-space: pre;" transform="translate(0,167.01999999999998)">20</text></g><g class="ytick"><text text-anchor="end" x="67.8" y="5.6" style="font-family: Inter; font-size: 16px; fill: rgb(26, 26, 26); fill-opacity: 1; white-space: pre;" transform="translate(0,101.15)">25</text></g></g><g class="overaxes-above"/></g></g><g class="polarlayer"/><g class="smithlayer"/><g class="ternarylayer"/><g class="geolayer"/><g class="funnelarealayer"/><g class="pielayer"/><g class="iciclelayer"/><g class="treemaplayer"/><g class="sunburstlayer"/><g class="glimages"/><defs id="topdefs-503605"><g class="clips"/><clipPath id="legend503605"><rect width="378" height="39" x="0" y="0"/></clipPath></defs><g class="layer-above"><g class="imagelayer"/><g class="shapelayer"/></g><g class="infolayer"><g class="legend" pointer-events="all" transform="translate(425,11.999999999999986)"><rect class="bg" shape-rendering="crispEdges" style="stroke: rgb(68, 68, 68); stroke-opacity: 1; fill: rgb(0, 0, 0); fill-opacity: 0; stroke-width: 0px;" width="378" height="39" x="0" y="0"/><g class="scrollbox" transform="" clip-path="url(#legend503605)"><g class="groups"><g class="traces" transform="translate(0,19.5)" style="opacity: 1;"><text class="legendtext" text-anchor="start" x="40" y="7.8" style="font-family: Inter; font-size: 20px; fill: rgb(26, 26, 26); fill-opacity: 1; white-space: pre;">SG</text><g class="layers" style="opacity: 1;"><g class="legendfill"/><g class="legendlines"><path class="js-line" d="M5,0h30" style="fill: none; stroke: rgb(230, 159, 0); stroke-opacity: 1; stroke-width: 2.4px;"/></g><g class="legendsymbols"><g class="legendpoints"/></g></g><rect class="legendtoggle" x="0" y="-14.5" width="68.078125" height="29" style="fill: rgb(0, 0, 0); fill-opacity: 0;"/></g><g class="traces" transform="translate(70.578125,19.5)" style="opacity: 1;"><text class="legendtext" text-anchor="start" x="40" y="7.8" style="font-family: Inter; font-size: 20px; fill: rgb(26, 26, 26); fill-opacity: 1; white-space: pre;">NYIS</text><g class="layers" style="opacity: 1;"><g class="legendfill"/><g class="legendlines"><path class="js-line" d="M5,0h30" style="fill: none; stroke: rgb(213, 94, 0); stroke-opacity: 1; stroke-width: 2.4px;"/></g><g class="legendsymbols"><g class="legendpoints"/></g></g><rect class="legendtoggle" x="0" y="-14.5" width="89.171875" height="29" style="fill: rgb(0, 0, 0); fill-opacity: 0;"/></g><g class="traces" transform="translate(162.25,19.5)" style="opacity: 1;"><text class="legendtext" text-anchor="start" x="40" y="7.8" style="font-family: Inter; font-size: 20px; fill: rgb(26, 26, 26); fill-opacity: 1; white-space: pre;">PJM</text><g class="layers" style="opacity: 1;"><g class="legendfill"/><g class="legendlines"><path class="js-line" d="M5,0h30" style="fill: none; stroke: rgb(0, 158, 115); stroke-opacity: 1; stroke-width: 2.4px;"/></g><g class="legendsymbols"><g class="legendpoints"/></g></g><rect class="legendtoggle" x="0" y="-14.5" width="79.203125" height="29" style="fill: rgb(0, 0, 0); fill-opacity: 0;"/></g><g class="traces" transform="translate(243.953125,19.5)" style="opacity: 1;"><text class="legendtext" text-anchor="start" x="40" y="7.8" style="font-family: Inter; font-size: 20px; fill: rgb(26, 26, 26); fill-opacity: 1; white-space: pre;">FI</text><g class="layers" style="opacity: 1;"><g class="legendfill"/><g class="legendlines"><path class="js-line" d="M5,0h30" style="fill: none; stroke: rgb(86, 180, 233); stroke-opacity: 1; stroke-width: 2.4px;"/></g><g class="legendsymbols"><g class="legendpoints"/></g></g><rect class="legendtoggle" x="0" y="-14.5" width="60.296875" height="29" style="fill: rgb(0, 0, 0); fill-opacity: 0;"/></g><g class="traces" transform="translate(306.75,19.5)" style="opacity: 1;"><text class="legendtext" text-anchor="start" x="40" y="7.8" style="font-family: Inter; font-size: 20px; fill: rgb(26, 26, 26); fill-opacity: 1; white-space: pre;">BE</text><g class="layers" style="opacity: 1;"><g class="legendfill"/><g class="legendlines"><path class="js-line" d="M5,0h30" style="fill: none; stroke: rgb(0, 114, 178); stroke-opacity: 1; stroke-width: 2.4px;"/></g><g class="legendsymbols"><g class="legendpoints"/></g></g><rect class="legendtoggle" x="0" y="-14.5" width="68.0625" height="29" style="fill: rgb(0, 0, 0); fill-opacity: 0;"/></g></g></g><rect class="scrollbar" rx="20" ry="3" width="0" height="0" style="fill: rgb(128, 139, 164); fill-opacity: 1;" x="0" y="0"/></g><g class="g-gtitle"/><g class="g-xtitle"><text class="xtitle" x="614" y="467.7001953125" text-anchor="middle" style="opacity: 1; font-family: Inter; font-size: 20px; fill: rgb(26, 26, 26); fill-opacity: 1; white-space: pre;">forecast horizon (hours ahead)</text></g><g class="g-ytitle"><text class="ytitle" transform="rotate(-90,30.2998046875,240)" x="30.2998046875" y="240" text-anchor="middle" style="opacity: 1; font-family: Inter; font-size: 20px; fill: rgb(26, 26, 26); fill-opacity: 1; white-space: pre;">total-gen nRMSE (%)</text></g></g></svg>